<?xml version="1.0" standalone="no"?><!DOCTYPE svg PUBLIC "-//W3C//DTD SVG 1.1//EN" "http://www.w3.org/Graphics/SVG/1.1/DTD/svg11.dtd"><svg class="icon" width="200px" height="200.00px" viewBox="0 0 1024 1024" version="1.1" xmlns="http://www.w3.org/2000/svg"><path fill="#333333" d="M0.479571 0l0 1024 1023.040858 0L1023.520429 0 0.479571 0zM977.301349 977.78092 44.922463 977.78092 44.922463 42.666704l932.378887 0L977.301349 977.78092zM303.792117 828.834222 240.06515 764.835499 792.365527 764.835499 728.63856 828.834222 792.366415 828.834222 877.334816 743.502591 877.334816 743.500815 792.366415 658.168296 728.63856 658.168296 792.367303 722.168795 240.063374 722.168795 303.792117 658.168296 240.064262 658.168296 155.097637 743.500815 155.097637 743.502591 240.064262 828.834222ZM451.396016 573.317123 500.025384 573.456554 644.500528 246.931893 644.500528 189.565457 387.931926 189.565457 387.931926 232.424877 601.784979 232.424877Z" /></svg>