<?xml version="1.0" standalone="no"?><!DOCTYPE svg PUBLIC "-//W3C//DTD SVG 1.1//EN" "http://www.w3.org/Graphics/SVG/1.1/DTD/svg11.dtd"><svg class="icon" width="200px" height="200.00px" viewBox="0 0 1024 1024" version="1.1" xmlns="http://www.w3.org/2000/svg"><path fill="#333333" d="M701.225 593.5l33.7-33.7c9.8-9.8 25.7-9.8 35.5 0L945.625 735c9.8 9.8 9.8 25.7 0 35.5L770.525 945.6c-9.8 9.8-25.7 9.8-35.5 0L559.825 770.5c-9.8-9.8-9.8-25.7 0-35.5l33.7-33.7c9.8-9.8 9.8-25.7 0-35.5s-25.7-9.8-35.5 0L488.825 735c-9.8 9.8-9.8 25.7 0 35.5L735.025 1016.6c9.8 9.8 25.7 9.8 35.5 0l246.2-246.2c9.8-9.8 9.8-25.7 0-35.5L770.525 488.8c-9.8-9.8-25.7-9.8-35.5 0L665.725 558c-9.8 9.8-9.8 25.7 0 35.5s25.7 9.8 35.5 0zM7.425 289l246.2 246.2c9.8 9.8 25.7 9.8 35.5 0l69.2-69.2c9.8-9.8 9.8-25.7 0-35.5s-25.7-9.8-35.5 0L289.025 464.2c-9.8 9.8-25.7 9.8-35.5 0L78.425 289c-9.8-9.8-9.8-25.7 0-35.5L253.525 78.4c9.8-9.8 25.7-9.8 35.5 0l175.2 175.2c9.8 9.8 9.8 25.7 0 35.5l-33.7 33.7c-9.8 9.8-9.8 25.7 0 35.5s25.7 9.8 35.5 0l69.2-69.2c9.8-9.8 9.8-25.7 0-35.5L289.025 7.4c-9.8-9.8-25.7-9.8-35.5 0L7.425 253.5c-9.9 9.8-9.9 25.7 0 35.5z"  /><path fill="#333333" d="M333.025 368.5L655.525 691c9.8 9.8 25.7 9.8 35.5 0s9.8-25.7 0-35.5L368.525 333c-9.8-9.8-25.7-9.8-35.5 0s-9.8 25.7 0 35.5z"  /></svg>