<?xml version="1.0" standalone="no"?><!DOCTYPE svg PUBLIC "-//W3C//DTD SVG 1.1//EN" "http://www.w3.org/Graphics/SVG/1.1/DTD/svg11.dtd"><svg class="icon" width="200px" height="200.00px" viewBox="0 0 1024 1024" version="1.1" xmlns="http://www.w3.org/2000/svg"><path fill="#333333" d="M939.8 293.9H665.9L878.6 81.3c11.7-11.7 11.7-30.7 0-42.4s-30.7-11.7-42.4 0l-255.1 255H442.9L188.3 39.3c-11.6-11.6-30.4-12.3-42.3-1-12.3 11.7-12.5 31.1-0.6 43L358 293.9H84.2C37.7 293.9 0 331.6 0 378.1v531.5c0 46.5 37.7 84.2 84.2 84.2h855.5c46.5 0 84.2-37.7 84.2-84.2V378.1c0.1-46.5-37.6-84.2-84.1-84.2zM605.6 808.6c-20.4 4.2-42.6 4.1-63.3 1.3-19.7-2.7-29.3-20.2-22.4-38.9 6.5-17.5 15.5-35 27-49.6 24.7-31.5 52.4-60.5 77.4-91.7 15.3-19.1 29-39.8 41.1-61.2 8.7-15.3 4.8-33.6-10.6-41.3-26-12.9-53.9-22-81.3-32-3.1-1.1-8 2.3-14.1 4.4 7.8 7.2 13.7 12.6 21.6 19.9-81.3 13.9-158.7 34.3-233.7 62.1-0.3 1.6-1 2.8-0.6 3.4 11 17.4 5.9 30.7-10.2 41.6-6.1 4.2-11.7 9.1-16.3 15.6 49.4 14.9 93.5 6.4 135.4-21.9-2.6-3.9-5-7.3-7.5-11.1 16 2.7 25.5 11.7 26.7 25.7 0.3 3.1-1.7 6.4-2.6 9.6-2.3-2.6-4.9-5-6.9-7.8-1.2-1.8-1.6-4.1-2.6-7.3-50 34.3-103.7 42.8-163.1 25 0 11.9-0.6 22 0.2 32.1 0.6 8.7-2.9 12.3-10.3 16.9-17.2 10.7-34.9 21.8-48.9 36.1-17.2 17.4-10.8 38.5 12.3 47.4 26.3 10.2 53.8 10.3 81.2 7 32.4-4 64.7-9.4 99.9-14.7-41.6 19.8-82.2 33.9-125.3 39.7-30 4-60.1 6.2-89.9-2.4-42.7-12.3-61.7-44.7-50.5-87.8 10.5-40.4 35.6-72.7 62.9-102.5C322 527 436.8 476.6 569.7 466.7c31-2.3 62.4 1.8 91.4 15.2 40.9 19 57.8 59.1 38.1 99.7-13.1 26.9-31.2 51.6-49 75.9-17.6 24-37.8 46.1-56.4 69.3-5.5 6.8-10.5 14.3-14.6 22.1-7.7 14.8-2.4 24.8 14.3 23.2 35.1-3.5 70.7-6.3 104.6-15.2 49.7-13.1 98.1-31.4 147.1-47.5h0.1c1.2-0.4 2 1.3 0.9 2-76.8 41.6-154.8 79.3-240.6 97.2z" /></svg>