<?xml version="1.0" standalone="no"?><!DOCTYPE svg PUBLIC "-//W3C//DTD SVG 1.1//EN" "http://www.w3.org/Graphics/SVG/1.1/DTD/svg11.dtd"><svg class="icon" width="200px" height="200.00px" viewBox="0 0 1024 1024" version="1.1" xmlns="http://www.w3.org/2000/svg"><path fill="#333333" d="M991 0H33C14.8 0 0 14.8 0 33v958c0 18.2 14.8 33 33 33h958c18.2 0 33-14.8 33-33V33c0-18.2-14.8-33-33-33zM60 314.3c0-18.2 14.8-33 33-33h157.2c17 0 30.8 13.8 30.8 30.8v401c0 16.3-13.2 29.6-29.6 29.6H93c-18.2 0-33-14.8-33-33V314.3z m623 398.2c0 13.5-8.1 25.1-19.7 30.2H360.7c-11.6-5.1-19.7-16.7-19.7-30.2V317.1c0-18.2 14.8-33 33-33h276c18.2 0 33 14.8 33 33v395.4zM964 931c0 18.2-14.8 33-33 33H93c-18.2 0-33-14.8-33-33v-95.4c0-18.2 14.8-33 33-33h838c18.2 0 33 14.8 33 33V931z m0-221.3c0 18.2-14.8 33-33 33H773.4c-16.8 0-30.4-13.6-30.4-30.4V308.4c0-15 12.1-27.1 27.1-27.1H931c18.2 0 33 14.8 33 33v395.4z m0-521.3c0 18.2-14.8 32.9-33 32.9H93c-18.2 0-33-14.8-33-33V93c0-18.2 14.8-33 33-33h838c18.2 0 33 14.8 33 33v95.4z"  /></svg>