<?xml version="1.0" standalone="no"?><!DOCTYPE svg PUBLIC "-//W3C//DTD SVG 1.1//EN" "http://www.w3.org/Graphics/SVG/1.1/DTD/svg11.dtd"><svg class="icon" width="200px" height="200.00px" viewBox="0 0 1024 1024" version="1.1" xmlns="http://www.w3.org/2000/svg"><path fill="#333333" d="M984 0H40C17.9 0 0 17.9 0 40s17.9 40 40 40h944c22.1 0 40-17.9 40-40s-17.9-40-40-40zM984 944H40c-22.1 0-40 17.9-40 40s17.9 40 40 40h944c22.1 0 40-17.9 40-40s-17.9-40-40-40zM733 552c22.1 0 40-17.9 40-40s-17.9-40-40-40H291c-22.1 0-40 17.9-40 40s17.9 40 40 40h442zM393.7 208.4c-11.1 10.8-3.4 29.7 12.1 29.7h67.1c10.5 0 19.1 8.5 19.1 19.1v133.1c0 10.5 8.5 19.1 19.1 19.1H553c10.5 0 19.1-8.5 19.1-19.1V257.1c0-10.5 8.5-19.1 19.1-19.1h67.1c15.5 0 23.2-18.8 12.1-29.7L544.1 84.9c-3.4-3.3-7.7-4.9-12.1-4.9s-8.7 1.6-12.1 4.9L393.7 208.4z"  /><path fill="#333333" d="M670.3 815.6c11.1-10.8 3.4-29.7-12.1-29.7h-67.1c-10.5 0-19.1-8.5-19.1-19.1V633.7c0-10.5-8.5-19.1-19.1-19.1H511c-10.5 0-19.1 8.5-19.1 19.1v133.1c0 10.5-8.5 19.1-19.1 19.1h-67.1c-15.5 0-23.2 18.8-12.1 29.7l126.2 123.5c3.4 3.3 7.7 4.9 12.1 4.9s8.7-1.6 12.1-4.9l126.3-123.5z"  /></svg>