<?xml version="1.0" standalone="no"?><!DOCTYPE svg PUBLIC "-//W3C//DTD SVG 1.1//EN" "http://www.w3.org/Graphics/SVG/1.1/DTD/svg11.dtd"><svg class="icon" width="200px" height="200.00px" viewBox="0 0 1024 1024" version="1.1" xmlns="http://www.w3.org/2000/svg"><path fill="#333333" d="M208.9 459v310c0 12.4 6.6 23.8 17.3 30l268.5 155c10.7 6.2 23.9 6.2 34.6 0l268.5-155c10.7-6.2 17.3-17.6 17.3-30V459c0-12.4-6.6-23.8-17.3-30L529.3 274c-10.7-6.2-23.9-6.2-34.6 0L226.2 429c-10.7 6.2-17.3 17.6-17.3 30z m481.3 13.3l-68.6 39.6C594.2 482.5 555.1 464 512 464c-42.1 0-80.2 17.6-107.5 45.7l-70.9-40.9c-8-4.6-8-16.2 0-20.9l162.3-93.8c10-5.8 22.2-5.8 32.2 0l162.1 93.6c9.5 5.5 9.5 19.1 0 24.6zM602 614c0 23.9-9.4 46.4-26.5 63.5-2.6 2.6-5.4 5.1-8.2 7.3-8.2 6.5-20.3 0.6-20.3-9.9v-20c0-11.9 6.4-22.9 16.7-28.9l29.7-17.1c3.8-2.1 8.6 0.6 8.6 5.1 0-0.1 0 0 0 0z m-168.5-6.7l26.8 15.5c10.3 6 16.7 17 16.7 28.9v23.2c0 10.4-12 16.3-20.3 9.9-2.9-2.3-5.6-4.7-8.2-7.3-17.1-17.1-26.5-39.6-26.5-63.5v-0.1c0-5.9 6.4-9.5 11.5-6.6z m64.7-43.4L480 553.3c-9.9-5.7-8.5-20.4 2.3-24.2 9.4-3.3 19.4-5.1 29.7-5.1 13.2 0 25.9 2.9 37.6 8.3 8.5 4 9.1 15.9 0.9 20.6l-19 11c-10.2 5.9-23 5.9-33.3 0zM297 528.5l71.7 41.4c-4.3 14-6.7 28.8-6.7 44.1 0 70.5 49.2 130 115 145.8v75.6c0 12.2-13.2 19.9-23.8 13.8l-159.1-91.8c-9.4-5.4-15.2-15.5-15.2-26.4V539c0-9.3 10-15.1 18.1-10.5z m250 307v-75.6C612.8 744 662 684.5 662 614c0-14.3-2-28.1-5.8-41.3l67.6-39c9.5-5.5 21.3 1.4 21.3 12.3v184.1c0 11.5-6.1 22.1-16 27.8l-158.2 91.4c-10.7 6.1-23.9-1.6-23.9-13.8zM475.6 96.7h21.7v111.7c0 7.9 6.1 14.8 14 15.2 8.4 0.4 15.4-6.3 15.4-14.7V96.7h21.7c12.4 0 19.4-14.3 11.8-24.1l-36.4-46.8c-6-7.7-17.6-7.7-23.6 0l-36.4 46.8c-7.6 9.7-0.7 24.1 11.8 24.1zM188.8 599.3H76.7v-21.7c0-12.4-14.3-19.4-24.1-11.8L5.8 602.2c-7.7 6-7.7 17.6 0 23.6l46.8 36.4c9.8 7.6 24.1 0.6 24.1-11.8v-21.7h112.2c8.1 0 14.7-6.6 14.7-14.7-0.1-8.1-6.7-14.7-14.8-14.7zM1018.2 602.2l-46.8-36.4c-9.8-7.6-24.1-0.6-24.1 11.8v21.7H835.2c-8.1 0-14.7 6.6-14.7 14.7s6.6 14.7 14.7 14.7h112.2v21.7c0 12.4 14.3 19.4 24.1 11.8l46.8-36.4c7.6-6 7.6-17.6-0.1-23.6z" /></svg>