<?xml version="1.0" standalone="no"?><!DOCTYPE svg PUBLIC "-//W3C//DTD SVG 1.1//EN" "http://www.w3.org/Graphics/SVG/1.1/DTD/svg11.dtd"><svg class="icon" width="200px" height="200.00px" viewBox="0 0 1024 1024" version="1.1" xmlns="http://www.w3.org/2000/svg"><path fill="#333333" d="M1009.519292 810.023909V29.857129c0-16.520945-13.336184-29.857129-29.857129-29.857129H44.337837c-16.520945 0-29.857129 13.336184-29.857129 29.857129v780.067256c0 16.520945 13.336184 29.857129 29.857129 29.857129h301.059383c10.947614 0 19.904753 8.957139 19.904753 19.904753v74.742346c0 10.947614-8.957139 19.904753-19.904753 19.904753H204.571095c-16.520945 0-29.857129 13.336184-29.857129 29.857129v9.952376c0 16.520945 13.336184 29.857129 29.857129 29.857129h614.758286c16.520945 0 29.857129-13.336184 29.857129-29.857129v-9.952376c0-16.520945-13.336184-29.857129-29.857129-29.857129H678.60278c-10.947614 0-19.904753-8.957139-19.904753-19.904753v-74.742346c0-10.947614 8.957139-19.904753 19.904753-19.904753h301.059383c16.520945 0.099524 29.857129-13.336184 29.857129-29.757605zM114.004471 69.666634h795.991058c16.520945 0 29.857129 13.336184 29.857129 29.857129v640.733988c0 16.520945-13.336184 29.857129-29.857129 29.857129H114.004471c-16.520945 0-29.857129-13.336184-29.857129-29.857129V99.523763c0-16.520945 13.336184-29.857129 29.857129-29.857129z m455.122169 884.766255H454.87336c-10.947614 0-19.904753-8.957139-19.904753-19.904752v-74.742346c0-10.947614 8.957139-19.904753 19.904753-19.904753h114.153756c10.947614 0 19.904753 8.957139 19.904753 19.904753v74.742346c0.099524 10.947614-8.857615 19.904753-19.805229 19.904752z"  /><path fill="#333333" d="M247.664885 480.7993V365.152687v-0.398095c2.289047-19.904753-6.86714-28.762368-27.568083-26.373797h-3.881426c-1.990475 0-3.582855-1.59238-3.582856-3.582855V329.921275c0-1.990475 1.59238-3.582855 3.582856-3.582855H224.873943c7.961901-0.79619 16.819516-1.59238 26.373797-2.388571 23.288561-1.59238 40.2076-2.38857 50.657596-2.38857 41.700457 0 69.766158 7.165711 84.296627 21.596657 0.099524 0.099524 0.199048 0.199048 0.298572 0.398095 7.066187 8.758091 11.047138 17.814754 11.843327 27.269511v0.597142c-0.895714 19.108563-13.833803 31.150938-38.61522 35.928079v1.194285c31.250462 8.061425 47.671883 25.179512 49.463311 51.553309v0.696667c-4.179998 36.823792-30.752843 55.932355-79.619011 57.624259H213.826805c-1.990475 0-3.582855-1.59238-3.582855-3.582856V510.059287c0-2.089999 1.691904-3.682379 3.781903-3.582856 23.885703 0.597143 35.131888-7.862377 33.639032-25.378559v-0.298572z m42.198075-60.809019V476.121683c-1.59238 20.004276 7.66333 29.259986 27.667607 27.667607h0.199047c28.065701 0 42.496647-14.032851 43.392361-41.999029v-0.398095c-1.691904-29.658081-17.814754-44.885217-48.269025-45.681407-9.056662 0-15.724755 0.199048-19.705705 0.696666-1.890952 0.199048-3.284284 1.791428-3.284285 3.582856z m0-82.107105v62.102828c0 1.990475 1.59238 3.582855 3.582856 3.582856H313.947711c24.880941 0 37.719506-10.748566 38.61522-32.345223v-0.497619c-1.691904-23.985227-17.416659-36.326174-47.07474-37.122364-4.876664 0-9.056662 0.199048-12.539994 0.696667-1.691904 0.298571-3.085237 1.791428-3.085237 3.582855zM428.69861 334.79794V329.921275c0-1.990475 1.59238-3.582855 3.582856-3.582855h90.566624c1.990475 0 3.582855 1.59238 3.582856 3.582855v4.876665c0 1.990475-1.59238 3.582855-3.582856 3.582855h-1.194285c-16.91904 0-24.980465 7.66333-24.184274 22.890466V483.187871c-0.79619 16.12285 7.265235 23.786179 24.184274 22.890465h1.194285c1.990475 0 3.582855 1.59238 3.582856 3.582856v4.876664c0 1.990475-1.59238 3.582855-3.582856 3.582855h-90.566624c-1.990475 0-3.582855-1.59238-3.582856-3.582855v-4.876664c0-1.990475 1.59238-3.582855 3.582856-3.582856 15.32666 0.79619 22.890466-6.469045 22.890465-21.69618V361.370784c0.79619-15.32666-6.86714-22.890466-22.890465-22.890465-1.990475 0-3.582855-1.691904-3.582856-3.682379zM659.494217 516.22976l-63.098066-137.044222c-1.59238-3.383808-6.668092-2.488094-6.867139 1.293809l-6.269998 95.343765c0 0.199048 0 0.298571-0.099523 0.497619-4.478569 20.999514 2.786665 31.051414 21.596656 30.255224 2.089999-0.099524 3.781903 1.59238 3.781903 3.582855v4.578093c0 1.990475-1.59238 3.582855-3.582855 3.582856h-61.60521c-1.990475 0-3.582855-1.59238-3.582855-3.582856v-4.379045c0-2.089999 1.791428-3.781903 3.881427-3.582856 16.520945 1.194285 24.084751-9.753329 22.691418-32.842841v-0.398095l7.265234-111.86471v-0.298572c2.189523-14.132374-3.980951-21.69618-18.411896-22.691418-1.890952-0.099524-3.383808-1.691904-3.383808-3.582855v-4.976188c0-1.990475 1.59238-3.582855 3.582856-3.582856h59.216639c1.393333 0 2.687142 0.79619 3.284284 2.089999L674.024687 448.354553c1.293809 2.786665 5.274759 2.786665 6.568568-0.099523l53.742832-119.826611c0.597143-1.293809 1.890952-2.089999 3.284284-2.089999h60.410925c1.990475 0 3.582855 1.59238 3.582855 3.582855v4.677617c0 1.990475-1.691904 3.682379-3.682379 3.582855-17.118087-0.398095-23.189037 7.165711-18.212849 22.691419 0.099524 0.298571 0.199048 0.597143 0.199048 0.895713l7.165711 113.855186v0.696666c-2.886189 20.203324 4.777141 30.1557 22.989989 29.956653 1.990475 0 3.582855 1.59238 3.582855 3.582855v4.677617c0 1.990475-1.59238 3.582855-3.582855 3.582855h-89.372339c-1.990475 0-3.582855-1.59238-3.582856-3.582855v-4.876664c0-1.990475 1.59238-3.582855 3.582856-3.582856h1.492856c16.719992 2.289047 24.681893-4.478569 23.885703-20.601419 0-4.777141-0.398095-9.554281-1.194285-14.331422v-0.298571l-6.269997-94.94567c-0.298571-3.781903-5.374283-4.677617-6.966664-1.194285l-61.90378 141.22422c-0.597143 1.293809-1.890952 2.189523-3.284284 2.189522h-3.781903c-1.293809 0.199048-2.587618-0.597143-3.184761-1.890951z"  /></svg>