<?xml version="1.0" standalone="no"?><!DOCTYPE svg PUBLIC "-//W3C//DTD SVG 1.1//EN" "http://www.w3.org/Graphics/SVG/1.1/DTD/svg11.dtd"><svg class="icon" width="200px" height="200.00px" viewBox="0 0 1024 1024" version="1.1" xmlns="http://www.w3.org/2000/svg"><path fill="#333333" d="M621.1 688.4c55.7-12 48.1-78.5 46.4-93-2.7-22.4-29.1-61.6-64.9-58.5-43.2 3.9-51 63.9-51.6 68.8 0 0.2-0.1 0.4-0.1 0.7-5.9 30.2 14.8 94 70.2 82zM724.4 578.4c30.8 0 55.6-35.4 55.6-79.2 0-43.7-24.8-79.1-55.6-79.1-30.7 0-55.6 35.4-55.6 79.1 0 43.8 24.9 79.2 55.6 79.2zM856.8 583.6c41.1 5.3 67.5-38.5 72.8-71.8 5.4-33.2-21.1-71.8-50.2-78.4-29.1-6.7-65.5 40-68.9 70.5-4 37.2 5.3 74.4 46.3 79.7zM957.5 779s-63.6-49.2-100.7-102.3c-50.3-78.4-121.8-46.5-145.7-6.6-23.8 39.9-60.9 65.1-66.1 71.8-5.3 6.6-76.8 45.2-60.9 115.6 15.2 67.2 66.6 69 71.2 69.1h0.7c4.3 0.4 43.4 3.4 88.3-6.6 47.7-10.5 88.7 2.7 88.7 2.7s111.3 37.3 141.8-34.5c30.3-72-17.3-109.2-17.3-109.2z m-190.6 97.4c0.2 5.2-4 9.4-9.2 9.4h-62c-0.7 0-1.3-0.1-2-0.2-30.5-6.5-42.7-27.4-44.3-31-1.5-3.7-10.2-20.5-5.9-49.2l0.3-1.5c12.6-39.6 45.9-45.4 51.1-46 0.4-0.1 0.8-0.1 1.2-0.1h28.6c5.2 0 9.4-4.2 9.4-9.4v-28.5c0-5.2 4.3-9.4 9.5-9.4l14.1 0.2c5.1 0.1 9.2 4.2 9.2 9.4v156.3z m135.1-4.8c-0.2 7.5-6.3 13.7-14 13.7h-68.2c-0.8 0-1.6-0.1-2.4-0.3-29.3-8.1-32.6-31-32.6-31.1v-82.7c0-5.1 4.1-9.3 9.2-9.4l15.1-0.3c5.2-0.1 9.5 4.1 9.5 9.4v71.8c0 1.3 0.2 2.5 0.8 3.7 2.4 5.3 8.4 7.3 11 8 0.7 0.2 1.5 0.3 2.2 0.3h24c5.2 0 9.4-4.2 9.4-9.4v-73.9c0-5.2 4.2-9.4 9.4-9.4h17.2c5.2 0 9.4 4.2 9.4 9.4v100.2z"  /><path fill="#333333" d="M724.5 785.7H704c-1 0-2 0.1-2.9 0.5-13.1 4.6-19.4 14.9-20.9 19.4-1.6 4.7-5.3 16.6-2.1 27 5.6 21.1 22.7 24 26 24.4 0.3 0 0.6 0.1 1 0.1h19.4c5.2 0 9.4-4.2 9.4-9.4v-52.6c0-5.2-4.2-9.4-9.4-9.4zM1019.7 639.4c0-15.9-13.2-63.8-62.2-63.8s-55.7 45.2-55.7 77.2c0 30.5 2.6 73.1 63.5 71.7 61.1-1.4 54.4-69.1 54.4-85.1zM546.2 932.1H13.4c-7.5 0-11.9-8.3-7.8-14.5l186.2-279.3c5.5-8.3 14.9-13.3 24.9-13.3h112c6 0 11.6 3.5 14.1 9l9.4 19.9c4.9 10.4-2.7 22.3-14.1 22.3h-94c-10 0-19.3 5-24.9 13.3L101.3 866.4c-4.1 6.2 0.3 14.5 7.8 14.5h422c4 0 7.5 2.5 8.8 6.2 4 11.5 8.8 21.7 14.3 30.7 3.8 6.3-0.7 14.3-8 14.3z"  /><path fill="#333333" d="M608.1 717.4h-0.2c-16.1-1.4-43.2-8.4-59.6-24.5-0.6-0.6-1.4-0.8-2.2-0.7-43.1 7.9-84.9-3.2-97.6-35.3-29.5-74.4-130.2-139.1-178-194.1-47.7-55-53.3-131.4-26.5-195.9 68.6-164.9 187.5-120.2 249-60.1 61.5 60 104.9-41.1 237.8-6.6 115.1 30 50.2 130 7.9 167.9-3.5 3.1-2 8.9 2.6 9.9 10.2 2.3 19.8 6.8 28.5 12.9 0.9 0.7 2.1 0.8 3.2 0.2 42.3-22.7 149-195.7-8-234.5-157.1-38.8-196.2 66.4-267.6-5.6C425.9 79.2 296 36.6 210.1 240.1c-33.6 79.6-46.3 174.9 8.9 241.1 55 66.1 178 139.6 211.1 229.8 16.9 46.1 86.2 55.5 149.7 32.8l1-0.7s30.5-16.9 27.3-25.7z"  /><path fill="#333333" d="M516.4 593.1c5.5-42.7 30.4-93.8 83.1-98.6h0.1c2.5-0.2 4.4-2.2 4.5-4.7 0.8-31 5.9-61.4 25.2-84.2 51.3-60.6 159.8-122.5 90.5-158.7-42.7-22.3-129.9 7.8-140.5 47.1-10.5 39.2-24 113.8-65.1 139-41 25.2-71.8 73.2-50.3 115.5 8 15.9 23.4 34.2 41.3 49.2 4 3.4 10.2 1.1 11.1-4v-0.1c0-0.2 0.1-0.3 0.1-0.5zM484.8 310.6c-69.1-20.6-25-81-131.6-82.4-52.3-0.7-83.4 82.7-57.9 129.1 25.6 46.5 74.8 66.4 127.5 66.7 52.6 0.2 131-92.9 62-113.4z"  /></svg>