<?xml version="1.0" standalone="no"?><!DOCTYPE svg PUBLIC "-//W3C//DTD SVG 1.1//EN" "http://www.w3.org/Graphics/SVG/1.1/DTD/svg11.dtd"><svg class="icon" width="200px" height="200.00px" viewBox="0 0 1024 1024" version="1.1" xmlns="http://www.w3.org/2000/svg"><path fill="#333333" d="M617.2 790.3c53.7-11.6 46.4-75.7 44.7-89.6-2.6-21.6-28-59.4-62.6-56.4-41.6 3.8-49.2 61.6-49.7 66.3 0 0.2-0.1 0.4-0.1 0.7-5.7 29.1 14.3 90.5 67.7 79zM674.1 901.8c-1.5 4.5-5.1 16-2 26 5.4 20.3 21.9 23.1 25.1 23.5 0.3 0 0.6 0.1 1 0.1h18.7c5 0 9.1-4 9.1-9.1v-50.7c0-5-4-9.1-9.1-9.1h-19.8c-1 0-1.9 0.1-2.8 0.5-12.6 4.5-18.7 14.5-20.2 18.8zM716.7 682.8c29.7 0 53.6-34.1 53.6-76.3 0-42.1-23.9-76.2-53.6-76.2-29.6 0-53.6 34.1-53.6 76.2 0.1 42.2 24.1 76.3 53.6 76.3zM844.4 687.8c39.6 5.1 65.1-37.1 70.2-69.2 5.2-32-20.3-69.2-48.4-75.6-28-6.5-63.1 38.6-66.4 68-3.9 35.9 5 71.7 44.6 76.8z"  /><path fill="#333333" d="M941.4 876.2s-61.3-47.4-97.1-98.6c-48.5-75.6-117.4-44.8-140.4-6.4-22.9 38.5-58.7 62.7-63.7 69.2-5.1 6.4-74 43.6-58.7 111.4 14.7 64.8 64.2 66.5 68.6 66.6h0.7c4.1 0.4 41.8 3.3 85.1-6.4 46-10.1 85.5 2.6 85.5 2.6s107.3 36 136.7-33.3c29.2-69.3-16.7-105.1-16.7-105.1zM757.7 970c0.2 5-3.9 9.1-8.9 9.1H689c-0.7 0-1.3-0.1-1.9-0.2-29.4-6.3-41.2-26.4-42.7-29.9-1.4-3.6-9.8-19.8-5.7-47.4 0.1-0.5 0.2-1 0.3-1.4 12.1-38.2 44.2-43.8 49.3-44.3 0.4-0.1 0.8-0.1 1.2-0.1H717c5 0 9.1-4 9.1-9.1v-27.5c0-5 4.1-9.1 9.2-9.1l13.6 0.2c4.9 0.1 8.9 4 8.9 9.1V970z m130.2-4.6c-0.2 7.2-6.1 13.2-13.5 13.2h-65.7c-0.8 0-1.5-0.1-2.3-0.3-28.2-7.8-31.4-29.9-31.4-30v-79.7c0-4.9 4-9 8.9-9.1l14.6-0.3c5-0.1 9.2 4 9.2 9.1v69.2c0 1.3 0.2 2.4 0.8 3.6 2.3 5.1 8.1 7 10.6 7.7 0.7 0.2 1.4 0.3 2.1 0.3h23.1c5 0 9.1-4 9.1-9.1v-71.2c0-5 4-9.1 9.1-9.1h16.6c5 0 9.1 4 9.1 9.1v96.6zM1001.4 741.6c0-15.3-12.7-61.5-60-61.5-47.2 0-53.7 43.6-53.7 74.4 0 29.4 2.5 70.5 61.2 69.1 58.9-1.3 52.5-66.6 52.5-82zM545 1023.7H31.5c-7.2 0-11.5-8-7.5-14l179.5-269.2c5.3-8 14.4-12.8 24-12.8h108c5.8 0 11.2 3.4 13.6 8.7l9.1 19.2c4.7 10-2.6 21.5-13.6 21.5H254c-9.6 0-18.6 4.8-24 12.8L116.2 960.4c-4 6 0.3 14 7.5 14h406.7c3.9 0 7.2 2.4 8.5 6 3.9 11.1 8.5 20.9 13.8 29.6 3.7 6-0.7 13.7-7.7 13.7zM716.7 418.1H471.9v244.8c0 18.6-15.1 33.7-33.7 33.7s-33.7-15.1-33.7-33.7V366.4c0-8.7 7-15.7 15.7-15.7h296.5c18.6 0 33.7 15.1 33.7 33.7s-15.1 33.7-33.7 33.7z"  /><path fill="#333333" d="M638.5 584.7c-13.2 13.2-34.5 13.2-47.7 0L414.3 408.2l47.7-47.7L638.5 537c13.2 13.2 13.2 34.5 0 47.7z"  /><path fill="#333333" d="M381.5 346h-294c-18.6 0-33.7-15.1-33.7-33.7s15.1-33.7 33.7-33.7h244.8V33.8C332.3 15.1 347.4 0 366 0s33.7 15.1 33.7 33.7v294c0.1 10.1-8.1 18.3-18.2 18.3z"  /><path fill="#333333" d="M389.9 288.4l-47.7 47.7L105 98.9c-9.4-9.4-6.3-27.7 6.9-40.8 13.2-13.2 31.5-16.3 40.8-6.9l237.2 237.2z"  /></svg>