<?xml version="1.0" standalone="no"?><!DOCTYPE svg PUBLIC "-//W3C//DTD SVG 1.1//EN" "http://www.w3.org/Graphics/SVG/1.1/DTD/svg11.dtd"><svg class="icon" width="200px" height="200.00px" viewBox="0 0 1024 1024" version="1.1" xmlns="http://www.w3.org/2000/svg"><path fill="#333333" d="M915.6 0H108.4C48.6 0 0 48.6 0 108.4v825.2c0 50 40.5 90.4 90.4 90.4h843.1c50 0 90.4-40.5 90.4-90.4V108.4C1024 48.6 975.4 0 915.6 0zM954 933.6c0 11.3-9.2 20.4-20.4 20.4H90.4c-11.3 0-20.4-9.2-20.4-20.4V407.4c0-21.2 17.2-38.4 38.4-38.4h807.1c21.2 0 38.4 17.2 38.4 38.4v526.2z m-884-673V108.4C70 87.2 87.2 70 108.4 70h807.1c21.2 0 38.4 17.2 38.4 38.4v152.1c0 21.2-17.2 38.4-38.4 38.4H108.4C87.2 299 70 281.8 70 260.6z"  /><path fill="#333333" d="M421.6 532.7h390.8c19.3 0 35-15.7 35-35s-15.7-35-35-35H421.6c-19.3 0-35 15.7-35 35 0 19.4 15.7 35 35 35zM421.6 696.5h390.8c19.3 0 35-15.7 35-35s-15.7-35-35-35H421.6c-19.3 0-35 15.7-35 35s15.7 35 35 35zM421.6 860.3h390.8c19.3 0 35-15.7 35-35s-15.7-35-35-35H421.6c-19.3 0-35 15.7-35 35s15.7 35 35 35zM221.9 532.7h20.8c19.3 0 35-15.7 35-35s-15.7-35-35-35h-20.8c-19.3 0-35 15.7-35 35 0 19.4 15.7 35 35 35zM221.9 696.5h20.8c19.3 0 35-15.7 35-35s-15.7-35-35-35h-20.8c-19.3 0-35 15.7-35 35s15.7 35 35 35zM221.9 860.3h20.8c19.3 0 35-15.7 35-35s-15.7-35-35-35h-20.8c-19.3 0-35 15.7-35 35s15.7 35 35 35z"  /></svg>