<?xml version="1.0" standalone="no"?><!DOCTYPE svg PUBLIC "-//W3C//DTD SVG 1.1//EN" "http://www.w3.org/Graphics/SVG/1.1/DTD/svg11.dtd"><svg class="icon" width="200px" height="200.00px" viewBox="0 0 1024 1024" version="1.1" xmlns="http://www.w3.org/2000/svg"><path fill="#333333" d="M265.5 530H192c-9.9 0-17.9-8-17.9-17.9v-73.5c0-9.9 8-17.9 17.9-17.9h73.5c9.9 0 17.9 8 17.9 17.9v73.5c-0.1 9.8-8.1 17.9-17.9 17.9zM452.7 530h-73.5c-9.9 0-17.9-8-17.9-17.9v-73.5c0-9.9 8-17.9 17.9-17.9h73.5c9.9 0 17.9 8 17.9 17.9v73.5c0 9.8-8 17.9-17.9 17.9zM639.9 530h-73.5c-9.9 0-17.9-8-17.9-17.9v-73.5c0-9.9 8-17.9 17.9-17.9h73.5c9.9 0 17.9 8 17.9 17.9v73.5c0 9.8-8 17.9-17.9 17.9zM827.2 530h-73.5c-9.9 0-17.9-8-17.9-17.9v-73.5c0-9.9 8-17.9 17.9-17.9h73.5c9.9 0 17.9 8 17.9 17.9v73.5c0 9.8-8 17.9-17.9 17.9z"  /><path fill="#333333" d="M265.5 714.9H192c-9.9 0-17.9-8-17.9-17.9v-73.5c0-9.9 8-17.9 17.9-17.9h73.5c9.9 0 17.9 8 17.9 17.9V697c-0.1 9.9-8.1 17.9-17.9 17.9zM452.7 714.9h-73.5c-9.9 0-17.9-8-17.9-17.9v-73.5c0-9.9 8-17.9 17.9-17.9h73.5c9.9 0 17.9 8 17.9 17.9V697c0 9.9-8 17.9-17.9 17.9zM639.9 714.9h-73.5c-9.9 0-17.9-8-17.9-17.9v-73.5c0-9.9 8-17.9 17.9-17.9h73.5c9.9 0 17.9 8 17.9 17.9V697c0 9.9-8 17.9-17.9 17.9zM827.2 714.9h-73.5c-9.9 0-17.9-8-17.9-17.9v-73.5c0-9.9 8-17.9 17.9-17.9h73.5c9.9 0 17.9 8 17.9 17.9V697c0 9.9-8 17.9-17.9 17.9z"  /><path fill="#333333" d="M265.5 888.2H192c-9.9 0-17.9-8-17.9-17.9v-73.5c0-9.9 8-17.9 17.9-17.9h73.5c9.9 0 17.9 8 17.9 17.9v73.5c-0.1 9.9-8.1 17.9-17.9 17.9zM452.7 888.2h-73.5c-9.9 0-17.9-8-17.9-17.9v-73.5c0-9.9 8-17.9 17.9-17.9h73.5c9.9 0 17.9 8 17.9 17.9v73.5c0 9.9-8 17.9-17.9 17.9zM639.9 888.2h-73.5c-9.9 0-17.9-8-17.9-17.9v-73.5c0-9.9 8-17.9 17.9-17.9h73.5c9.9 0 17.9 8 17.9 17.9v73.5c0 9.9-8 17.9-17.9 17.9zM827.2 888.2h-73.5c-9.9 0-17.9-8-17.9-17.9v-73.5c0-9.9 8-17.9 17.9-17.9h73.5c9.9 0 17.9 8 17.9 17.9v73.5c0 9.9-8 17.9-17.9 17.9z"  /><path fill="#333333" d="M970.3 154.3h-115c-21.7 0-39.3 17.6-39.3 39.3v6c0 51.9-42.1 94-94 94h-16c-51.9 0-94-42.1-94-94v-6c0-21.7-17.6-39.3-39.3-39.3H451.3c-21.7 0-39.3 17.6-39.3 39.3v6c0 51.9-42.1 94-94 94h-16c-51.9 0-94-42.1-94-94v-6c0-21.7-17.6-39.3-39.3-39.3h-115C24.1 154.3 0 174.8 0 199.9v778.5c0 25.2 24.1 45.6 53.7 45.6h916.6c29.7 0 53.7-20.5 53.7-45.6V199.9c0-25.1-24.1-45.6-53.7-45.6zM954 921.4c0 23.9-22.8 43.1-50.8 43.1H120.8c-28 0-50.8-19.4-50.8-43.1V391.7c0-23.9 22.8-43.1 50.8-43.1h782.4c28.1 0 50.8 19.4 50.8 43.1v529.7z"  /><path fill="#333333" d="M318 243.7h-16c-35.2 0-64-28.8-64-64V64c0-35.2 28.8-64 64-64h16c35.2 0 64 28.8 64 64v115.6c0 35.3-28.8 64.1-64 64.1zM722 243.7h-16c-35.2 0-64-28.8-64-64V64c0-35.2 28.8-64 64-64h16c35.2 0 64 28.8 64 64v115.6c0 35.3-28.8 64.1-64 64.1z"  /></svg>