<?xml version="1.0" standalone="no"?><!DOCTYPE svg PUBLIC "-//W3C//DTD SVG 1.1//EN" "http://www.w3.org/Graphics/SVG/1.1/DTD/svg11.dtd"><svg class="icon" width="200px" height="200.00px" viewBox="0 0 1024 1024" version="1.1" xmlns="http://www.w3.org/2000/svg"><path fill="#333333" d="M818.222621 411.891051c0-16.535409-14.045136-29.883268-31.277821-29.883269H233.407057c-17.332296 0-31.277821 13.34786-31.277821 29.883269s14.045136 29.883268 31.277821 29.883268H786.9448c17.232685 0 31.277821-13.34786 31.277821-29.883268zM627.965812 603.343191c0-16.535409-9.662257-29.883268-21.615564-29.883269H223.7448c-11.953307 0-21.615564 13.34786-21.615564 29.883269s9.662257 29.883268 21.615564 29.883268h382.605448c11.953307 0 21.615564-13.34786 21.615564-29.883268zM216.074761 764.912062c-7.76965 0-13.945525 13.34786-13.945525 29.883269s6.275486 29.883268 13.945525 29.883268h247.333852c7.76965 0 13.945525-13.34786 13.945526-29.883268s-6.275486-29.883268-13.945526-29.883269H216.074761zM804.277096 190.555642H556.843633c-7.76965 0-13.945525 13.34786-13.945526 29.883269s6.275486 29.883268 13.945526 29.883268h247.333852c7.76965 0 13.945525-13.34786 13.945525-29.883268 0.099611-16.535409-6.175875-29.883268-13.845914-29.883269zM1011.268535 969.014786l-83.971984-83.971984c20.221012-28.687938 31.875486-63.651362 31.477043-101.403891-0.996109-93.733852-77.198444-170.135409-170.932296-171.430351-97.419455-1.294942-177.00856 78.194553-175.713619 175.713619 1.294942 93.733852 77.696498 169.936187 171.430351 170.932296 37.752529 0.398444 72.715953-11.355642 101.403891-31.477043l83.971984 83.971984c11.654475 11.654475 30.580545 11.654475 42.23502 0 11.754086-11.754086 11.754086-30.680156 0.09961-42.33463z m-225.817898-70.026459c-62.555642 0-113.55642-50.901167-113.556421-113.55642s50.901167-113.55642 113.556421-113.556421 113.55642 50.901167 113.55642 113.556421-50.901167 113.55642-113.55642 113.55642z"  /><path fill="#333333" d="M618.403166 954.272374H135.589158V342.661479c0-21.914397 17.730739-39.545525 39.545525-39.545526h149.217121c21.914397 0 39.545525-17.730739 39.545525-39.545525V109.273152c0-21.914397 17.730739-39.545525 39.545526-39.545526h481.021011v467.175098c0 19.224903 13.248249 34.863813 29.484825 34.863813s29.484825-15.638911 29.484825-34.863813V34.863813c0-19.224903-13.248249-34.863813-29.484825-34.863813h-670.381323c-10.459144 0-20.619455 4.183658-27.990661 11.554864l-127.501946 127.501945c-7.470817 7.470817-11.554864 17.531518-11.554864 27.990662V989.136187c0 19.224903 13.248249 34.863813 29.484825 34.863813h512.298833c16.236576 0 29.484825-15.638911 29.484825-34.863813s-13.148638-34.863813-29.385214-34.863813z"  /></svg>