<?xml version="1.0" standalone="no"?><!DOCTYPE svg PUBLIC "-//W3C//DTD SVG 1.1//EN" "http://www.w3.org/Graphics/SVG/1.1/DTD/svg11.dtd"><svg class="icon" width="200px" height="200.00px" viewBox="0 0 1024 1024" version="1.1" xmlns="http://www.w3.org/2000/svg"><path fill="#333333" d="M981.4 938.7H271.1c-89.7 0-164.5-63.5-181.9-148h660.1c31.8 0 57.6-25.8 57.6-57.6s-25.8-57.6-57.6-57.6H85.4V527.1h823.9c31.8 0 57.6-25.8 57.6-57.6s-25.8-57.6-57.6-57.6H85.4V263.5h543.9c31.8 0 57.6-25.8 57.6-57.6s-25.8-57.6-57.6-57.6H85.4V42.7C85.4 19.1 66.3 0 42.7 0 19 0 0 19.1 0 42.7v795.6C0 940.9 83 1024 185.7 1024h795.6c23.6 0 42.7-19.1 42.8-42.6 0-23.6-19.1-42.7-42.7-42.7z"  /></svg>