<?xml version="1.0" standalone="no"?><!DOCTYPE svg PUBLIC "-//W3C//DTD SVG 1.1//EN" "http://www.w3.org/Graphics/SVG/1.1/DTD/svg11.dtd"><svg class="icon" width="200px" height="200.00px" viewBox="0 0 1024 1024" version="1.1" xmlns="http://www.w3.org/2000/svg"><path fill="#333333" d="M29.938602 452.072897h215.557938c16.566027 0 29.938602 13.372576 29.938603 29.938603V994.061398c0 16.566027-13.372576 29.938602-29.938603 29.938602H29.938602c-16.566027 0-29.938602-13.372576-29.938602-29.938602V482.0115c0-16.566027 13.372576-29.938602 29.938602-29.938603zM394.191599 320.343046h233.5211c16.566027 0 29.938602 13.372576 29.938602 29.938603V994.061398c0 16.566027-13.372576 29.938602-29.938602 29.938602H394.191599c-16.566027 0-29.938602-13.372576-29.938602-29.938602V350.281649c0-16.566027 13.372576-29.938602 29.938602-29.938603zM779.401618 0h212.564077c16.566027 0 29.938602 13.372576 29.938603 29.938602V994.061398c0 16.566027-13.372576 29.938602-29.938603 29.938602H779.401618c-16.566027 0-29.938602-13.372576-29.938603-29.938602V29.938602c0-16.566027 13.372576-29.938602 29.938603-29.938602z" /></svg>