<?xml version="1.0" standalone="no"?><!DOCTYPE svg PUBLIC "-//W3C//DTD SVG 1.1//EN" "http://www.w3.org/Graphics/SVG/1.1/DTD/svg11.dtd"><svg class="icon" width="200px" height="200.00px" viewBox="0 0 1024 1024" version="1.1" xmlns="http://www.w3.org/2000/svg"><path fill="#333333" d="M244.2 220H29.8C13.3 220 0 236.2 0 256.3v731.4c0 20.1 13.3 36.3 29.8 36.3h214.4c16.5 0 29.8-16.2 29.8-36.3V256.3c0-20.1-13.3-36.3-29.8-36.3z m-44.4 724.1c0 9.2-6.1 16.6-13.7 16.6H87.9c-7.6 0-13.7-7.4-13.7-16.6V659.8c0-9.2 6.1-16.6 13.7-16.6h98.3c7.6 0 13.7 7.4 13.7 16.6v284.3zM619.2 143H404.8c-16.5 0-29.8 16.2-29.8 36.3v808.4c0 20.1 13.3 36.3 29.8 36.3h214.4c16.5 0 29.8-16.2 29.8-36.3V179.3c0-20.1-13.3-36.3-29.8-36.3z m-44.4 796.5c0 11.7-6.1 21.2-13.7 21.2h-98.3c-7.6 0-13.7-9.5-13.7-21.2V576.9c0-11.7 6.1-21.2 13.7-21.2h98.3c7.6 0 13.7 9.5 13.7 21.2v362.6zM994.2 10H779.8C763.3 10 750 26.2 750 46.3v941.4c0 20.1 13.3 36.3 29.8 36.3h214.4c16.5 0 29.8-16.2 29.8-36.3V46.3c0-20.1-13.3-36.3-29.8-36.3z m-44.4 922.8c0 15.5-6.1 28-13.7 28h-98.3c-7.6 0-13.7-12.5-13.7-28V454.7c0-15.5 6.1-28 13.7-28h98.3c7.6 0 13.7 12.5 13.7 28v478.1z" /></svg>