<?xml version="1.0" standalone="no"?><!DOCTYPE svg PUBLIC "-//W3C//DTD SVG 1.1//EN" "http://www.w3.org/Graphics/SVG/1.1/DTD/svg11.dtd"><svg class="icon" width="200px" height="200.00px" viewBox="0 0 1024 1024" version="1.1" xmlns="http://www.w3.org/2000/svg"><path fill="#333333" d="M671 269.9L346.4 29.7C318.7 9.3 279.5 16.3 260.6 45L22.2 408.2C7.7 430.2 0 456.1 0 482.5v470.8c0 29.1 23.6 52.7 52.7 52.7h918.6c29.1 0 52.7-23.6 52.7-52.7V191c0-31.3-33.3-51.4-61-36.8L734.7 274.7c-20.4 10.8-45.2 8.9-63.7-4.8zM278.5 145.4c18.9-28.8 58.1-35.8 85.8-15.3l295.4 218.5 5.1 3.7c18.5 13.7 43.3 15.6 63.7 4.8l5.6-2.9 159-83.9c27.7-14.6 61 5.5 61 36.8v182.5c0 18.4-10.4 35.3-26.9 43.5l-199.9 99.3c-22.8 11.3-49.7 10.5-71.7-2.3L358.7 458.3c-33.9-19.6-77.1-10.2-99.8 21.7L100.2 703.6C90.8 716.8 70 710.2 70 694V503.5c0-26.4 7.7-52.3 22.2-74.4l186.3-283.7zM70 880.5V868c0-0.6 0.2-1.2 0.5-1.6l208.6-293.8c22.7-31.9 65.9-41.3 99.8-21.7l274 158.7c22 12.7 49 13.6 71.7 2.3l159.2-79.1c32.3-16 70.1 7.4 70.1 43.5v207.2c0 29.1-23.6 52.7-52.7 52.7H125.5c-30.6-0.2-55.5-25-55.5-55.7z" /></svg>