<?xml version="1.0" standalone="no"?><!DOCTYPE svg PUBLIC "-//W3C//DTD SVG 1.1//EN" "http://www.w3.org/Graphics/SVG/1.1/DTD/svg11.dtd"><svg class="icon" width="200px" height="200.00px" viewBox="0 0 1024 1024" version="1.1" xmlns="http://www.w3.org/2000/svg"><path fill="#333333" d="M512 65c60.4 0 118.9 11.8 174 35.1 53.2 22.5 101 54.7 142.1 95.8 41.1 41.1 73.3 88.9 95.8 142.1 23.3 55.1 35.1 113.6 35.1 174 0 60.4-11.8 118.9-35.1 174-22.5 53.2-54.7 101-95.8 142.1-41.1 41.1-88.9 73.3-142.1 95.8-55.1 23.3-113.6 35.1-174 35.1-60.4 0-118.9-11.8-174-35.1-53.2-22.5-101-54.7-142.1-95.8s-73.3-88.9-95.8-142.1C76.8 630.9 65 572.4 65 512c0-60.4 11.8-118.9 35.1-174 22.5-53.2 54.7-101 95.8-142.1 41.1-41.1 88.9-73.3 142.1-95.8C393.1 76.8 451.6 65 512 65m0-65C229.2 0 0 229.2 0 512s229.2 512 512 512 512-229.2 512-512S794.8 0 512 0z"  /><path fill="#333333" d="M512 93.9c-13.3 0-24 10.7-24 24v58c0 13.3 10.7 24 24 24s24-10.7 24-24v-58c0-13.3-10.7-24-24-24zM231.9 210c-6.1 0-12.3 2.3-17 7-9.4 9.4-9.4 24.6 0 33.9l41 41c4.7 4.7 10.8 7 17 7s12.3-2.3 17-7c9.4-9.4 9.4-24.6 0-33.9l-41-41c-4.7-4.7-10.8-7-17-7zM174 490.1h-58c-13.3 0-24 10.7-24 24s10.7 24 24 24h58c13.3 0 24-10.7 24-24s-10.7-24-24-24zM273.1 729.1c-6.1 0-12.3 2.3-17 7l-41 41c-9.4 9.4-9.4 24.6 0 33.9 4.7 4.7 10.8 7 17 7 6.1 0 12.3-2.3 17-7l41-41c9.4-9.4 9.4-24.6 0-33.9-4.7-4.6-10.9-7-17-7zM527.9 788.1h-31.5c-8.9 0-16.1 7.2-16.1 16.1V878c0 8.9 7.2 16.1 16.1 16.1h31.5c8.9 0 16.1-7.2 16.1-16.1v-73.8c0-8.9-7.2-16.1-16.1-16.1zM627.9 788.1h-31.5c-8.9 0-16.1 7.2-16.1 16.1V878c0 8.9 7.2 16.1 16.1 16.1h31.5c8.9 0 16.1-7.2 16.1-16.1v-73.8c0-8.9-7.2-16.1-16.1-16.1zM427.9 788.1h-31.5c-8.9 0-16.1 7.2-16.1 16.1V878c0 8.9 7.2 16.1 16.1 16.1h31.5c8.9 0 16.1-7.2 16.1-16.1v-73.8c0-8.9-7.2-16.1-16.1-16.1zM751.2 729c-6.1 0-12.3 2.3-17 7-9.4 9.4-9.4 24.6 0 33.9l41 41c4.7 4.7 10.8 7 17 7 6.1 0 12.3-2.3 17-7 9.4-9.4 9.4-24.6 0-33.9l-41-41c-4.7-4.7-10.8-7-17-7zM908.2 489.9h-58c-13.3 0-24 10.7-24 24s10.7 24 24 24h58c13.3 0 24-10.7 24-24s-10.8-24-24-24zM792.1 209.8c-6.1 0-12.3 2.3-17 7l-41 41c-9.4 9.4-9.4 24.6 0 33.9 4.7 4.7 10.8 7 17 7 6.1 0 12.3-2.3 17-7l41-41c9.4-9.4 9.4-24.6 0-33.9-4.7-4.6-10.9-7-17-7zM497.8 286.6l-30.1 219.6C464 533.1 484.9 557 512 557c27.1 0 48-23.9 44.3-50.8l-30.1-219.6c-2.2-16.6-26.2-16.6-28.4 0z"  /></svg>