<?xml version="1.0" standalone="no"?><!DOCTYPE svg PUBLIC "-//W3C//DTD SVG 1.1//EN" "http://www.w3.org/Graphics/SVG/1.1/DTD/svg11.dtd"><svg class="icon" width="200px" height="200.00px" viewBox="0 0 1024 1024" version="1.1" xmlns="http://www.w3.org/2000/svg"><path fill="#333333" d="M0 244.2V29.8C0 13.3 14.4 0 32.2 0h551.5C601.6 0 616 13.3 616 29.8v214.4c0 16.5-14.4 29.8-32.2 29.8H32.2C14.4 274 0 260.7 0 244.2zM716 244.2V29.8C716 13.3 723.2 0 732.1 0h275.8c8.9 0 16.1 13.3 16.1 29.8v214.4c0 16.5-7.2 29.8-16.1 29.8H732.1c-8.9 0-16.1-13.3-16.1-29.8zM0 619.2V404.8C0 388.3 14.4 375 32.2 375h551.5c17.8 0 32.2 13.3 32.2 29.8v214.4c0 16.5-14.4 29.8-32.2 29.8H32.2C14.4 649 0 635.7 0 619.2zM716 619.2V404.8c0-16.5 7.2-29.8 16.1-29.8h275.8c8.9 0 16.1 13.3 16.1 29.8v214.4c0 16.5-7.2 29.8-16.1 29.8H732.1c-8.9 0-16.1-13.3-16.1-29.8z"  /><path fill="#333333" d="M0 994.2V779.8C0 763.3 14.4 750 32.2 750h551.5c17.8 0 32.2 13.3 32.2 29.8v214.4c0 16.5-14.4 29.8-32.2 29.8H32.2C14.4 1024 0 1010.7 0 994.2zM716 994.2V779.8c0-16.5 7.2-29.8 16.1-29.8h275.8c8.9 0 16.1 13.3 16.1 29.8v214.4c0 16.5-7.2 29.8-16.1 29.8H732.1c-8.9 0-16.1-13.3-16.1-29.8z"  /></svg>