<?xml version="1.0" standalone="no"?><!DOCTYPE svg PUBLIC "-//W3C//DTD SVG 1.1//EN" "http://www.w3.org/Graphics/SVG/1.1/DTD/svg11.dtd"><svg class="icon" width="200px" height="200.00px" viewBox="0 0 1024 1024" version="1.1" xmlns="http://www.w3.org/2000/svg"><path fill="#333333" d="M750 244.2V29.8C750 13.3 763.3 0 779.8 0h214.4c16.5 0 29.8 13.3 29.8 29.8v214.4c0 16.5-13.3 29.8-29.8 29.8H779.8c-16.5 0-29.8-13.3-29.8-29.8zM375 244.2V29.8C375 13.3 388.3 0 404.8 0h214.4C635.7 0 649 13.3 649 29.8v214.4c0 16.5-13.3 29.8-29.8 29.8H404.8c-16.5 0-29.8-13.3-29.8-29.8zM0 244.2V29.8C0 13.3 13.3 0 29.8 0h214.4C260.7 0 274 13.3 274 29.8v214.4c0 16.5-13.3 29.8-29.8 29.8H29.8C13.3 274 0 260.7 0 244.2z"  /><path fill="#333333" d="M750 619.2V404.8c0-16.5 13.3-29.8 29.8-29.8h214.4c16.5 0 29.8 13.3 29.8 29.8v214.4c0 16.5-13.3 29.8-29.8 29.8H779.8c-16.5 0-29.8-13.3-29.8-29.8zM375 619.2V404.8c0-16.5 13.3-29.8 29.8-29.8h214.4c16.5 0 29.8 13.3 29.8 29.8v214.4c0 16.5-13.3 29.8-29.8 29.8H404.8c-16.5 0-29.8-13.3-29.8-29.8zM0 619.2V404.8C0 388.3 13.3 375 29.8 375h214.4c16.5 0 29.8 13.3 29.8 29.8v214.4c0 16.5-13.3 29.8-29.8 29.8H29.8C13.3 649 0 635.7 0 619.2z"  /><path fill="#333333" d="M750 994.2V779.8c0-16.5 13.3-29.8 29.8-29.8h214.4c16.5 0 29.8 13.3 29.8 29.8v214.4c0 16.5-13.3 29.8-29.8 29.8H779.8c-16.5 0-29.8-13.3-29.8-29.8zM375 994.2V779.8c0-16.5 13.3-29.8 29.8-29.8h214.4c16.5 0 29.8 13.3 29.8 29.8v214.4c0 16.5-13.3 29.8-29.8 29.8H404.8c-16.5 0-29.8-13.3-29.8-29.8zM0 994.2V779.8C0 763.3 13.3 750 29.8 750h214.4c16.5 0 29.8 13.3 29.8 29.8v214.4c0 16.5-13.3 29.8-29.8 29.8H29.8C13.3 1024 0 1010.7 0 994.2z"  /></svg>