<?xml version="1.0" standalone="no"?><!DOCTYPE svg PUBLIC "-//W3C//DTD SVG 1.1//EN" "http://www.w3.org/Graphics/SVG/1.1/DTD/svg11.dtd"><svg class="icon" width="200px" height="200.00px" viewBox="0 0 1024 1024" version="1.1" xmlns="http://www.w3.org/2000/svg"><path fill="#333333" d="M0 244.2V29.8C0 13.3 16.2 0 36.3 0h620.4C676.8 0 693 13.3 693 29.8v214.4c0 16.5-16.2 29.8-36.3 29.8H36.3C16.2 274 0 260.7 0 244.2zM0 619.2V404.8C0 388.3 16.2 375 36.3 375h620.4c20.1 0 36.3 13.3 36.3 29.8v214.4c0 16.5-16.2 29.8-36.3 29.8H36.3C16.2 649 0 635.7 0 619.2zM0 994.2V779.8C0 763.3 16.2 750 36.3 750h620.4c20.1 0 36.3 13.3 36.3 29.8v214.4c0 16.5-16.2 29.8-36.3 29.8H36.3C16.2 1024 0 1010.7 0 994.2z"  /><path fill="#333333" d="M793 244.2V29.8C793 13.3 804.2 0 818.1 0h180.8c13.9 0 25.1 13.3 25.1 29.8v214.4c0 16.5-11.2 29.8-25.1 29.8H818.1c-13.9 0-25.1-13.3-25.1-29.8zM793 619.2V404.8c0-16.5 11.2-29.8 25.1-29.8h180.8c13.9 0 25.1 13.3 25.1 29.8v214.4c0 16.5-11.2 29.8-25.1 29.8H818.1c-13.9 0-25.1-13.3-25.1-29.8zM793 994.2V779.8c0-16.5 11.2-29.8 25.1-29.8h180.8c13.9 0 25.1 13.3 25.1 29.8v214.4c0 16.5-11.2 29.8-25.1 29.8H818.1c-13.9 0-25.1-13.3-25.1-29.8z"  /></svg>