<?xml version="1.0" standalone="no"?><!DOCTYPE svg PUBLIC "-//W3C//DTD SVG 1.1//EN" "http://www.w3.org/Graphics/SVG/1.1/DTD/svg11.dtd"><svg class="icon" width="200px" height="200.00px" viewBox="0 0 1024 1024" version="1.1" xmlns="http://www.w3.org/2000/svg"><path fill="#333333" d="M0 244.2V29.8C0 13.3 23.9 0 53.6 0h916.8c29.7 0 53.6 13.3 53.6 29.8v214.4c0 16.5-23.9 29.8-53.6 29.8H53.6C23.9 274 0 260.7 0 244.2zM0 619.2V404.8C0 388.3 23.9 375 53.6 375h916.8c29.7 0 53.6 13.3 53.6 29.8v214.4c0 16.5-23.9 29.8-53.6 29.8H53.6C23.9 649 0 635.7 0 619.2zM0 994.2V779.8C0 763.3 23.9 750 53.6 750h916.8c29.7 0 53.6 13.3 53.6 29.8v214.4c0 16.5-23.9 29.8-53.6 29.8H53.6C23.9 1024 0 1010.7 0 994.2z" /></svg>