<?xml version="1.0" standalone="no"?><!DOCTYPE svg PUBLIC "-//W3C//DTD SVG 1.1//EN" "http://www.w3.org/Graphics/SVG/1.1/DTD/svg11.dtd"><svg class="icon" width="200px" height="200.00px" viewBox="0 0 1024 1024" version="1.1" xmlns="http://www.w3.org/2000/svg"><path fill="#333333" d="M1024 779.8v214.4c0 16.5-10.8 29.8-24.2 29.8H586.2c-13.4 0-24.2-13.3-24.2-29.8V779.8c0-16.5 10.8-29.8 24.2-29.8h413.6c13.4 0 24.2 13.3 24.2 29.8zM1024 404.8v214.4c0 16.5-10.8 29.8-24.2 29.8H586.2c-13.4 0-24.2-13.3-24.2-29.8V404.8c0-16.5 10.8-29.8 24.2-29.8h413.6c13.4 0 24.2 13.3 24.2 29.8zM1024 29.8v214.4c0 16.5-10.8 29.8-24.2 29.8H586.2c-13.4 0-24.2-13.3-24.2-29.8V29.8C562 13.3 572.8 0 586.2 0h413.6c13.4 0 24.2 13.3 24.2 29.8z"  /><path fill="#333333" d="M462 779.8v214.4c0 16.5-10.8 29.8-24.2 29.8H24.2C10.8 1024 0 1010.7 0 994.2V779.8C0 763.3 10.8 750 24.2 750h413.6c13.4 0 24.2 13.3 24.2 29.8zM462 404.8v214.4c0 16.5-10.8 29.8-24.2 29.8H24.2C10.8 649 0 635.7 0 619.2V404.8C0 388.3 10.8 375 24.2 375h413.6c13.4 0 24.2 13.3 24.2 29.8zM462 29.8v214.4c0 16.5-10.8 29.8-24.2 29.8H24.2C10.8 274 0 260.7 0 244.2V29.8C0 13.3 10.8 0 24.2 0h413.6C451.2 0 462 13.3 462 29.8z"  /></svg>