<?xml version="1.0" standalone="no"?><!DOCTYPE svg PUBLIC "-//W3C//DTD SVG 1.1//EN" "http://www.w3.org/Graphics/SVG/1.1/DTD/svg11.dtd"><svg class="icon" width="200px" height="200.00px" viewBox="0 0 1024 1024" version="1.1" xmlns="http://www.w3.org/2000/svg"><path fill="#333333" d="M384 0H78C34.9 0 0 34.9 0 78v306c0 43.1 34.9 78 78 78h306c43.1 0 78-34.9 78-78V78c0-43.1-34.9-78-78-78z m18 384c0 9.9-8.1 18-18 18H78c-9.9 0-18-8.1-18-18V78c0-9.9 8.1-18 18-18h306c9.9 0 18 8.1 18 18v306zM384 562H78c-43.1 0-78 34.9-78 78v306c0 43.1 34.9 78 78 78h306c43.1 0 78-34.9 78-78V640c0-43.1-34.9-78-78-78z m18 384c0 9.9-8.1 18-18 18H78c-9.9 0-18-8.1-18-18V640c0-9.9 8.1-18 18-18h306c9.9 0 18 8.1 18 18v306zM981.1 0H604.9C581.2 0 562 19.2 562 42.9s19.2 42.9 42.9 42.9H981c23.7 0 42.9-19.2 42.9-42.9 0.1-23.7-19.1-42.9-42.8-42.9zM981.1 188.1H604.9c-23.7 0-42.9 19.2-42.9 42.9s19.2 42.9 42.9 42.9H981c23.7 0 42.9-19.2 42.9-42.9 0.1-23.7-19.1-42.9-42.8-42.9zM981.1 376.1H604.9c-23.7 0-42.9 19.2-42.9 42.9s19.2 42.9 42.9 42.9H981c23.7 0 42.9-19.2 42.9-42.9 0.1-23.7-19.1-42.9-42.8-42.9zM946 562H640c-43.1 0-78 34.9-78 78v306c0 43.1 34.9 78 78 78h306c43.1 0 78-34.9 78-78V640c0-43.1-34.9-78-78-78z m18 384c0 9.9-8.1 18-18 18H640c-9.9 0-18-8.1-18-18V640c0-9.9 8.1-18 18-18h306c9.9 0 18 8.1 18 18v306z" /></svg>