<?xml version="1.0" standalone="no"?><!DOCTYPE svg PUBLIC "-//W3C//DTD SVG 1.1//EN" "http://www.w3.org/Graphics/SVG/1.1/DTD/svg11.dtd"><svg class="icon" width="200px" height="200.00px" viewBox="0 0 1024 1024" version="1.1" xmlns="http://www.w3.org/2000/svg"><path fill="#333333" d="M901 171.1V145c0-12.1-9.8-21.9-21.9-21.9H853c-12.1 0-21.9 9.8-21.9 21.9v26.1c0 12.1 9.8 21.9 21.9 21.9h26.1c12.1 0 21.9-9.8 21.9-21.9zM901 879.1V853c0-12.1-9.8-21.9-21.9-21.9H853c-12.1 0-21.9 9.8-21.9 21.9v26.1c0 12.1 9.8 21.9 21.9 21.9h26.1c12.1 0 21.9-9.8 21.9-21.9zM123 596.9V623c0 12.1 9.8 21.9 21.9 21.9H221c12.1 0 21.9-9.8 21.9-21.9v-26.1c0-12.1-9.8-21.9-21.9-21.9h-76.1c-12.1 0-21.9 9.8-21.9 21.9zM123 144.9V171c0 12.1 9.8 21.9 21.9 21.9H221c12.1 0 21.9-9.8 21.9-21.9v-26.1c0-12.1-9.8-21.9-21.9-21.9h-76.1c-12.1 0-21.9 9.8-21.9 21.9z"  /><path fill="#333333" d="M964 0H21.9C9.8 0 0 9.8 0 21.9v980.2c0 12.1 9.8 21.9 21.9 21.9h980.2c12.1 0 21.9-9.8 21.9-21.9V21.9c0-12.1-9.8-21.9-21.9-21.9H964zM81.9 60H686c12.1 0 21.9 9.8 21.9 21.9V234c0 12.1-9.8 21.9-21.9 21.9H81.9c-12.1 0-21.9-9.8-21.9-21.9V81.9C60 69.8 69.8 60 81.9 60z m139.2 841H145c-12.1 0-21.9-9.8-21.9-21.9V853c0-12.1 9.8-21.9 21.9-21.9h76.1c12.1 0 21.9 9.8 21.9 21.9v26.1c0 12.1-9.8 21.9-21.9 21.9zM243 400.9V427c0 12.1-9.8 21.9-21.9 21.9H145c-12.1 0-21.9-9.8-21.9-21.9v-26.1c0-12.1 9.8-21.9 21.9-21.9h76.1c12.1 0 21.9 9.8 21.9 21.9zM81.9 512H686c12.1 0 21.9 9.8 21.9 21.9V686c0 12.1-9.8 21.9-21.9 21.9H81.9c-12.1 0-21.9-9.8-21.9-21.9V533.9c0-12.1 9.8-21.9 21.9-21.9z m860.2 452H789.9c-12.1 0-21.9-9.8-21.9-21.9V789.9c0-12.1 9.8-21.9 21.9-21.9H942c12.1 0 21.9 9.8 21.9 21.9V942c0.1 12.2-9.7 22-21.8 22z m0-256H789.9c-12.1 0-21.9-9.8-21.9-21.9V337.9c0-12.1 9.8-21.9 21.9-21.9H942c12.1 0 21.9 9.8 21.9 21.9V686c0.1 12.2-9.7 22-21.8 22z m0-452H789.9c-12.1 0-21.9-9.8-21.9-21.9V81.9c0-12.1 9.8-21.9 21.9-21.9H942c12.1 0 21.9 9.8 21.9 21.9V234c0.1 12.2-9.7 22-21.8 22z"  /></svg>