<?xml version="1.0" standalone="no"?><!DOCTYPE svg PUBLIC "-//W3C//DTD SVG 1.1//EN" "http://www.w3.org/Graphics/SVG/1.1/DTD/svg11.dtd"><svg class="icon" width="200px" height="200.00px" viewBox="0 0 1024 1024" version="1.1" xmlns="http://www.w3.org/2000/svg"><path fill="#333333" d="M949.1 437.1h-58.4c-10-50.9-30-98.1-57.9-139.7L874.1 256c29.3-29.3 29.3-76.8 0-106-29.3-29.3-76.8-29.3-106 0l-41.3 41.3c-41.6-27.9-88.8-47.9-139.7-57.9V75c0-41.4-33.6-75-75-75s-75 33.6-75 75v58.4c-50.9 10-98.1 30-139.7 57.9L256.1 149.9c-29.3-29.3-76.8-29.3-106 0-29.3 29.3-29.3 76.8 0 106l41.3 41.3a382.33 382.33 0 0 0-57.9 139.7H75c-41.4 0-75 33.6-75 75s33.6 75 75 75h58.5c10 50.8 30 98.1 57.9 139.7L150 768c-29.3 29.3-29.3 76.8 0 106 29.3 29.3 76.8 29.3 106 0l41.4-41.4c41.5 27.9 88.8 47.9 139.7 57.9V949c0 41.4 33.6 75 75 75s75-33.6 75-75v-58.4c50.9-10 98.1-30 139.7-57.9L768.1 874c29.3 29.3 76.8 29.3 106 0 29.3-29.3 29.3-76.8 0-106l-41.3-41.3c27.9-41.6 47.9-88.8 57.9-139.7H949.1c41.4 0 75-33.6 75-75s-33.6-74.9-75-74.9zM778 512c0 71-27.7 137.8-77.9 188-50.2 50.2-117 77.9-188 77.9S374.3 750.2 324.1 700c-50.2-50.2-77.9-117-77.9-188s27.7-137.8 77.9-188c50.2-50.2 117-77.9 188-77.9s137.8 27.7 188 77.9c50.2 50.2 77.9 117 77.9 188z" /></svg>