<?xml version="1.0" standalone="no"?><!DOCTYPE svg PUBLIC "-//W3C//DTD SVG 1.1//EN" "http://www.w3.org/Graphics/SVG/1.1/DTD/svg11.dtd"><svg class="icon" width="200px" height="200.00px" viewBox="0 0 1024 1024" version="1.1" xmlns="http://www.w3.org/2000/svg"><path fill="#333333" d="M990.6 40H595.4C577 40 562 55 562 73.4v13.1c0 18.5 15 33.4 33.4 33.4h395.1c18.5 0 33.4-15 33.4-33.4V73.4C1024 55 1009 40 990.6 40zM990.6 191H595.4c-18.5 0-33.4 15-33.4 33.4v13.1c0 18.5 15 33.4 33.4 33.4h395.1c18.5 0 33.4-15 33.4-33.4v-13.1c0.1-18.4-14.9-33.4-33.3-33.4zM990.6 342H595.4c-18.5 0-33.4 15-33.4 33.4v13.1c0 18.5 15 33.4 33.4 33.4h395.1c18.5 0 33.4-15 33.4-33.4v-13.1c0.1-18.4-14.9-33.4-33.3-33.4zM990.6 602H595.4c-18.5 0-33.4 15-33.4 33.4v13.1c0 18.5 15 33.4 33.4 33.4h395.1c18.5 0 33.4-15 33.4-33.4v-13.1c0.1-18.4-14.9-33.4-33.3-33.4zM990.6 753H595.4c-18.5 0-33.4 15-33.4 33.4v13.1c0 18.5 15 33.4 33.4 33.4h395.1c18.5 0 33.4-15 33.4-33.4v-13.1c0.1-18.4-14.9-33.4-33.3-33.4zM990.6 904H595.4c-18.5 0-33.4 15-33.4 33.4v13.1c0 18.5 15 33.4 33.4 33.4h395.1c18.5 0 33.4-15 33.4-33.4v-13.1c0.1-18.4-14.9-33.4-33.3-33.4zM384 562H78c-43.1 0-78 34.9-78 78v300.7c0 46 37.3 83.3 83.3 83.3H384c43.1 0 78-34.9 78-78V640c0-43.1-34.9-78-78-78z m-3 379.3H81c-4.3 0-6.8-4.8-4.4-8.3 20.4-29.3 46.8-52.7 77.2-67.6 5.9-2.9 7.4-10.5 3.1-15.4-18.8-21.7-30.4-51.8-30.4-84.9 0-66.5 46.7-120.4 104.4-120.4 41.2 0 76.7 27.5 93.7 67.5 1 2.4 2 4.8 2.9 7.4 0.1 0.2 0.1 0.2 0.1 0.3 0.9 2.5 1.7 5 2.4 7.6 0.1 0.1 0.1 0.3 0.1 0.4 0.4 1.2 0.7 2.3 1 3.5 0.1 0.1 0.1 0.3 0.1 0.4l0.9 3.9 0.1 0.1c0.3 1.3 0.5 2.4 0.8 3.7 0.1 0.3 0.1 0.5 0.2 0.8 0.3 1.3 0.5 2.5 0.7 3.8l0.6 3.9c0.1 0.3 0.1 0.6 0.1 0.9 0.2 1 0.3 2.1 0.4 3.1 0.1 0.3 0.1 0.5 0.1 0.8l0.3 3.9c0 0.3 0.1 0.5 0.1 0.8 0.1 1 0.1 2.1 0.2 3.1 0.1 0.4 0.1 0.7 0.1 1.1 0.1 1.3 0.1 2.6 0.1 3.9 0 1-0.1 2.1-0.1 3.2-0.1 0.4-0.1 0.7-0.1 1-0.1 0.8-0.1 1.5-0.1 2.3 0 0.4-0.1 0.7-0.1 1.1-0.1 0.8-0.1 1.6-0.2 2.4 0 0.3-0.1 0.5-0.1 0.8-0.1 1-0.2 2-0.3 3.1-0.1 0.3-0.1 0.6-0.1 0.9-0.1 0.7-0.2 1.5-0.3 2.2-0.1 0.4-0.1 0.8-0.2 1.2l-0.3 2.1c-0.1 0.4-0.1 0.7-0.2 1.1-0.2 1-0.4 2-0.5 3-0.1 0.3-0.1 0.5-0.2 0.8-0.1 0.8-0.3 1.5-0.4 2.2l-0.3 1.2c-0.2 0.6-0.3 1.2-0.4 1.8-0.1 0.4-0.2 0.9-0.3 1.3-0.2 0.7-0.3 1.2-0.5 1.9-0.1 0.5-0.3 1-0.4 1.4-0.2 0.8-0.5 1.6-0.7 2.4-0.2 0.5-0.3 1-0.4 1.4-0.2 0.5-0.3 1-0.5 1.5s-0.3 1-0.5 1.5-0.3 0.9-0.5 1.4c-0.2 0.5-0.4 1-0.5 1.5-0.2 0.5-0.3 0.9-0.5 1.4-0.3 0.9-0.7 1.8-1 2.7-0.1 0.4-0.3 0.8-0.4 1.1-0.2 0.5-0.5 1.1-0.7 1.6-0.1 0.4-0.3 0.7-0.4 1-0.3 0.6-0.5 1.1-0.7 1.7-0.1 0.3-0.2 0.5-0.3 0.7-0.6 1.3-1.1 2.5-1.7 3.7-0.1 0.1-0.2 0.3-0.2 0.4-0.3 0.7-0.6 1.2-0.9 1.8-0.1 0.3-0.3 0.5-0.4 0.7l-0.9 1.8c-0.1 0.2-0.2 0.4-0.3 0.5-1.1 1.9-2.2 3.9-3.3 5.8-0.1 0.1-0.2 0.3-0.3 0.4-0.4 0.7-0.7 1.2-1.1 1.8-0.1 0.1-0.2 0.3-0.3 0.4-2.9 4.5-6.2 8.8-9.6 12.8-4.2 4.9-2.7 12.4 3 15.3 0.8 0.4 1.7 0.8 2.5 1.3 2.8 1.5 5.7 3 8.5 4.6 0.1 0.1 0.2 0.1 0.2 0.1 0.9 0.5 1.7 1 2.5 1.5 0.2 0.1 0.4 0.3 0.6 0.4l2.4 1.5c0.2 0.1 0.4 0.3 0.6 0.4l2.4 1.5c0.1 0 0.1 0.1 0.2 0.1 2.7 1.7 5.4 3.6 8 5.5 0 0.1 0.1 0.1 0.1 0.1 0.8 0.5 1.6 1.1 2.3 1.7 0.2 0.1 0.4 0.3 0.5 0.4 0.8 0.6 1.5 1.1 2.2 1.7 0.2 0.1 0.4 0.3 0.6 0.4 0.8 0.6 1.5 1.2 2.2 1.8 0.1 0.1 0.2 0.1 0.3 0.2 3.3 2.6 6.5 5.4 9.6 8.3 0.2 0.1 0.3 0.3 0.5 0.4 0.7 0.7 1.4 1.3 2 1.9l0.5 0.5c0.7 0.6 1.4 1.3 2 2 0.1 0.1 0.2 0.3 0.3 0.4 3 3 6 6 8.8 9.2l0.5 0.5c0.7 0.7 1.3 1.4 1.9 2.1 0.2 0.2 0.4 0.5 0.5 0.6 0.6 0.7 1.2 1.5 1.8 2.2 0.1 0.2 0.3 0.3 0.4 0.5 2.7 3.2 5.4 6.6 8 10 0.2 0.2 0.3 0.4 0.4 0.5 0.6 0.8 1.1 1.5 1.7 2.3 0.2 0.2 0.4 0.4 0.5 0.7 0.6 0.8 1.1 1.5 1.6 2.3 0.2 0.3 0.3 0.5 0.4 0.6 2.6 2.5 0.1 7.2-4.2 7.2zM384 0H78C34.9 0 0 34.9 0 78v300.7c0 46 37.3 83.3 83.3 83.3H384c43.1 0 78-34.9 78-78V78c0-43.1-34.9-78-78-78z m-3 379.3H81c-4.3 0-6.8-4.8-4.4-8.3 20.4-29.3 46.8-52.7 77.2-67.6 5.9-2.9 7.4-10.5 3.1-15.4-18.8-21.7-30.4-51.8-30.4-84.9 0-66.5 46.7-120.4 104.4-120.4 41.2 0 76.7 27.5 93.7 67.5 1 2.4 2 4.8 2.9 7.4 0.1 0.2 0.1 0.2 0.1 0.3 0.9 2.5 1.7 5 2.4 7.6 0.1 0.1 0.1 0.3 0.1 0.4 0.4 1.2 0.7 2.3 1 3.5 0.1 0.1 0.1 0.3 0.1 0.4l0.9 3.9 0.1 0.1c0.3 1.3 0.5 2.4 0.8 3.7 0.1 0.3 0.1 0.5 0.2 0.8 0.3 1.3 0.5 2.5 0.7 3.8l0.6 3.9c0.1 0.3 0.1 0.6 0.1 0.9 0.2 1 0.3 2.1 0.4 3.1 0.1 0.3 0.1 0.5 0.1 0.8l0.3 3.9c0 0.3 0.1 0.5 0.1 0.8 0.1 1 0.1 2.1 0.2 3.1 0.1 0.4 0.1 0.7 0.1 1.1 0.1 1.3 0.1 2.6 0.1 3.9 0 1-0.1 2.1-0.1 3.2-0.1 0.4-0.1 0.7-0.1 1-0.1 0.8-0.1 1.5-0.1 2.3 0 0.4-0.1 0.7-0.1 1.1-0.1 0.8-0.1 1.6-0.2 2.4 0 0.3-0.1 0.5-0.1 0.8-0.1 1-0.2 2-0.3 3.1-0.1 0.3-0.1 0.6-0.1 0.9-0.1 0.7-0.2 1.5-0.3 2.2-0.1 0.4-0.1 0.8-0.2 1.2l-0.3 2.1c-0.1 0.4-0.1 0.7-0.2 1.1-0.2 1-0.4 2-0.5 3-0.1 0.3-0.1 0.5-0.2 0.8-0.1 0.8-0.3 1.5-0.4 2.2l-0.3 1.2c-0.2 0.6-0.3 1.2-0.4 1.8-0.1 0.4-0.2 0.9-0.3 1.3-0.2 0.7-0.3 1.2-0.5 1.9-0.1 0.5-0.3 1-0.4 1.4-0.2 0.8-0.5 1.6-0.7 2.4-0.2 0.5-0.3 1-0.4 1.4-0.2 0.5-0.3 1-0.5 1.5s-0.3 1-0.5 1.5-0.3 0.9-0.5 1.4c-0.2 0.5-0.4 1-0.5 1.5-0.2 0.5-0.3 0.9-0.5 1.4-0.3 0.9-0.7 1.8-1 2.7-0.1 0.4-0.3 0.8-0.4 1.1-0.2 0.5-0.5 1.1-0.7 1.6-0.1 0.4-0.3 0.7-0.4 1-0.3 0.6-0.5 1.1-0.7 1.7-0.1 0.3-0.2 0.5-0.3 0.7-0.6 1.3-1.1 2.5-1.7 3.7-0.1 0.1-0.2 0.3-0.2 0.4-0.3 0.7-0.6 1.2-0.9 1.8-0.1 0.3-0.3 0.5-0.4 0.7l-0.9 1.8c-0.1 0.2-0.2 0.4-0.3 0.5-1.1 1.9-2.2 3.9-3.3 5.8-0.1 0.1-0.2 0.3-0.3 0.4-0.4 0.7-0.7 1.2-1.1 1.8-0.1 0.1-0.2 0.3-0.3 0.4-2.9 4.5-6.2 8.8-9.6 12.8-4.2 4.9-2.7 12.4 3 15.3 0.8 0.4 1.7 0.8 2.5 1.3 2.8 1.5 5.7 3 8.5 4.6 0.1 0.1 0.2 0.1 0.2 0.1 0.9 0.5 1.7 1 2.5 1.5 0.2 0.1 0.4 0.3 0.6 0.4l2.4 1.5c0.2 0.1 0.4 0.3 0.6 0.4l2.4 1.5c0.1 0 0.1 0.1 0.2 0.1 2.7 1.7 5.4 3.6 8 5.5 0 0.1 0.1 0.1 0.1 0.1 0.8 0.5 1.6 1.1 2.3 1.7 0.2 0.1 0.4 0.3 0.5 0.4 0.8 0.6 1.5 1.1 2.2 1.7 0.2 0.1 0.4 0.3 0.6 0.4 0.8 0.6 1.5 1.2 2.2 1.8 0.1 0.1 0.2 0.1 0.3 0.2 3.3 2.6 6.5 5.4 9.6 8.3 0.2 0.1 0.3 0.3 0.5 0.4 0.7 0.7 1.4 1.3 2 1.9l0.5 0.5c0.7 0.6 1.4 1.3 2 2 0.1 0.1 0.2 0.3 0.3 0.4 3 3 6 6 8.8 9.2l0.5 0.5c0.7 0.7 1.3 1.4 1.9 2.1 0.2 0.2 0.4 0.5 0.5 0.6 0.6 0.7 1.2 1.5 1.8 2.2 0.1 0.2 0.3 0.3 0.4 0.5 2.7 3.2 5.4 6.6 8 10 0.2 0.2 0.3 0.4 0.4 0.5 0.6 0.8 1.1 1.5 1.7 2.3 0.2 0.2 0.4 0.4 0.5 0.7 0.6 0.8 1.1 1.5 1.6 2.3 0.2 0.3 0.3 0.5 0.4 0.6 2.6 2.5 0.1 7.2-4.2 7.2z" /></svg>