<?xml version="1.0" standalone="no"?><!DOCTYPE svg PUBLIC "-//W3C//DTD SVG 1.1//EN" "http://www.w3.org/Graphics/SVG/1.1/DTD/svg11.dtd"><svg class="icon" width="200px" height="200.00px" viewBox="0 0 1024 1024" version="1.1" xmlns="http://www.w3.org/2000/svg"><path fill="#333333" d="M538.9 842.8c-3.2-3.3-7.3-5-11.5-5-6.3 0-12.6 3.8-15 10.5l-55.2 154.5c-3.9 10.8 4.5 21.2 14.9 21.2 2 0 4.1-0.4 6.2-1.2l145-60.1c10.3-4.3 13.1-17.5 5.4-25.6l-89.8-94.3zM995 562.1L899.4 462c-8.3-8.7-22.2-8.7-30.4-0.1l-93.2 97c-17.2 17.9-47.5 5.7-47.5-19.1V215.9c0-15.2-12.3-27.6-27.6-27.6H566.3c-15.2 0-27.6 12.3-27.6 27.6V642c0 15.2 12.3 27.6 27.6 27.6h38.4c24.3 0 36.7 29.2 19.9 46.7l-65.1 67.8c-7.8 8.2-7.8 21-0.1 29.2l95.4 100.2c8.3 8.7 22.2 8.7 30.4 0.1l309.6-322.2c7.9-8.2 7.9-21 0.2-29.3zM621.5 243.5h24.1c15.2 0 27.6 12.3 27.6 27.6v315.8c0 15.2-12.3 27.6-27.6 27.6h-24.1c-15.2 0-27.6-12.3-27.6-27.6V271.1c0-15.3 12.3-27.6 27.6-27.6zM185.3 331H50.8c-15.2 0-27.6 12.3-27.6 27.6V642c0 15.2 12.3 27.6 27.6 27.6h134.4c15.2 0 27.6-12.3 27.6-27.6V358.5c0.1-15.2-12.3-27.5-27.5-27.5z m-55.2 283.4H106c-15.2 0-27.6-12.3-27.6-27.6V413.7c0-15.2 12.3-27.6 27.6-27.6h24.1c15.2 0 27.6 12.3 27.6 27.6v173.2c0 15.2-12.3 27.5-27.6 27.5zM477 739H50.8c-15.2 0-27.6 12.3-27.6 27.6 0 15.2 12.3 27.6 27.6 27.6H477c15.2 0 27.6-12.3 27.6-27.6-0.1-15.3-12.4-27.6-27.6-27.6zM443 0H308.6C293.3 0 281 12.3 281 27.6V642c0 15.2 12.3 27.6 27.6 27.6H443c15.2 0 27.6-12.3 27.6-27.6V27.6C470.6 12.3 458.2 0 443 0z m-55.2 614.4h-24.1c-15.2 0-27.6-12.3-27.6-27.6V82.7c0-15.2 12.3-27.6 27.6-27.6h24.1c15.2 0 27.6 12.3 27.6 27.6v504.1c0 15.3-12.3 27.6-27.6 27.6z"  /></svg>