<?xml version="1.0" standalone="no"?><!DOCTYPE svg PUBLIC "-//W3C//DTD SVG 1.1//EN" "http://www.w3.org/Graphics/SVG/1.1/DTD/svg11.dtd"><svg class="icon" width="200px" height="200.00px" viewBox="0 0 1024 1024" version="1.1" xmlns="http://www.w3.org/2000/svg"><path fill="#333333" d="M996.9 215H27.1C11.8 217.5 0 230.8 0 246.9v530.9c0 15 10.3 27.6 24.1 31.2h975.7c13.9-3.6 24.1-16.2 24.1-31.2V246.9c0.1-16-11.6-29.4-27-31.9z m-59.3 476.4c0 17.8-14.5 32.4-32.4 32.4h-37.5c-0.8-0.1-1.6-0.1-2.4-0.1H118.8c-17.8 0-32.4-14.5-32.4-32.4v-358c0-17.8 14.5-32.4 32.4-32.4h786.4c17.9 0 32.4 14.5 32.4 32.4v358.1z"  /><path fill="#333333" d="M217.1 345.6l-21-0.1c-17.9 0-32.4 14.6-32.4 32.4V646c0 17.9 14.5 32.4 32.4 32.4h18.5c17.9-0.1 32.4-14.7 32.4-32.5v-268c0-17-13.2-31-29.9-32.3z"  /></svg>