<?xml version="1.0" standalone="no"?><!DOCTYPE svg PUBLIC "-//W3C//DTD SVG 1.1//EN" "http://www.w3.org/Graphics/SVG/1.1/DTD/svg11.dtd"><svg class="icon" width="200px" height="200.00px" viewBox="0 0 1024 1024" version="1.1" xmlns="http://www.w3.org/2000/svg"><path d="M881.2 301.1c0-5.7-2.2-11-6.2-15L846.9 258c-8.3-8.3-21.8-8.3-30.1 0l-44.6 44.6c-4 4-6.2 9.4-6.2 15v425.1c0 13.2 10.8 24 24 24h67.2c13.2 0 24-10.8 24-24V301.1zM702.3 423.9c0-19-22.9-28.4-36.4-15l-72.6 72.6c-4 4-6.2 9.4-6.2 15v246.3c0 13.2 10.8 24 24 24h67.2c13.2 0 24-10.8 24-24V423.9zM523.4 433.6c0-5.7-2.2-11-6.2-15l-72.7-72.7c-8.3-8.3-21.8-8.3-30.1 0-4 4-6.2 9.4-6.2 15v381.9c0 13.2 10.8 24 24 24h67.2c13.2 0 24-10.8 24-24V433.6zM344.5 467.1c0-19-22.9-28.4-36.4-15l-72.6 72.6c-4 4-6.2 9.4-6.2 15v202.9c0 13.2 10.8 24 24 24h67.2c13.2 0 24-10.8 24-24V467.1z" fill="#070102" /><path d="M787.1 33.1c-3.5-3.5-9.1-3.3-12.5 0.1l-0.1 0.1-176 176c-8.3 8.3-21.8 8.3-30.1 0l-127-127.1c-8.3-8.3-21.8-8.3-30.1 0L235.5 257.9c-4 4-6.2 9.4-6.2 15v17.9c0 19 22.9 28.4 36.4 15l145.6-145.6c8.3-8.3 21.8-8.3 30.1 0l103.2 103.2 24 24c8.3 8.3 21.8 8.3 30.1 0l24-24 191-191 0.1-0.1c3.5-3.5 3.6-9 0.1-12.5l-26.8-26.7z"  /><path d="M981.3 1024H185.7C83.1 1024 0 940.9 0 838.3V42.7C0 19.1 19.1 0 42.7 0s42.7 19.1 42.7 42.7V753c0 102.6 83.1 185.7 185.7 185.7h710.3c23.6 0 42.7 19.1 42.7 42.7-0.1 23.5-19.2 42.6-42.8 42.6z"  /></svg>