<?xml version="1.0" standalone="no"?><!DOCTYPE svg PUBLIC "-//W3C//DTD SVG 1.1//EN" "http://www.w3.org/Graphics/SVG/1.1/DTD/svg11.dtd"><svg class="icon" width="200px" height="200.00px" viewBox="0 0 1024 1024" version="1.1" xmlns="http://www.w3.org/2000/svg"><path fill="#333333" d="M986.9 328.3c-20.5 0-37.1-16.6-37.1-37.1V111.3c0-20.5-16.6-37.1-37.1-37.1H732.8c-20.5 0-37.1-16.6-37.1-37.1S712.3 0 732.8 0h254.1c20.5 0 37.1 16.6 37.1 37.1v254.1c0 20.5-16.6 37.1-37.1 37.1zM37.1 328.3C16.6 328.3 0 311.7 0 291.2V37.1C0 16.6 16.6 0 37.1 0h254.1c20.5 0 37.1 16.6 37.1 37.1s-16.6 37.1-37.1 37.1H111.3c-20.5 0-37.1 16.6-37.1 37.1v179.9c0 20.5-16.6 37.1-37.1 37.1zM986.9 1024H732.8c-20.5 0-37.1-16.6-37.1-37.1s16.6-37.1 37.1-37.1h179.9c20.5 0 37.1-16.6 37.1-37.1V732.8c0-20.5 16.6-37.1 37.1-37.1s37.1 16.6 37.1 37.1v254.1c0 20.5-16.6 37.1-37.1 37.1zM291.2 1024H37.1C16.6 1024 0 1007.4 0 986.9V732.8c0-20.5 16.6-37.1 37.1-37.1s37.1 16.6 37.1 37.1v179.9c0 20.5 16.6 37.1 37.1 37.1h179.9c20.5 0 37.1 16.6 37.1 37.1s-16.6 37.1-37.1 37.1z"  /><path fill="#333333" d="M506.7 651.8c-5.1-5.6-8.1-17.2-12.1-38C473.5 501.3 457 414.3 442.7 340c-0.8-4-4.7-6.7-8.7-6l-17 3.1c-2.2 0.4-4.1 1.7-5.2 3.7L258 610.5c-25.8 45.6-32.8 46.5-62.5 50.2-3.3 0.4-5.9 2.9-6.5 6.1l-2.5 14.4c-0.8 4.6 2.7 8.8 7.4 8.8h118.7c3.6 0 6.8-2.6 7.4-6.2l2.5-14.4c0.7-4.2-2.2-8.2-6.5-8.7-10.5-1.3-30-3.7-32.4-8.3-1.5-2.8 1.1-10.7 7.7-23.4 6.4-12.4 12.9-24.3 19.8-37 3.4-6.2 6.8-12.6 10.4-19.2 1.3-2.4 3.8-4 6.6-4h89.2c3.7 0 6.8 2.6 7.4 6.3 2.2 13.1 4.5 25.1 6.6 35.9 2.1 11.2 4 20.9 5.3 29.6v0.3c1.3 6.6 1.2 10.3-0.1 12.1-3.1 4.2-17 6.4-28.8 7.8-3.3 0.4-5.9 2.9-6.5 6.1l-2.5 14.4c-0.8 4.6 2.7 8.8 7.4 8.8H533c3.6 0 6.8-2.6 7.4-6.2l2.5-14.4c0.8-4.3-2.2-8.3-6.5-8.8-16.7-1.9-24.9-3.7-29.7-8.9z m-98.1-119.1H356c-5.7 0-9.3-6.1-6.6-11.1 13.4-24.2 27.3-49.4 39.7-72 3.4-6.2 12.7-4.7 14 2.3L416 524c0.8 4.5-2.7 8.7-7.4 8.7zM685 347.4l-2.5 14.4c-0.8 4.3 2.3 8.3 6.6 8.8 17.2 1.9 28.8 3.5 32 7.8 3.2 4.3 2 15.8-1.3 34.3l-36 203.9c-3.5 20.1-6.2 30.5-11.9 35.5-5.6 4.9-15.9 6.5-36.6 8.7-3.3 0.4-6 2.9-6.6 6.2l-2.5 14.4c-0.8 4.6 2.7 8.8 7.4 8.8h137.7c3.6 0 6.8-2.6 7.4-6.2l2.5-14.4c0.8-4.3-2.3-8.3-6.6-8.8-18.2-2-29.5-3.5-32.6-7.7-3.1-4.2-1.9-15.6 1.3-33.8l36-203.9c3.6-20.3 6.3-30.9 12-35.9 5.6-4.9 16.1-6.5 37.1-8.8 3.3-0.4 6-2.9 6.6-6.2l2.5-14.4c0.8-4.6-2.7-8.8-7.4-8.8H692.4c-3.7-0.1-6.8 2.5-7.4 6.1z"  /></svg>