<?xml version="1.0" standalone="no"?><!DOCTYPE svg PUBLIC "-//W3C//DTD SVG 1.1//EN" "http://www.w3.org/Graphics/SVG/1.1/DTD/svg11.dtd"><svg class="icon" width="200px" height="200.00px" viewBox="0 0 1024 1024" version="1.1" xmlns="http://www.w3.org/2000/svg"><path fill="#333333" d="M792.5726 577.94356c-17.498291 0-31.696905 14.198613-31.696904 31.696905V928.909286c0 17.498291-14.198613 31.696905-31.696905 31.696905H117.838492c-17.498291 0-31.696905-14.198613-31.696904-31.696905V249.475637h167.283663c7.499268 0 13.598672-6.099404 13.598672-13.598672V63.293819h462.254858c17.498291 0 31.696905 14.198613 31.696905 31.696905v92.990918c0 17.498291 14.198613 31.696905 31.696905 31.696905s31.696905-14.198613 31.696904-31.696905V31.696905c0-17.498291-14.198613-31.696905-31.696904-31.696905H228.127722c-8.59916 0-16.79836 3.499658-22.697784 9.599063L31.7469 188.481594c-5.699443 5.899424-8.899131 13.798652-8.899131 22.097842v781.723659c0 17.498291 14.198613 31.696905 31.696904 31.696905h738.027927c17.498291 0 31.696905-14.198613 31.696905-31.696905V609.540475c-0.09999-17.398301-14.198613-31.596914-31.696905-31.596915zM232.227322 72.892882c2.299775-2.299775 4.899522-4.29958 7.699248-5.799434v155.284835H89.341275c1.499854-2.999707 3.399668-5.799434 5.699444-8.199199L232.227322 72.892882z"  /><path fill="#333333" d="M815.970315 306.170101c-14.998535-14.998535-39.196172-14.998535-54.194707 0L489.402207 578.543502c-35.096573 35.096573-64.993653 75.092667-88.691339 118.788399l-55.2946 101.79006c-9.999024 18.398203 10.099014 38.496241 28.497217 28.597207l101.490089-54.894639c43.995704-23.797676 84.391759-53.894737 119.788302-89.29128l271.97344-271.97344c14.998535-14.998535 14.998535-39.196172 0-54.194708L815.970315 306.170101z m0 105.389708L573.394004 654.23611c-35.396543 35.396543-75.692608 65.493604-119.788301 89.29128l-14.098624 7.599258c-11.198906 6.099404-23.397715-6.199395-17.398301-17.398301l7.899229-14.498584c23.697686-43.595743 53.594766-83.591837 88.691339-118.7884l243.076262-243.076262c14.998535-14.998535 39.196172-14.998535 54.194707 0s14.998535 39.196172 0 54.194708zM990.853237 237.97676l-55.494581-55.494581c-13.798652-13.798652-36.096475-13.798652-49.895127 0l-51.195001 51.195001c-13.798652 13.798652-13.798652 36.096475 0 49.895127l55.494581 55.494581c13.798652 13.798652 36.096475 13.798652 49.895128 0l51.195-51.195c13.798652-13.798652 13.798652-36.096475 0-49.895128z m-51.195 49.895128c-13.798652 13.798652-36.096475 13.798652-49.895128 0l-4.29958-4.299581c-13.798652-13.798652-13.798652-36.096475 0-49.895127 13.798652-13.798652 36.096475-13.798652 49.895127 0l4.299581 4.29958c13.798652 13.798652 13.798652 36.096475 0 49.895128z"  /></svg>