<?xml version="1.0" standalone="no"?><!DOCTYPE svg PUBLIC "-//W3C//DTD SVG 1.1//EN" "http://www.w3.org/Graphics/SVG/1.1/DTD/svg11.dtd"><svg class="icon" width="200px" height="200.00px" viewBox="0 0 1024 1024" version="1.1" xmlns="http://www.w3.org/2000/svg"><path fill="#333333" d="M350.5 597.3c-6.2-6.4-14.2-9.8-22.8-9.8-13.3 0-25.3 8.4-29.8 20.9l-64.7 181.4c-3.5 9.8-2.1 20.2 3.8 28.7 6 8.4 15.6 13.5 25.8 13.5 3.8 0 7.7-0.7 11.7-2.2l0.2-0.1L445.1 759c9.6-4 16.7-12.6 18.8-22.8 2.1-10.2-0.9-20.7-8.1-28.1L350.5 597.3z m47.6 125.1l-100.8 41.8 38.3-107.4 62.5 65.6zM773.6 150.4c-7.1-7.5-16.8-11.7-27.2-11.7h-0.1c-10.2 0-20.1 4.2-27.1 11.5L355.9 528.4c-13.9 14.5-14 37.4-0.3 52.1l112.1 117.6c7.1 7.5 16.8 11.7 27.2 11.7h0.1c10.2 0 20.1-4.2 27.1-11.5l363.4-378.2c13.9-14.5 14-37.4 0.3-52.1L773.6 150.4zM831 301.9L503.6 642.7c-2.3 2.3-5.3 3.6-8.5 3.6s-6.3-1.3-8.5-3.7l-76.3-80c-4.4-4.6-4.3-11.7 0.1-16.4l327.3-340.8c2.2-2.3 5.2-3.6 8.4-3.6 3.3 0 6.3 1.3 8.6 3.7l76.2 80c4.5 4.7 4.5 11.9 0.1 16.4zM1002.3 84.4L943.8 23C929.6 8.2 910.6 0 890.6 0s-39 8.2-53.3 23.1L782 81.2c-14.7 15.5-14.7 39.8 0 55.3l108.9 114.2c7.6 7.9 17.8 12.3 28.8 12.4h0.1c11 0 21.3-4.4 29-12.4l53.6-56.2c28.8-30.5 28.8-79.9-0.1-110.1zM874.7 58.7c4.2-4.5 9.8-7 15.7-7 6 0 11.5 2.4 15.9 7l58.6 61.4c4.8 4.9 7.4 11.7 7.4 19.1 0 7.4-2.6 14.2-7.4 19.3L930 195c-2.7 2.8-6.2 4.4-10.1 4.4-3.9 0-7.6-1.6-10.3-4.4l-73.1-76.6c-5.2-5.5-5.2-14.1 0-19.6l38.2-40.1z"  /><path fill="#333333" d="M904 944H120c-22.1 0-40-17.9-40-40V120c0-22.1 17.9-40 40-40h488c22.1 0 40-17.9 40-40S630.1 0 608 0H40C17.9 0 0 17.9 0 40v944c0 22.1 17.9 40 40 40h944c22.1 0 40-17.9 40-40V416c0-22.1-17.9-40-40-40s-40 17.9-40 40v488c0 22.1-17.9 40-40 40z"  /></svg>