<?xml version="1.0" standalone="no"?><!DOCTYPE svg PUBLIC "-//W3C//DTD SVG 1.1//EN" "http://www.w3.org/Graphics/SVG/1.1/DTD/svg11.dtd"><svg class="icon" width="200px" height="200.00px" viewBox="0 0 1024 1024" version="1.1" xmlns="http://www.w3.org/2000/svg"><path fill="#333333" d="M414.7 202.7h-31.2c-2.8 0-5.3 1.4-6.7 3.8l-58.3 97.1c-3 5-10.3 5.1-13.4 0.1l-60-97.3c-1.4-2.3-4-3.7-6.7-3.7h-73.1c-6.1 0-9.8 6.6-6.8 11.8l100.2 171.8c1.4 2.5 1.4 5.5 0 8L168 545.5c-3.1 5.2 0.6 11.9 6.7 11.9h31.2c2.8 0 5.3-1.5 6.7-3.8L279.9 440c3-5.1 10.4-5.1 13.5 0l67.5 113.6c1.4 2.4 4 3.8 6.7 3.8h73.2c6.1 0 9.8-6.6 6.8-11.8L338 358.8c-1.5-2.5-1.4-5.6 0.1-8.1l83.3-136.1c3.2-5.2-0.6-11.9-6.7-11.9z"  /><path fill="#333333" d="M823.8 0H312.5C291.2 0 274 17.2 274 38.5S256.8 77 235.5 77H57.9C25.9 77 0 102.9 0 134.9v520.8C0 670.8 12.2 683 27.3 683h238.9c4.3 0 7.8 3.5 7.8 7.8v325c0 4.5 3.6 8.1 8.1 8.1h733.8c4.5 0 8.1-3.6 8.1-8.1V187.5c0-2.1-0.8-4.1-2.3-5.5L851.1 11.3C843.8 4.1 834.1 0 823.8 0z m-76.6 560.3H637.7c-17.5 0-31.7-14.2-31.7-31.7v-22.2c0-14.4 11.7-26.1 26.1-26.1h120.5c14.4 0 26.1 11.7 26.1 26.1v22.2c0.1 17.5-14 31.7-31.5 31.7z m5.5-140H632.2c-14.4 0-26.1-11.7-26.1-26.1v-27.7c0-14.4 11.7-26.1 26.1-26.1h120.5c14.4 0 26.1 11.7 26.1 26.1v27.7c0 14.4-11.7 26.1-26.1 26.1zM682.1 60h58.2c21.3 0 38.5 17.2 38.5 38.5v155.7c0 14.4-11.7 26.1-26.1 26.1H632.2c-14.4 0-26.1-11.7-26.1-26.1V98.5c0-21.3 17.2-38.5 38.5-38.5h37.5zM60 595.8V194.9c0-32 25.9-57.9 57.9-57.9h389.7c21.3 0 38.5 17.2 38.5 38.5v417.6c0 16.6-13.4 30-30 30H87.3c-15.1 0-27.3-12.3-27.3-27.3zM955.9 964H828.1c-4.6 0-8.1-3.7-8.1-8.3V886.3c0-8.3 6.8-15.1 15.1-15.1h120.8c4.5 0 8.1 3.6 8.1 8.1v76.6c0 4.5-3.6 8.1-8.1 8.1z m8.1-283.7v70.1c0 4.5-3.6 8.1-8.1 8.1H835.1c-8.3 0-15.1-6.8-15.1-15.1V689c0-31.6-35.4-50.2-61.4-32.3L583.9 777s-0.1 0-0.1 0.1c-7.2 5-15.6 7.8-24.3 7.8H439.3c-10.4 0-18.8 8.4-18.8 18.8V826c0 10.4 8.4 18.8 18.8 18.8h120.2c8.7 0 17.1 2.8 24.3 7.8 0 0 0.1 0 0.1 0.1l140.2 96.5c6.6 4.5 3.4 14.8-4.6 14.8H342.1c-4.5 0-8.1-3.6-8.1-8.1V688.1c0-4.3 3.5-7.8 7.8-7.8H576c16.6 0 30-13.4 30-30s13.4-30 30-30h195c4.3 0 7.8-3.5 7.8-7.8V249.7c0-4.3 3.5-7.8 7.8-7.8h109.5c4.3 0 7.8 3.5 7.8 7.8v430.6z"  /></svg>