<?xml version="1.0" standalone="no"?><!DOCTYPE svg PUBLIC "-//W3C//DTD SVG 1.1//EN" "http://www.w3.org/Graphics/SVG/1.1/DTD/svg11.dtd"><svg class="icon" width="200px" height="200.00px" viewBox="0 0 1024 1024" version="1.1" xmlns="http://www.w3.org/2000/svg"><path fill="#333333" d="M504.8 0H97.2C43.5 0 0 43.5 0 97.2v829.6c0 53.7 43.5 97.2 97.2 97.2h407.6c53.7 0 97.2-43.5 97.2-97.2V97.2C602 43.5 558.5 0 504.8 0zM522 926.8c0 9.5-7.7 17.2-17.2 17.2H97.2c-9.5 0-17.2-7.7-17.2-17.2V97.2C80 87.7 87.7 80 97.2 80h407.6c9.5 0 17.2 7.7 17.2 17.2v829.6zM725.4 190.9h265.1c18.5 0 33.4-15 33.4-33.4v-13.1c0.1-18.4-14.9-33.4-33.3-33.4H725.4c-18.4 0-33.4 15-33.4 33.4v13.1c0 18.5 15 33.4 33.4 33.4zM725.4 371.9h265.1c18.5 0 33.4-15 33.4-33.4v-13.1c0.1-18.4-14.9-33.4-33.3-33.4H725.4c-18.5 0-33.4 15-33.4 33.4v13.1c0 18.5 15 33.4 33.4 33.4zM725.4 552.9h265.1c18.5 0 33.4-15 33.4-33.4v-13.1c0.1-18.4-14.9-33.4-33.3-33.4H725.4c-18.5 0-33.4 15-33.4 33.4v13.1c0 18.5 15 33.4 33.4 33.4zM942.5 675.1h-169c-45 0-81.5 36.5-81.5 81.5v74.9c0 45 36.5 81.5 81.5 81.5h169c45 0 81.5-36.5 81.5-81.5v-74.9c0-45-36.5-81.5-81.5-81.5zM964 831.5c0 11.9-9.6 21.5-21.5 21.5h-169c-11.9 0-21.5-9.6-21.5-21.5v-74.9c0-11.9 9.6-21.5 21.5-21.5h169c11.9 0 21.5 9.6 21.5 21.5v74.9z" /></svg>