<?xml version="1.0" standalone="no"?><!DOCTYPE svg PUBLIC "-//W3C//DTD SVG 1.1//EN" "http://www.w3.org/Graphics/SVG/1.1/DTD/svg11.dtd"><svg class="icon" width="200px" height="200.00px" viewBox="0 0 1024 1024" version="1.1" xmlns="http://www.w3.org/2000/svg"><path fill="#333333" d="M20.26835 416.2c24.4-58.3 78.9-100.9 144-108.4v43.4c0 29.9 32.5 48.4 58.2 33.1l170.9-101.6c25.1-15 25.1-51.3 0-66.3L222.56835 114.9c-25.7-15.3-58.2 3.2-58.2 33.1v48.9C72.56835 203.3 0.06835 279.8 0.06835 373.1c0 14.4 1.7 28.4 5 41.8 1.9 7.6 12.2 8.5 15.2 1.3zM948.76835 287.9H776.56835c-34.4 0-64.4 23.3-72.9 56.7l-0.8 3c-8.5 33.4-38.5 56.7-72.9 56.7H248.46835c-32.1 0-59.5 20.1-70.3 48.3-1.9 4.9 1.8 10.1 7 10.1h586.7c19.5 0 38.4 5.9 54.4 17 16.1 11.1 28.2 26.6 35.2 44.9l109 286.8c0.3 0.8 0.6 1.5 0.8 2.3 1.1 3.1 4.6 4.7 7.6 3.4 26.5-11.6 45-38.1 45-68.9V363.1c0.2-41.5-33.5-75.2-75.1-75.2z"  /><path fill="#333333" d="M836.76835 533.9c-10.2-26.9-36-44.7-64.8-44.7H69.36835c-48.5 0-82 48.6-64.8 93.9l109 286.8c10.2 26.9 36 44.7 64.8 44.7h702.6c48.5 0 82-48.6 64.8-93.9l-109-286.8z"  /></svg>