<?xml version="1.0" standalone="no"?><!DOCTYPE svg PUBLIC "-//W3C//DTD SVG 1.1//EN" "http://www.w3.org/Graphics/SVG/1.1/DTD/svg11.dtd"><svg class="icon" width="200px" height="200.00px" viewBox="0 0 1024 1024" version="1.1" xmlns="http://www.w3.org/2000/svg"><path fill="#333333" d="M802 250.8c3.5 0 7.1 0.1 10.5 0.4 11.6 0.9 21.5-8.3 21.5-19.9V20c0-11-9-20-20-20h-24c-11 0-20 9-20 20v211.3c0 11.6 9.9 20.9 21.5 19.9 3.4-0.2 7-0.4 10.5-0.4zM802 506.6c-3.5 0-7.1-0.1-10.5-0.4-11.6-0.9-21.5 8.3-21.5 19.9V1004c0 11 9 20 20 20h24c11 0 20-9 20-20V526.1c0-11.6-9.9-20.9-21.5-19.9-3.4 0.2-7 0.4-10.5 0.4zM802 480.7c-56.3 0-102-45.7-102-102s45.7-102 102-102 102 45.7 102 102-45.7 102-102 102z"  /><path fill="#333333" d="M512 541.8c3.5 0 7.1 0.1 10.5 0.4 11.6 0.9 21.5-8.3 21.5-19.9V20c0-11-9-20-20-20h-24c-11 0-20 9-20 20v502.3c0 11.6 9.9 20.9 21.5 19.9 3.4-0.2 7-0.4 10.5-0.4zM512 797.6c-3.5 0-7.1-0.1-10.5-0.4-11.6-0.9-21.5 8.3-21.5 19.9V1004c0 11 9 20 20 20h24c11 0 20-9 20-20V817.1c0-11.6-9.9-20.9-21.5-19.9-3.4 0.3-7 0.4-10.5 0.4zM512.5 771.7c-56.3 0-102-45.7-102-102s45.7-102 102-102 102 45.7 102 102c0 56.4-45.7 102-102 102z"  /><path fill="#333333" d="M222 397.8c3.5 0 7.1 0.1 10.5 0.4 11.6 0.9 21.5-8.3 21.5-19.9V20c0-11-9-20-20-20h-24c-11 0-20 9-20 20v358.3c0 11.6 9.9 20.9 21.5 19.9 3.4-0.2 7-0.4 10.5-0.4zM222 653.6c-3.5 0-7.1-0.1-10.5-0.4-11.6-0.9-21.5 8.3-21.5 19.9V1004c0 11 9 20 20 20h24c11 0 20-9 20-20V673.1c0-11.6-9.9-20.9-21.5-19.9-3.4 0.3-7 0.4-10.5 0.4zM222 627.7c-56.3 0-102-45.7-102-102s45.7-102 102-102 102 45.7 102 102-45.7 102-102 102z"  /></svg>