<?xml version="1.0" standalone="no"?><!DOCTYPE svg PUBLIC "-//W3C//DTD SVG 1.1//EN" "http://www.w3.org/Graphics/SVG/1.1/DTD/svg11.dtd"><svg class="icon" width="200px" height="200.00px" viewBox="0 0 1024 1024" version="1.1" xmlns="http://www.w3.org/2000/svg"><path fill="#333333" d="M1001.6 0h-186c-12.4 0-22.4 10-22.4 22.4v25.1c0 12.4 10 22.4 22.4 22.4h116C944 70 954 80 954 92.4v116c0 12.4 10 22.4 22.4 22.4h25.1c12.4 0 22.4-10 22.4-22.4v-186C1024 10 1014 0 1001.6 0zM1001.6 793.1h-25.1c-12.4 0-22.4 10-22.4 22.4v116c0 12.4-10 22.4-22.4 22.4h-116c-12.4 0-22.4 10-22.4 22.4v25.1c0 12.4 10 22.4 22.4 22.4h186c12.4 0 22.4-10 22.4-22.4v-186c-0.1-12.2-10.1-22.3-22.5-22.3zM22.4 230.9h25.1c12.4 0 22.4-10 22.4-22.4v-116C70 80 80 70 92.4 70h116c12.4 0 22.4-10 22.4-22.4V22.4c0-12.4-10-22.4-22.4-22.4h-186C10 0 0 10 0 22.4v186c0 12.4 10 22.5 22.4 22.5zM208.4 954h-116C80 954 70 944 70 931.6v-116c0-12.4-10-22.4-22.4-22.4H22.4C10 793.1 0 803.2 0 815.6v186c0 12.4 10 22.4 22.4 22.4h186c12.4 0 22.4-10 22.4-22.4v-25.1c0.1-12.5-10-22.5-22.4-22.5zM178.7 216.3v591.5c0 20.7 16.8 37.6 37.6 37.6h591.5c20.7 0 37.6-16.8 37.6-37.6V216.3c0-20.7-16.8-37.6-37.6-37.6H216.3c-20.8 0-37.6 16.8-37.6 37.6z m70 521.4V286.3c0-20.7 16.8-37.6 37.6-37.6h451.5c20.7 0 37.6 16.8 37.6 37.6v451.5c0 20.7-16.8 37.6-37.6 37.6H286.3c-20.8-0.1-37.6-16.9-37.6-37.7z"  /><path fill="#333333" d="M539.9 311v-35.2c0-7.4-8.8-11.1-14.1-6l-77.1 74.5c-3.4 3.3-3.4 8.7 0 12l77.1 74.5c5.3 5.1 14.1 1.4 14.1-6V382c40.6 8.4 76.6 33 100.1 70.6 8.5 13.6 14.7 28.6 18.2 44.3 14.8 66-12.1 131-69.3 167.1-13.6 8.6-28.6 14.8-44.2 18.4-54.1 12.4-107.6-3.4-145.2-40.9-17.3-17.3-29.9-37.9-37.4-60.5-4.9-14.8-18.7-24.8-34.3-24.8-24.1 0-41.5 23.2-34.7 46.4 26.2 89 108.5 154 206 154h18.2c118.6 0 214.8-96.2 214.8-214.8v-9.1c0.2-113-83.5-206.4-192.2-221.7z"  /></svg>