<?xml version="1.0" standalone="no"?><!DOCTYPE svg PUBLIC "-//W3C//DTD SVG 1.1//EN" "http://www.w3.org/Graphics/SVG/1.1/DTD/svg11.dtd"><svg class="icon" width="200px" height="200.00px" viewBox="0 0 1024 1024" version="1.1" xmlns="http://www.w3.org/2000/svg"><path fill="#333333" d="M947.431637 587.25576 947.431637 0 0.30062 0l0 895.790299 548.074825 0.09325c44.207547 75.736663 126.330494 128.116451 220.35035 128.116451 140.817973 0 254.973585-115.63873 254.973585-256.456702C1023.69938 703.002837 986.380779 625.980214 947.431637 587.25576zM901.207229 551.560595c-36.464255-26.845308-78.511957-38.99177-132.481434-38.99177-23.943904 0-47.113391 3.307262-69.085726 9.47774-46.344301-23.336448-96.914154-39.508641-150.261965-47.045896 88.855588-29.377264 152.977757-113.09434 152.977757-211.798004 0-112.406067-83.156689-205.373531-191.304345-220.780187l390.155713 0L901.207229 551.560595zM479.31725 446.225533c-100.916794 0-183.019315-82.102521-183.019315-183.021091S378.399568 80.18335 479.31725 80.18335 662.339229 162.285871 662.339229 263.204441 580.234932 446.225533 479.31725 446.225533zM447.583872 42.424254C339.437104 57.83091 256.280416 150.799262 256.280416 263.204441c0 98.97098 64.469413 182.870115 153.698001 212.032461C248.372826 498.635516 112.414504 601.237913 42.724874 742.413788L42.724874 42.424254 447.583872 42.424254zM45.668018 850.463753C93.994545 655.299752 270.622247 510.188732 480.510848 510.188732c59.281168 0 115.902494 11.586963 167.734328 32.596605-80.056352 43.003291-134.494743 127.518764-134.494743 224.756184 0 29.030019 4.862315 56.923278 13.799206 82.920456L45.668018 850.461977 45.668018 850.463753zM768.725795 980.300443c-116.774602 0-211.777578-96.486093-211.777578-213.259807 0-116.773714 95.002976-211.775801 211.777578-211.775801 70.690512 0 133.393506 34.822169 171.881727 88.206392L768.577483 819.345825 669.299223 722.431671l-32.633017 33.305304 132.583565 129.547171 194.939314-199.725253c10.500824 25.095762 16.312512 52.622238 16.312512 81.482631C980.501596 883.81435 885.499509 980.300443 768.725795 980.300443z" /></svg>