<?xml version="1.0" standalone="no"?><!DOCTYPE svg PUBLIC "-//W3C//DTD SVG 1.1//EN" "http://www.w3.org/Graphics/SVG/1.1/DTD/svg11.dtd"><svg class="icon" width="200px" height="200.00px" viewBox="0 0 1024 1024" version="1.1" xmlns="http://www.w3.org/2000/svg"><path fill="#333333" d="M994.2 0H779.8C763.3 0 750 13.3 750 29.8v214.4c0 16.5 13.3 29.8 29.8 29.8h214.4c16.5 0 29.8-13.3 29.8-29.8V29.8c0-16.5-13.3-29.8-29.8-29.8zM954 204H820V70h134v134zM619.2 0H404.8C388.3 0 375 13.3 375 29.8v214.4c0 16.5 13.3 29.8 29.8 29.8h214.4c16.5 0 29.8-13.3 29.8-29.8V29.8C649 13.3 635.7 0 619.2 0zM579 204H445V70h134v134zM244.2 0H29.8C13.3 0 0 13.3 0 29.8v214.4C0 260.7 13.3 274 29.8 274h214.4c16.5 0 29.8-13.3 29.8-29.8V29.8C274 13.3 260.7 0 244.2 0zM204 204H70V70h134v134zM994.2 375H779.8c-16.5 0-29.8 13.3-29.8 29.8v214.4c0 16.5 13.3 29.8 29.8 29.8h214.4c16.5 0 29.8-13.3 29.8-29.8V404.8c0-16.5-13.3-29.8-29.8-29.8zM954 579H820V445h134v134zM619.2 375H404.8c-16.5 0-29.8 13.3-29.8 29.8v214.4c0 16.5 13.3 29.8 29.8 29.8h214.4c16.5 0 29.8-13.3 29.8-29.8V404.8c0-16.5-13.3-29.8-29.8-29.8zM579 579H445V445h134v134zM244.2 375H29.8C13.3 375 0 388.3 0 404.8v214.4C0 635.7 13.3 649 29.8 649h214.4c16.5 0 29.8-13.3 29.8-29.8V404.8c0-16.5-13.3-29.8-29.8-29.8zM204 579H70V445h134v134zM994.2 750H779.8c-16.5 0-29.8 13.3-29.8 29.8v214.4c0 16.5 13.3 29.8 29.8 29.8h214.4c16.5 0 29.8-13.3 29.8-29.8V779.8c0-16.5-13.3-29.8-29.8-29.8zM954 954H820V820h134v134zM619.2 750H404.8c-16.5 0-29.8 13.3-29.8 29.8v214.4c0 16.5 13.3 29.8 29.8 29.8h214.4c16.5 0 29.8-13.3 29.8-29.8V779.8c0-16.5-13.3-29.8-29.8-29.8zM579 954H445V820h134v134zM244.2 750H29.8C13.3 750 0 763.3 0 779.8v214.4c0 16.5 13.3 29.8 29.8 29.8h214.4c16.5 0 29.8-13.3 29.8-29.8V779.8c0-16.5-13.3-29.8-29.8-29.8zM204 954H70V820h134v134z" /></svg>