<?xml version="1.0" standalone="no"?><!DOCTYPE svg PUBLIC "-//W3C//DTD SVG 1.1//EN" "http://www.w3.org/Graphics/SVG/1.1/DTD/svg11.dtd"><svg class="icon" width="200px" height="200.00px" viewBox="0 0 1024 1024" version="1.1" xmlns="http://www.w3.org/2000/svg"><path fill="#333333" d="M984.8 40.7C960 15.6 925.6 0 887.6 0H136.4C98.4 0 64 15.6 39.2 40.7 15.3 59.6 0 88.8 0 121.6v766C0 962.9 61.1 1024 136.4 1024h751.1c75.4 0 136.4-61.1 136.4-136.4V121.5c0.1-32.7-15.2-61.9-39.1-80.8zM718 723H562c-11 0-20-9-20-20V562c0-11 9-20 20-20h156c11 0 20 9 20 20v141c0 11-9 20-20 20z m100-181h126c11 0 20 9 20 20v141c0 11-9 20-20 20H818c-11 0-20-9-20-20V562c0-11 9-20 20-20zM482 321v141c0 11-9 20-20 20H306c-11 0-20-9-20-20V321c0-11 9-20 20-20h156c11 0 20 9 20 20z m0 241v141c0 11-9 20-20 20H306c-11 0-20-9-20-20V562c0-11 9-20 20-20h156c11 0 20 9 20 20z m0 241v141c0 11-9 20-20 20H306c-11 0-20-9-20-20V803c0-11 9-20 20-20h156c11 0 20 9 20 20z m80-20h156c11 0 20 9 20 20v141c0 11-9 20-20 20H562c-11 0-20-9-20-20V803c0-11 9-20 20-20z m-20-321V321c0-11 9-20 20-20h156c11 0 20 9 20 20v141c0 11-9 20-20 20H562c-11 0-20-9-20-20zM80 301h126c11 0 20 9 20 20v141c0 11-9 20-20 20H80c-11 0-20-9-20-20V321c0-11 9-20 20-20z m146 261v141c0 11-9 20-20 20H80c-11 0-20-9-20-20V562c0-11 9-20 20-20h126c11 0 20 9 20 20zM60 887.6V803c0-11 9-20 20-20h126c11 0 20 9 20 20v141c0 11-9 20-20 20h-69.6C94.2 964 60 929.8 60 887.6zM887.6 964H818c-11 0-20-9-20-20V803c0-11 9-20 20-20h126c11 0 20 9 20 20v84.6c0 42.2-34.2 76.4-76.4 76.4zM944 482H818c-11 0-20-9-20-20V321c0-11 9-20 20-20h126c11 0 20 9 20 20v141c0 11-9 20-20 20z" /></svg>