<?xml version="1.0" standalone="no"?><!DOCTYPE svg PUBLIC "-//W3C//DTD SVG 1.1//EN" "http://www.w3.org/Graphics/SVG/1.1/DTD/svg11.dtd"><svg class="icon" width="200px" height="200.00px" viewBox="0 0 1024 1024" version="1.1" xmlns="http://www.w3.org/2000/svg"><path fill="#333333" d="M903.861732 188.481594L730.178693 9.499072c-5.899424-5.999414-14.098623-9.499072-22.697783-9.499072H142.936041c-17.498291 0-31.696905 14.198613-31.696904 31.696905V187.981642c0 0.799922 0 1.599844 0.09999 2.399766v801.921687c0 17.498291 14.198613 31.696905 31.696905 31.696905h738.027927c17.498291 0 31.696905-14.198613 31.696904-31.696905V210.479445c0-8.199199-3.199688-16.198418-8.899131-21.997851zM695.682062 66.993458c2.799727 1.499854 5.399473 3.499658 7.699248 5.799433l137.186603 141.286203c2.299775 2.399766 4.19959 5.199492 5.699444 8.199199H695.682062V66.993458z m153.784982 861.915828c0 17.498291-14.198613 31.696905-31.696904 31.696905H206.429841c-17.498291 0-31.696905-14.198613-31.696905-31.696905V92.490968c1.199883-16.398399 14.898545-29.297139 31.596915-29.297139h462.254858v172.583146c0 7.499268 6.099404 13.598672 13.598672 13.598672h167.283663V928.909286z"  /><path fill="#333333" d="M407.310224 685.033102l-87.491456-87.491456c-8.199199-8.199199-8.199199-21.497901 0-29.79709l87.491456-87.491456c8.199199-8.199199 8.199199-21.497901 0-29.79709-8.199199-8.199199-21.497901-8.199199-29.797091 0L260.324578 567.744556c-8.199199 8.199199-8.199199 21.497901 0 29.79709l117.288546 117.288546c8.199199 8.199199 21.497901 8.199199 29.79709 0 8.099209-8.29919 8.099209-21.597891-0.09999-29.79709zM763.675422 567.744556L646.486867 450.45601c-8.199199-8.199199-21.497901-8.199199-29.797091 0-8.199199 8.199199-8.199199 21.497901 0 29.79709l87.491456 87.491456c8.199199 8.199199 8.199199 21.497901 0 29.79709l-87.491456 87.491456c-8.199199 8.199199-8.199199 21.497901 0 29.79709 8.199199 8.199199 21.497901 8.199199 29.797091 0l117.288546-117.288546c8.199199-8.29919 8.199199-21.597891-0.099991-29.79709zM479.503174 748.226931l104.989747-317.968948c3.599648-10.998926-2.299775-22.897764-13.398692-26.597403-10.998926-3.599648-22.897764 2.299775-26.597403 13.398692l-104.989747 317.968948c-3.599648 10.998926 2.299775 22.897764 13.398692 26.597402 10.998926 3.599648 22.897764-2.399766 26.597403-13.398691z"  /></svg>