<?xml version="1.0" standalone="no"?><!DOCTYPE svg PUBLIC "-//W3C//DTD SVG 1.1//EN" "http://www.w3.org/Graphics/SVG/1.1/DTD/svg11.dtd"><svg class="icon" width="200px" height="200.00px" viewBox="0 0 1024 1024" version="1.1" xmlns="http://www.w3.org/2000/svg"><path fill="#333333" d="M512 0C229.2 0 0 229.2 0 512s229.2 512 512 512 512-229.2 512-512S794.8 0 512 0z m407.3 684c-22.3 52.6-54.1 99.9-94.8 140.5-40.6 40.6-87.9 72.5-140.5 94.8-54.4 23-112.3 34.7-172 34.7s-117.6-11.7-172-34.7c-52.6-22.3-99.9-54.1-140.5-94.8-40.6-40.6-72.5-87.9-94.8-140.5C81.7 629.6 70 571.7 70 512s11.7-117.6 34.7-172c22.3-52.6 54.1-99.9 94.8-140.5 40.6-40.6 87.9-72.5 140.5-94.8C394.4 81.7 452.3 70 512 70s117.6 11.7 172 34.7c52.6 22.3 99.9 54.1 140.5 94.8 40.6 40.6 72.5 87.9 94.8 140.5 23 54.4 34.7 112.3 34.7 172s-11.7 117.6-34.7 172z"  /><path fill="#333333" d="M512 352.1c-88.3 0-159.9 71.6-159.9 159.9 0 88.3 71.6 159.9 159.9 159.9 88.3 0 159.9-71.6 159.9-159.9 0-88.3-71.6-159.9-159.9-159.9z"  /></svg>