<?xml version="1.0" standalone="no"?><!DOCTYPE svg PUBLIC "-//W3C//DTD SVG 1.1//EN" "http://www.w3.org/Graphics/SVG/1.1/DTD/svg11.dtd"><svg class="icon" width="200px" height="200.00px" viewBox="0 0 1024 1024" version="1.1" xmlns="http://www.w3.org/2000/svg"><path fill="#333333" d="M512 0C229.2 0 0 229.2 0 512s229.2 512 512 512 512-229.2 512-512S794.8 0 512 0z m416.5 687.9c-22.8 53.8-55.4 102.2-96.9 143.7-41.5 41.5-89.9 74.1-143.7 96.9C632.2 952.1 573 964 512 964s-120.2-11.9-175.9-35.5c-53.8-22.8-102.2-55.4-143.7-96.9-41.5-41.5-74.1-89.9-96.9-143.7C71.9 632.2 60 573 60 512s11.9-120.2 35.5-175.9c22.8-53.8 55.4-102.2 96.9-143.7 41.5-41.5 89.9-74.1 143.7-96.9C391.8 71.9 451 60 512 60s120.2 11.9 175.9 35.5c53.8 22.8 102.2 55.4 143.7 96.9 41.5 41.5 74.1 89.9 96.9 143.7C952.1 391.8 964 451 964 512s-11.9 120.2-35.5 175.9z"  /><path fill="#333333" d="M771.8 465.3c-0.8-4.3-1.7-8.6-2.6-12.9-1-4.3-2.1-8.5-3.3-12.6-4.1-14.6-9.5-28.7-16-42.2-7.4-15.4-16.3-29.9-26.4-43.5-2.5-3.4-5.1-6.7-7.8-10-4-4.9-8.2-9.6-12.6-14.2-2.9-3.1-5.9-6-9-9-4.6-4.4-9.3-8.6-14.2-12.6-3.3-2.7-6.6-5.3-10-7.8-13.5-10.1-28.1-19-43.5-26.4-13.5-6.5-27.6-11.9-42.2-16-4.2-1.2-8.4-2.3-12.6-3.3-4.3-1-8.6-1.9-12.9-2.6-15.2-2.7-30.8-4.1-46.7-4.1-15.9 0-31.6 1.4-46.7 4.1-4.3 0.8-8.6 1.7-12.9 2.6-4.3 1-8.5 2.1-12.6 3.3-14.6 4.1-28.7 9.5-42.2 16-15.4 7.4-29.9 16.3-43.5 26.4-3.4 2.5-6.7 5.1-10 7.8-4.9 4-9.6 8.2-14.2 12.6-3.1 2.9-6 5.9-9 9-4.4 4.6-8.6 9.3-12.6 14.2-2.7 3.3-5.3 6.6-7.8 10-10.1 13.5-19 28.1-26.4 43.5-6.5 13.5-11.9 27.6-16 42.2-1.2 4.2-2.3 8.4-3.3 12.6-1 4.3-1.9 8.6-2.6 12.9-2.7 15.2-4.1 30.8-4.1 46.7 0 15.9 1.4 31.6 4.1 46.7 0.8 4.3 1.7 8.6 2.6 12.9 1 4.3 2.1 8.5 3.3 12.6 4.1 14.6 9.5 28.7 16 42.2 7.4 15.4 16.3 29.9 26.4 43.5 2.5 3.4 5.1 6.7 7.8 10 4 4.9 8.2 9.6 12.6 14.2 2.9 3.1 5.9 6 9 9 4.6 4.4 9.3 8.6 14.2 12.6 3.3 2.7 6.6 5.3 10 7.8 13.5 10.1 28.1 19 43.5 26.4 13.5 6.5 27.6 11.9 42.2 16 4.2 1.2 8.4 2.3 12.6 3.3 4.3 1 8.6 1.9 12.9 2.6 15.2 2.7 30.8 4.1 46.7 4.1 15.9 0 31.6-1.4 46.7-4.1 4.3-0.8 8.6-1.7 12.9-2.6 4.3-1 8.5-2.1 12.6-3.3 14.6-4.1 28.7-9.5 42.2-16 15.4-7.4 29.9-16.3 43.5-26.4 3.4-2.5 6.7-5.1 10-7.8 4.9-4 9.6-8.2 14.2-12.6 3.1-2.9 6-5.9 9-9 4.4-4.6 8.6-9.3 12.6-14.2 2.7-3.3 5.3-6.6 7.8-10 10.1-13.5 19-28.1 26.4-43.5 6.5-13.5 11.9-27.6 16-42.2 1.2-4.2 2.3-8.4 3.3-12.6 1-4.3 1.9-8.6 2.6-12.9 2.7-15.2 4.1-30.8 4.1-46.7 0-15.9-1.4-31.6-4.1-46.7z"  /></svg>