<?xml version="1.0" standalone="no"?><!DOCTYPE svg PUBLIC "-//W3C//DTD SVG 1.1//EN" "http://www.w3.org/Graphics/SVG/1.1/DTD/svg11.dtd"><svg class="icon" width="200px" height="200.00px" viewBox="0 0 1024 1024" version="1.1" xmlns="http://www.w3.org/2000/svg"><path fill="#333333" d="M0 79.2v865.6c0 43.8 35.5 79.2 79.2 79.2h865.6c43.8 0 79.2-35.5 79.2-79.2V79.2C1024 35.5 988.5 0 944.8 0H79.2C35.5 0 0 35.5 0 79.2z m907.3 212.2l-512 511.9c-19.5 19.5-51.2 19.5-70.7 0L116.7 595.4c-19.5-19.5-19.5-51.2 0-70.7s51.2-19.5 70.7 0l137.2 137.2c19.5 19.5 51.2 19.5 70.7 0l441.2-441.2c19.5-19.5 51.2-19.5 70.7 0 19.6 19.5 19.6 51.2 0.1 70.7z" /></svg>