<?xml version="1.0" standalone="no"?><!DOCTYPE svg PUBLIC "-//W3C//DTD SVG 1.1//EN" "http://www.w3.org/Graphics/SVG/1.1/DTD/svg11.dtd"><svg class="icon" width="200px" height="200.00px" viewBox="0 0 1024 1024" version="1.1" xmlns="http://www.w3.org/2000/svg"><path fill="#333333" d="M399.7 673.6h-10.3c-7.5 0-13.6 6.1-13.6 13.6v47c0 7.5-6.1 13.6-13.6 13.6H239.1c-7.5 0-13.6-6.1-13.6-13.6V611.1c0-7.5 6.1-13.6 13.6-13.6h47c7.5 0 13.6-6.1 13.6-13.6v-10.3c0-7.5-6.1-13.6-13.6-13.6h-84.6c-7.5 0-13.6 6.1-13.6 13.6v198.2c0 7.5 6.1 13.6 13.6 13.6h198.2c7.5 0 13.6-6.1 13.6-13.6v-84.6c0.1-7.5-6-13.6-13.6-13.6zM819.4 653.9h-285c-9.2 0-16.7 6.1-16.7 13.6v10.3c0 7.5 7.5 13.6 16.7 13.6h285c9.2 0 16.7-6.1 16.7-13.6v-10.3c0.1-7.5-7.5-13.6-16.7-13.6zM819.4 335.4h-285c-9.2 0-16.7 6.1-16.7 13.6v10.3c0 7.5 7.5 13.6 16.7 13.6h285c9.2 0 16.7-6.1 16.7-13.6V349c0.1-7.5-7.5-13.6-16.7-13.6zM399.7 355.1h-10.3c-7.5 0-13.6 6.1-13.6 13.6v47c0 7.5-6.1 13.6-13.6 13.6H239.1c-7.5 0-13.6-6.1-13.6-13.6V292.6c0-7.5 6.1-13.6 13.6-13.6h47c7.5 0 13.6-6.1 13.6-13.6v-10.3c0-7.5-6.1-13.6-13.6-13.6h-84.6c-7.5 0-13.6 6.1-13.6 13.6v198.2c0 7.5 6.1 13.6 13.6 13.6h198.2c7.5 0 13.6-6.1 13.6-13.6v-84.6c0.1-7.5-6-13.6-13.6-13.6z"  /><path fill="#333333" d="M452.7 243.3c-5.3-5.3-13.9-5.3-19.3 0L329.8 346.9c-5.3 5.3-13.9 5.3-19.3 0L274 310.4c-5.3-5.3-13.9-5.3-19.3 0l-0.7 0.7c-5.3 5.3-5.3 13.9 0 19.3l56.5 56.5c5.3 5.3 13.9 5.3 19.3 0l123.6-123.6c5.3-5.3 5.3-13.9 0-19.3l-0.7-0.7zM452.7 549.3c-5.3-5.3-13.9-5.3-19.3 0L329.8 652.9c-5.3 5.3-13.9 5.3-19.3 0L274 616.4c-5.3-5.3-13.9-5.3-19.3 0l-0.7 0.7c-5.3 5.3-5.3 13.9 0 19.3l56.5 56.5c5.3 5.3 13.9 5.3 19.3 0l123.6-123.6c5.3-5.3 5.3-13.9 0-19.3l-0.7-0.7z"  /><path fill="#333333" d="M966.8 93.9H57.2C25.6 93.9 0 119.6 0 151.2v721.7c0 31.6 25.6 57.2 57.2 57.2h909.6c31.6 0 57.2-25.6 57.2-57.2V151.2c0-31.6-25.6-57.3-57.2-57.3z m-8.5 713.2h-0.1c0 31.6-25.6 57.2-57.2 57.2H132c-36.6 0-66.2-25.6-66.2-57.2V216.9c0-31.6 29.6-57.2 66.2-57.2h769c31.6 0 57.2 25.6 57.2 57.2v590.2z"  /></svg>