<?xml version="1.0" standalone="no"?><!DOCTYPE svg PUBLIC "-//W3C//DTD SVG 1.1//EN" "http://www.w3.org/Graphics/SVG/1.1/DTD/svg11.dtd"><svg class="icon" width="200px" height="200.00px" viewBox="0 0 1024 1024" version="1.1" xmlns="http://www.w3.org/2000/svg"><path fill="#333333" d="M130.983 703.413l63.491 0 0 126.957-63.491 0 0-126.957ZM829.029 4.175 196.834 4.175c-104.742 0-189.659 84.917-189.659 189.659l0 632.177c0 104.768 84.917 189.659 189.659 189.659l632.196 0c104.742 0 189.659-84.891 189.659-189.659l0-632.177C1018.688 89.092 933.771 4.175 829.029 4.175zM354.691 68.548l316.949 0 0 354.192-94.972-94.981-63.502 63.482-63.495-63.482-94.98 94.984L354.691 68.548zM955.468 826.011c0 69.839-56.607 126.452-126.439 126.452L196.834 952.463c-69.832 0-126.439-56.613-126.439-126.452l0-632.177c0-69.839 56.607-126.42 126.439-126.42l93.857 0 0 509.845 158.986-158.994 63.487 63.475 63.494-63.476 158.981 158.998 0-509.848 93.39 0c69.832 0 126.439 56.581 126.439 126.42L955.468 826.011zM640.914 703.413l63.491 0 0 126.957-63.491 0 0-126.957ZM259.972 703.413l63.485 0 0 126.957-63.485 0 0-126.957ZM385.948 703.413l63.491 0 0 126.957-63.491 0 0-126.957ZM513.931 703.413l63.498 0 0 126.957-63.498 0 0-126.957Z" /></svg>