<?xml version="1.0" standalone="no"?><!DOCTYPE svg PUBLIC "-//W3C//DTD SVG 1.1//EN" "http://www.w3.org/Graphics/SVG/1.1/DTD/svg11.dtd"><svg class="icon" width="200px" height="200.00px" viewBox="0 0 1024 1024" version="1.1" xmlns="http://www.w3.org/2000/svg"><path fill="#333333" d="M611.4 340.9c0.5 2.1 1 4.1 1.6 6.1 2 7.1 4.6 13.9 7.8 20.4 3.6 7.5 7.9 14.5 12.8 21.1 1.2 1.6 2.5 3.3 3.8 4.8 2 2.4 4 4.7 6.1 6.9 1.4 1.5 2.9 2.9 4.3 4.3 2.2 2.1 4.5 4.2 6.9 6.1 1.6 1.3 3.2 2.6 4.8 3.8 6.6 4.9 13.6 9.2 21.1 12.8 6.5 3.1 13.4 5.7 20.4 7.8 2 0.6 4.1 1.1 6.1 1.6 2.1 0.5 4.1 0.9 6.2 1.3 7.3 1.3 14.9 2 22.6 2 7.7 0 15.3-0.7 22.6-2 2.1-0.4 4.2-0.8 6.2-1.3 2.1-0.5 4.1-1 6.1-1.6 7.1-2 13.9-4.6 20.4-7.8 7.5-3.6 14.5-7.9 21.1-12.8 1.6-1.2 3.3-2.5 4.8-3.8 2.4-2 4.7-4 6.9-6.1 1.5-1.4 2.9-2.9 4.3-4.3 2.1-2.2 4.2-4.5 6.1-6.9 1.3-1.6 2.6-3.2 3.8-4.8 4.9-6.6 9.2-13.6 12.8-21.1 3.1-6.5 5.7-13.4 7.8-20.4 0.6-2 1.1-4.1 1.6-6.1 0.5-2.1 0.9-4.1 1.3-6.2 1.3-7.3 2-14.9 2-22.6 0-7.7-0.7-15.3-2-22.6-0.4-2.1-0.8-4.2-1.3-6.2-0.5-2.1-1-4.1-1.6-6.1-2-7.1-4.6-13.9-7.8-20.4-3.6-7.5-7.9-14.5-12.8-21.1-1.2-1.6-2.5-3.3-3.8-4.8-2-2.4-4-4.7-6.1-6.9-1.4-1.5-2.9-2.9-4.3-4.3-2.2-2.1-4.5-4.2-6.9-6.1-1.6-1.3-3.2-2.6-4.8-3.8-6.6-4.9-13.6-9.2-21.1-12.8-6.5-3.1-13.4-5.7-20.4-7.8-2-0.6-4.1-1.1-6.1-1.6-2.1-0.5-4.1-0.9-6.2-1.3-7.3-1.3-14.9-2-22.6-2-7.7 0-15.3 0.7-22.6 2-2.1 0.4-4.2 0.8-6.2 1.3-2.1 0.5-4.1 1-6.1 1.6-7.1 2-13.9 4.6-20.4 7.8-7.5 3.6-14.5 7.9-21.1 12.8-1.6 1.2-3.3 2.5-4.8 3.8-2.4 2-4.7 4-6.9 6.1-1.5 1.4-2.9 2.9-4.3 4.3-2.1 2.2-4.2 4.5-6.1 6.9-1.3 1.6-2.6 3.2-3.8 4.8-4.9 6.6-9.2 13.6-12.8 21.1-3.1 6.5-5.7 13.4-7.8 20.4-0.6 2-1.1 4.1-1.6 6.1-0.5 2.1-0.9 4.1-1.3 6.2-1.3 7.3-2 14.9-2 22.6 0 7.7 0.7 15.3 2 22.6 0.4 2 0.8 4.1 1.3 6.2zM693 591.9c-19.6-2.1-38.8 3.9-53.9 16.7l-108.8 92.9c-4.6 4-10.5 5.7-16.5 5-6-0.8-11.2-3.9-14.7-8.9L379.2 527c-11.4-16.1-29-26.9-48.5-29.5-19.5-2.7-39.4 2.9-54.8 15.3l-4.8 3.9-118.9 275.9V806c0 19.2 15.6 34.9 34.9 34.9H837c19.2 0 34.9-15.8 34.9-35.1V788L742 619.4c-12-15.7-29.4-25.4-49-27.5z m-485.6 199L311.7 549c3.8-1.8 7.9-2.5 12.1-1.9 5.9 0.8 11 4 14.5 8.8l119.9 170.4c11.5 16.4 29.4 27.3 49.3 29.8s40-3.5 55.3-16.5l108.8-92.8c4.6-3.9 10.3-5.7 16.2-5 5.8 0.6 11 3.5 14.6 8.2l108.5 141H207.4z"  /><path fill="#333333" d="M923.1 0H100.9C45.2 0 0 45.2 0 100.9v822.2C0 978.8 45.2 1024 100.9 1024h822.2c55.7 0 100.9-45.2 100.9-100.9V100.9C1024 45.2 978.8 0 923.1 0zM954 923.1c0 17-13.9 30.9-30.9 30.9H100.9c-17 0-30.9-13.9-30.9-30.9V100.9c0-17 13.9-30.9 30.9-30.9h822.2c17 0 30.9 13.9 30.9 30.9v822.2z"  /></svg>