<?xml version="1.0" standalone="no"?><!DOCTYPE svg PUBLIC "-//W3C//DTD SVG 1.1//EN" "http://www.w3.org/Graphics/SVG/1.1/DTD/svg11.dtd"><svg class="icon" width="200px" height="200.00px" viewBox="0 0 1024 1024" version="1.1" xmlns="http://www.w3.org/2000/svg"><path fill="#333333" d="M176.6 575.1c1.2 1.5 2.5 2.9 3.8 4.2 0.9 0.9 1.7 1.8 2.6 2.6 1.4 1.3 2.8 2.5 4.2 3.8 0.9 0.8 2 1.6 3 2.3 4.1 3 8.4 5.7 13 7.9 4 2 8.2 3.6 12.5 4.8 1.2 0.4 2.5 0.7 3.8 1 1.2 0.3 2.5 0.6 3.8 0.8 4.5 0.8 9.2 1.2 13.9 1.2s9.4-0.4 13.9-1.2c1.3-0.2 2.5-0.5 3.8-0.8 1.2-0.3 2.5-0.6 3.8-1 4.3-1.3 8.5-2.9 12.5-4.8 4.6-2.2 8.9-4.9 13-7.9 1-0.7 2-1.5 3-2.3 1.5-1.2 2.9-2.5 4.2-3.8 0.9-0.9 1.8-1.7 2.6-2.6 1.3-1.4 2.5-2.8 3.8-4.2 0.8-0.9 1.6-2 2.3-3 3-4.1 5.7-8.4 7.9-13 2-4 3.6-8.2 4.8-12.5 0.4-1.2 0.7-2.5 1-3.8s0.6-2.6 0.8-3.8c0.8-4.5 1.2-9.2 1.2-13.9 0-4.7-0.4-9.4-1.2-13.9-0.2-1.3-0.5-2.5-0.8-3.8-0.3-1.2-0.6-2.5-1-3.8-1.3-4.3-2.9-8.5-4.8-12.5-2.2-4.6-4.9-8.9-7.9-13-0.7-1-1.5-2-2.3-3-1.2-1.5-2.5-2.9-3.8-4.2-0.9-0.9-1.7-1.8-2.6-2.6-1.4-1.3-2.8-2.5-4.2-3.8-0.9-0.8-2-1.6-3-2.3-4.1-3-8.4-5.7-13-7.9-4-2-8.2-3.6-12.5-4.8-1.2-0.4-2.5-0.7-3.8-1-1.2-0.3-2.5-0.6-3.8-0.8-4.5-0.8-9.2-1.2-13.9-1.2-4.7 0-9.4 0.4-13.9 1.2-1.3 0.2-2.5 0.5-3.8 0.8-1.2 0.3-2.5 0.6-3.8 1-4.3 1.3-8.5 2.9-12.5 4.8-4.6 2.2-8.9 4.9-13 7.9-1 0.7-2 1.5-3 2.3-1.5 1.2-2.9 2.5-4.2 3.8-0.9 0.9-1.8 1.7-2.6 2.6-1.3 1.4-2.5 2.8-3.8 4.2-0.8 0.9-1.6 2-2.3 3-3 4.1-5.7 8.4-7.9 13-2 4-3.6 8.2-4.8 12.5-0.4 1.2-0.7 2.5-1 3.8-0.3 1.2-0.6 2.5-0.8 3.8-0.8 4.5-1.2 9.2-1.2 13.9 0 4.7 0.4 9.4 1.2 13.9 0.2 1.3 0.5 2.5 0.8 3.8 0.3 1.2 0.6 2.5 1 3.8 1.3 4.3 2.9 8.5 4.8 12.5 2.2 4.6 4.9 8.9 7.9 13 0.7 1 1.5 2 2.3 3zM447.3 512.8l-6.8 3.9-263.1 275.9-7 13.4c-10 19.2-2.6 34.9 16.7 34.9H837c19.2 0 43.2-15.8 53.2-35.1l9.3-17.8-41.8-168.6c-3.8-15.7-16.1-25.4-34.6-27.5s-40.8 3.9-62.6 16.7l-157.3 92.9c-6.7 4-13.5 5.7-19.1 5-5.6-0.8-9.2-3.9-10-8.9L543.2 527c-3-16.1-14.9-26.9-33.1-29.5-18-2.7-40.9 2.9-62.8 15.3z m104.5 243.3c18.6 2.5 41.8-3.5 63.9-16.5L773 646.8c6.6-3.9 13.3-5.7 18.8-5 5.5 0.6 9.2 3.5 10.3 8.2L837 791H233.5l0.1-0.1L464.2 549c4.7-1.8 9.2-2.5 13.1-1.9 5.5 0.8 8.9 4 9.9 8.8l30.9 170.4c2.9 16.4 15.1 27.3 33.7 29.8zM716.3 324.6h58.2v155.7c0 9.4 7.6 17 17 17h106c9.4 0 17-7.6 17-17V324.6h58.2c39.5 0 64.2-42.7 44.4-76.9l-128.2-222c-19.7-34.2-69.1-34.2-88.8 0l-128.2 222c-19.8 34.1 4.9 76.9 44.4 76.9z"  /><path fill="#333333" d="M989 632c-19.3 0-35 15.7-35 35v276.6c0 13.5-13.9 24.6-30.9 24.6H100.9c-17 0-30.9-11.1-30.9-24.6V288.7c0-13.5 13.9-24.6 30.9-24.6h403.2c15.4 0 27.9-12.5 27.9-27.9 0-15.4-12.5-27.9-27.9-27.9H100.9C45.2 208.3 0 244.3 0 288.7v654.9C0 988 45.2 1024 100.9 1024h822.2c55.7 0 100.9-36 100.9-80.4V667c0-19.3-15.7-35-35-35z"  /></svg>