<?xml version="1.0" standalone="no"?><!DOCTYPE svg PUBLIC "-//W3C//DTD SVG 1.1//EN" "http://www.w3.org/Graphics/SVG/1.1/DTD/svg11.dtd"><svg class="icon" width="200px" height="200.00px" viewBox="0 0 1024 1024" version="1.1" xmlns="http://www.w3.org/2000/svg"><path fill="#333333" d="M815.5 69.9h116C944 70 954 80 954 92.4v116c0 12.4 10 22.4 22.4 22.4h25.1c12.4 0 22.4-10 22.4-22.4v-186C1024 10 1014 0 1001.5 0h-186c-12.4 0-22.4 10-22.4 22.4v25.1c0 12.4 10 22.4 22.4 22.4zM1001.5 793.1h-25.1c-12.4 0-22.4 10-22.4 22.4v116c0 12.4-10 22.4-22.4 22.4h-116c-12.4 0-22.4 10-22.4 22.4v25.1c0 12.4 10 22.4 22.4 22.4h186c12.4 0 22.4-10 22.4-22.4v-186c0-12.2-10-22.3-22.5-22.3zM22.4 230.9h25.1c12.4 0 22.4-10 22.4-22.4v-116C70 80 80 70 92.4 70h116c12.4 0 22.4-10 22.4-22.4V22.4c0-12.4-10-22.4-22.4-22.4h-186C10 0 0 10 0 22.4v186c0 12.4 10 22.5 22.4 22.5zM208.4 954h-116C80 954 70 944 70 931.6v-116c0-12.4-10-22.4-22.4-22.4H22.4C10 793.1 0 803.2 0 815.6v186c0 12.4 10 22.4 22.4 22.4h186c12.4 0 22.4-10 22.4-22.4v-25.1c0.1-12.5-10-22.5-22.4-22.5zM902.9 535.7c12-13.5 12-33.9 0-47.4C849.4 428 694.6 273.6 512 273.6S174.6 428 121.1 488.3c-12 13.5-12 33.9 0 47.4C174.6 596 329.4 750.4 512 750.4S849.4 596 902.9 535.7z m-85 2c-15.1 14.6-32.9 30.6-52.9 46.7-39.3 31.5-79 56.4-117.9 74.2-46.5 21.1-92 31.9-135.1 31.9-42.7 0-87.7-10.5-133.8-31.3-38.7-17.4-78.1-42-117.1-73.1-20.8-16.5-39.3-33.2-55-48.4-14.5-14.1-14.5-37.4 0-51.4 15.1-14.6 32.9-30.6 52.9-46.7 39.3-31.5 79-56.4 117.9-74.2 46.5-21.1 92-31.9 135.1-31.9 42.7 0 87.7 10.5 133.8 31.3 38.7 17.4 78.1 42 117.1 73.1 20.8 16.5 39.3 33.2 55 48.4 14.5 14.1 14.6 37.4 0 51.4z"  /><path fill="#333333" d="M512 394c-65.2 0-118 52.8-118 118s52.8 118 118 118 118-52.8 118-118-52.8-118-118-118z m0 176c-32 0-58-26-58-58s26-58 58-58 58 26 58 58-26 58-58 58z"  /></svg>