<?xml version="1.0" standalone="no"?><!DOCTYPE svg PUBLIC "-//W3C//DTD SVG 1.1//EN" "http://www.w3.org/Graphics/SVG/1.1/DTD/svg11.dtd"><svg class="icon" width="200px" height="200.00px" viewBox="0 0 1024 1024" version="1.1" xmlns="http://www.w3.org/2000/svg"><path fill="#333333" d="M182.4 527.9c4.9 2.4 10.1 4.4 15.5 6 1.8 0.6 3.5 1 4.9 1.3 1.4 0.3 3.2 0.8 5.2 1.1 5.6 1 11.3 1.5 17.2 1.5 5.8 0 11.6-0.5 17.2-1.5 1.7-0.3 3.2-0.6 4.4-0.9l1.6-0.4c1.1-0.3 2.6-0.6 4.1-1.1 5.3-1.6 10.4-3.6 15.3-5.9 5.4-2.6 10.6-5.7 16-9.7 1.5-1 2.7-2 3.8-2.9 1.9-1.5 3.8-3.3 5.9-5.3l0.6-0.6 2.6-2.6c0.7-0.8 1.4-1.5 2-2.3 0.5-0.6 1.1-1.2 1.6-1.8l0.3-0.3c1.5-1.6 2.7-3.3 3.6-4.6 3.9-5.4 7.1-10.6 9.6-15.9 2.4-4.9 4.5-10.1 6-15.5 0.6-1.9 1-3.7 1.3-5.1 0.3-1.5 0.7-3.1 1-4.9 1-5.6 1.5-11.4 1.5-17.3 0-5.8-0.5-11.6-1.5-17.2-0.3-1.7-0.6-3.2-0.9-4.4l-0.4-1.6c-0.3-1.2-0.6-2.6-1.1-4.1-1.6-5.3-3.6-10.5-5.9-15.3-2.6-5.4-5.7-10.6-9.7-16-1-1.4-2-2.7-2.9-3.8-1.5-1.9-3.3-3.8-5.3-5.9l-0.6-0.6-2.6-2.6c-0.8-0.7-1.5-1.4-2.3-2-0.6-0.5-1.2-1.1-1.8-1.6l-0.3-0.3c-1.6-1.5-3.3-2.7-4.6-3.6-5.4-3.9-10.6-7.1-15.9-9.6-4.9-2.4-10.1-4.4-15.5-6-1.8-0.6-3.5-1-4.9-1.3-1.4-0.3-3.2-0.8-5.2-1.1-11.1-2-23.2-2-34.4 0-1.7 0.3-3.2 0.6-4.4 0.9l-1.6 0.4c-1.2 0.3-2.6 0.6-4.1 1.1-5.3 1.6-10.5 3.6-15.3 5.9-5.4 2.6-10.6 5.7-16 9.7-1.4 1-2.7 2-3.8 2.9-1.9 1.5-3.8 3.3-5.9 5.3l-0.6 0.6-2.6 2.6c-0.7 0.8-1.4 1.5-2 2.3-0.5 0.6-1.1 1.2-1.6 1.8l-0.3 0.3c-1.5 1.6-2.7 3.3-3.6 4.6-3.9 5.4-7.1 10.6-9.6 15.9-2.4 4.9-4.5 10.1-6 15.5-0.6 1.8-1 3.5-1.3 4.9-0.3 1.4-0.8 3.2-1.1 5.2-1 5.6-1.5 11.3-1.5 17.2 0 5.8 0.5 11.6 1.5 17.2 0.3 1.7 0.6 3.2 0.9 4.4l0.4 1.6c0.3 1.2 0.6 2.6 1.1 4.1 1.6 5.3 3.6 10.5 5.9 15.3 2.6 5.4 5.7 10.6 9.7 16 0.4 0.6 0.9 1.2 1.3 1.7 0.9 1.2 2.5 1.4 3.7 0.5l13.6-10.9 13.6-10.9c1.1-0.9 1.3-2.4 0.5-3.5l-0.2-0.3c-2.5-3.5-4.5-6.7-6-9.8-1.4-3-2.7-6.3-3.7-9.8-0.2-0.5-0.3-1.2-0.5-2l-0.3-1.1c-0.2-0.7-0.3-1.3-0.4-1.7l-0.1-0.5c-0.6-3.3-0.9-6.8-0.9-10.4 0-3.6 0.3-7.1 0.9-10.4l0.1-0.5c0.1-0.6 0.4-1.7 0.4-2l0.1-0.4c0.2-0.7 0.4-1.6 0.5-2l0.3-0.9c0.9-3.1 2-6.1 3.4-8.9l0.2-0.3c1.5-3.1 3.5-6.4 6-9.8l0.2-0.3c0.4-0.6 0.6-0.9 0.8-1 0-0.1 0.1-0.1 0.1-0.2 0.6-0.7 1.2-1.4 1.8-2 0.5-0.6 1.1-1.2 1.6-1.8l0.2-0.3 0.7-0.7 1.2-1.2c1-1 1.8-1.7 2.6-2.3 0.7-0.6 1.5-1.2 2-1.5l0.3-0.2c3.5-2.5 6.7-4.5 9.8-6 3-1.4 6.3-2.7 9.8-3.8 0.5-0.2 1.2-0.3 2-0.5l1.1-0.3c0.7-0.2 1.3-0.3 1.7-0.4l0.5-0.1c6.7-1.2 14.1-1.2 20.8 0l0.5 0.1c0.6 0.1 1.7 0.4 2 0.4l0.4 0.1c0.7 0.2 1.6 0.4 2 0.5l0.9 0.3c3.1 0.9 6.1 2 8.9 3.4l0.3 0.2c3.1 1.5 6.4 3.5 9.8 6l0.3 0.2c0.6 0.4 0.9 0.6 1 0.8 0.1 0 0.1 0.1 0.2 0.1 0.7 0.6 1.4 1.2 2 1.8 0.6 0.5 1.2 1.1 1.8 1.6l0.3 0.2 0.7 0.7 1.2 1.2c1 1 1.7 1.8 2.3 2.6 0.6 0.7 1.2 1.5 1.5 2l0.2 0.3c2.5 3.5 4.5 6.7 6 9.8 1.4 3 2.7 6.3 3.7 9.8 0.2 0.5 0.3 1.2 0.5 2l0.3 1.1c0.2 0.7 0.3 1.3 0.4 1.7l0.1 0.5c0.6 3.3 0.9 6.8 0.9 10.4 0 3.6-0.3 7.1-0.9 10.4v0.2c-0.1 0.6-0.3 1.6-0.6 2.6-0.2 0.7-0.4 1.6-0.5 2l-0.3 0.9c-0.9 3.1-2 6.1-3.4 8.9l-0.2 0.3c-1.5 3.2-3.5 6.4-6 9.8l-0.2 0.3c-0.4 0.6-0.6 0.9-0.8 1 0 0.1-0.1 0.1-0.1 0.2-0.6 0.7-1.2 1.4-1.8 2-0.5 0.6-1.1 1.2-1.6 1.8l-0.2 0.3-0.7 0.7c-0.4 0.4-0.8 0.8-1.2 1.1-1 1-1.8 1.7-2.6 2.3-0.7 0.6-1.5 1.2-2 1.5l-0.3 0.2c-3.5 2.5-6.7 4.5-9.8 6-3 1.4-6.3 2.7-9.7 3.7h-0.1c-0.5 0.2-1.2 0.3-2 0.5l-1.1 0.3c-0.7 0.2-1.3 0.3-1.6 0.4l-0.5 0.1c-6.6 1.2-14.1 1.2-20.8 0l-0.5-0.1c-0.6-0.1-1.6-0.4-2-0.4l-0.4-0.1c-0.7-0.2-1.6-0.4-2-0.5l-1-0.3c-3.1-0.9-6.1-2-8.9-3.4l-0.3-0.2c-3.2-1.5-6.4-3.5-9.8-6l-0.3-0.2c-0.6-0.4-0.9-0.6-1-0.8-0.1 0-0.1-0.1-0.2-0.1-0.7-0.6-1.4-1.2-2-1.8-0.6-0.5-1.2-1.1-1.8-1.6l-0.3-0.2-0.7-0.7-1.2-1.2-0.8-0.8c-0.9-1-2.4-1.1-3.5-0.2l-13.7 11-15.5 12.5c1.5 1.9 3.3 3.8 5.3 5.8l0.6 0.6c0.7 0.7 1.6 1.6 2.7 2.6 0.7 0.7 1.5 1.4 2.2 2 0.6 0.5 1.2 1.1 1.8 1.6l0.3 0.3c1.6 1.5 3.3 2.7 4.7 3.6 5.3 4.1 10.5 7.2 15.8 9.8zM656.9 683.4c-2.7-15.7-11.5-25.4-24.7-27.5-13.2-2.1-29.1 3.9-44.7 16.7l-112.2 92.9c-4.8 4-9.6 5.7-13.6 5-4-0.8-6.6-3.9-7.1-8.9l-22-170.6c-2.1-16.1-10.6-26.9-23.6-29.5-12.8-2.7-29.2 2.9-44.8 15.3l-4.6 3.7c-0.2 0.2-0.4 0.3-0.5 0.6L171.7 856.3l-0.3 0.6-4.9 13.1c-7.1 19.2-1.9 34.9 11.9 34.9h463.7c13.7 0 30.8-15.8 38-35.1l6.4-17.1c0.2-0.4 0.2-0.9 0.1-1.4l-29.7-167.9zM639 855H211.5l0.1-0.1 164.2-241.3c0.2-0.4 0.6-0.7 1-0.9 3.1-1.6 6.1-2.2 8.7-1.6 3.9 0.8 6.4 4 7.1 8.8l22 170.4c2.1 16.4 10.8 27.3 24 29.8s29.8-3.5 45.6-16.5l112.2-92.8c4.7-3.9 9.5-5.7 13.4-5 3.9 0.6 6.6 3.5 7.3 8.2l24.4 138c0.3 1.5-0.9 3-2.5 3zM1002 0H196c-12.2 0-22 9.8-22 22v80c0 12.2 9.8 22 22 22h36c12.2 0 22-9.8 22-22s9.8-22 22-22h646c12.2 0 22 9.8 22 22v646c0 12.2-9.8 22-22 22s-22 9.8-22 22v36c0 12.2 9.8 22 22 22h80c12.2 0 22-9.8 22-22V22c0-12.2-9.8-22-22-22z"  /><path fill="#333333" d="M786.6 174H63.4C28.4 174 0 202.4 0 237.4v723.1c0 35 28.4 63.4 63.4 63.4h723.1c35 0 63.4-28.4 63.4-63.4V237.4c0.1-35-28.3-63.4-63.3-63.4zM770 770v110.6c0 35-28.4 63.4-63.4 63.4H143.4c-35 0-63.4-28.4-63.4-63.4V317.4c0-35 28.4-63.4 63.4-63.4h563.2c35 0 63.4 28.4 63.4 63.4V770z"  /></svg>