<?xml version="1.0" standalone="no"?><!DOCTYPE svg PUBLIC "-//W3C//DTD SVG 1.1//EN" "http://www.w3.org/Graphics/SVG/1.1/DTD/svg11.dtd"><svg class="icon" width="200px" height="200.00px" viewBox="0 0 1024 1024" version="1.1" xmlns="http://www.w3.org/2000/svg"><path fill="#333333" d="M1019.5 684.7L886.2 445.2c-6.2-11.1-17.9-18-30.6-18-12.5 0-20.8 13.1-15.4 24.4l58.4 121.6 37.3 71c12.2 23.4-4.7 51.4-31.1 51.4H673.4c-16.5 0-30.8 11.5-34.3 27.7-12.7 58.5-64.8 102.3-127.2 102.3s-114.5-43.8-127.2-102.3c-3.5-16.1-17.8-27.7-34.3-27.7H119c-26.4 0-43.3-28-31.1-51.4l37.3-71 58.5-121.8c5.4-11.2-2.8-24.1-15.2-24.1-12.7 0-24.4 6.9-30.6 18L4.4 684.7C1.5 689.9 0 695.8 0 701.8v287.1c0 19.4 15.7 35.1 35.1 35.1H989c19.4 0 35.1-15.7 35.1-35.1V701.8c0-6-1.6-11.8-4.6-17.1z"  /><path fill="#333333" d="M467.6 471.6c19.7 34.2 69.1 34.2 88.8 0l128.2-222c19.8-34.2-4.9-76.9-44.4-76.9H582V17c0-9.4-7.6-17-17-17H459c-9.4 0-17 7.6-17 17v155.7h-58.2c-39.5 0-64.2 42.8-44.4 76.9l128.2 222z"  /></svg>