<?xml version="1.0" standalone="no"?><!DOCTYPE svg PUBLIC "-//W3C//DTD SVG 1.1//EN" "http://www.w3.org/Graphics/SVG/1.1/DTD/svg11.dtd"><svg class="icon" width="200px" height="200.00px" viewBox="0 0 1024 1024" version="1.1" xmlns="http://www.w3.org/2000/svg"><path fill="#333333" d="M803.8 683c-40.7 0-80 14.6-110.9 41-27.3 23.4-46.5 54.8-54.9 89.5H358.2c-72.1 0-130.7-58.6-130.7-130.7s58.6-130.7 130.7-130.7h307.6c56.3 0 109.2-21.9 149.1-61.7 39.8-39.8 61.7-92.8 61.7-149.1s-21.9-109.2-61.7-149.1c-39.8-39.8-92.8-61.7-149.1-61.7H385.9C377.5 95.8 358.4 64.4 331 41 300.2 14.6 260.8 0 220.2 0c-94 0-170.5 76.5-170.5 170.5S126.2 341 220.2 341c40.7 0 80-14.6 110.9-41 27.3-23.4 46.5-54.8 54.9-89.5h279.9c72.1 0 130.7 58.6 130.7 130.7S738 471.9 665.9 471.9H358.2c-56.3 0-109.2 21.9-149.1 61.7-39.8 39.8-61.7 92.8-61.7 149.1s21.9 109.2 61.7 149.1 92.8 61.7 149.1 61.7h279.9c8.4 34.6 27.6 66.1 54.9 89.5 30.8 26.4 70.2 41 110.9 41 94 0 170.5-76.5 170.5-170.5S897.9 683 803.8 683z m90.4 170.5c0 24.1-9.4 46.8-26.5 63.9s-39.8 26.5-63.9 26.5-46.8-9.4-63.9-26.5-26.5-39.8-26.5-63.9 9.4-46.8 26.5-63.9 39.8-26.5 63.9-26.5 46.8 9.4 63.9 26.5 26.5 39.8 26.5 63.9z m-583.7-683c0 24.1-9.4 46.8-26.5 63.9s-39.8 26.5-63.9 26.5-46.8-9.4-63.9-26.5-26.5-39.8-26.5-63.9 9.4-46.8 26.5-63.9 39.8-26.5 63.9-26.5 46.8 9.4 63.9 26.5 26.5 39.8 26.5 63.9z" /></svg>