<?xml version="1.0" standalone="no"?><!DOCTYPE svg PUBLIC "-//W3C//DTD SVG 1.1//EN" "http://www.w3.org/Graphics/SVG/1.1/DTD/svg11.dtd"><svg class="icon" width="200px" height="200.00px" viewBox="0 0 1024 1024" version="1.1" xmlns="http://www.w3.org/2000/svg"><path fill="#333333" d="M1005.8 835h-94.5c-10.1 0-18.2-8.2-18.2-18.2v-33.5c0-10.1 8.2-18.2 18.2-18.2h24.5c10.1 0 18.2-8.2 18.2-18.2V277.3c0-10.1-8.2-18.2-18.2-18.2h-24.5c-10.1 0-18.2-8.2-18.2-18.2v-33.5c0-10.1 8.2-18.2 18.2-18.2h94.5c10.1 0 18.2 8.2 18.2 18.2v609.4c0 10-8.2 18.2-18.2 18.2zM18.2 835h94.5c10.1 0 18.2-8.2 18.2-18.2v-33.5c0-10.1-8.2-18.2-18.2-18.2H88.2c-10.1 0-18.2-8.2-18.2-18.2V277.3c0-10.1 8.2-18.2 18.2-18.2h24.5c10.1 0 18.2-8.2 18.2-18.2v-33.5c0-10.1-8.2-18.2-18.2-18.2H18.2c-10-0.1-18.2 8-18.2 18.1v609.4C0 826.8 8.2 835 18.2 835zM835 763V180.4c0-42.8-34.8-77.5-77.5-77.5h-491c-42.8 0-77.5 34.8-77.5 77.5v663.3c0 42.8 34.8 77.5 77.5 77.5h491c42.7 0 77.4-34.7 77.5-77.4V767c0.1-1.4 0.1-2.7 0-4z m-70-100.9l-83.5-108.6c-12.2-15.9-35.3-18.3-50.5-5.3l-79.8 68.1c-15.6 13.3-39.4 10.3-51.3-6.5l-89.6-127.2c-11.7-16.5-35-19.8-50.7-7L259 557.2V180.4c0-4.2 3.4-7.5 7.5-7.5v-0.1h491c4.2 0 7.5 3.4 7.5 7.5v481.8z"  /><path fill="#333333" d="M575.3 458.3c-13.6 0-27.4-2.6-40.8-8.1-55.1-22.6-81.5-85.7-58.9-140.8s85.7-81.5 140.8-58.9c26.6 10.9 47.4 31.6 58.5 58.2 11.2 26.6 11.3 56 0.4 82.6-17.1 41.6-57.5 67-100 67z"  /></svg>