<?xml version="1.0" standalone="no"?><!DOCTYPE svg PUBLIC "-//W3C//DTD SVG 1.1//EN" "http://www.w3.org/Graphics/SVG/1.1/DTD/svg11.dtd"><svg class="icon" width="200px" height="200.00px" viewBox="0 0 1024 1024" version="1.1" xmlns="http://www.w3.org/2000/svg"><path fill="#333333" d="M0.479571 0l0 1024 1023.040858 0L1023.520429 0 0.479571 0zM977.302237 469.388802l-42.170259 0 0 85.221507 42.170259 0 0 423.169722-0.000888 0L558.65025 977.780032l0-42.632068-85.221507 0 0 42.632068-428.505391 0L44.923351 554.611198 86.251697 554.611198l0-85.221507L44.922463 469.38969 44.922463 42.666704l428.505391 0 0 42.717325 85.221507 0 0-42.717325 418.651988 0L977.301349 469.388802zM196.362041 273.136885l0 343.941962c0 11.035457 8.939555 19.982117 19.964355 19.982117l35.719144 0c7.98219 36.495338 40.456238 63.815776 79.310353 63.815776 38.85234 0 71.328164-27.320438 79.310353-63.816664l215.458727 0c7.98219 36.495338 40.456238 63.816664 79.310353 63.816664 38.851452 0 71.326388-27.31955 79.310353-63.814l31.286666 0.003552c0.002664 0 0.006217 0 0.007993 0 4.346332 0 8.356077-1.405853 11.634032-3.767295 5.036382-3.627864 8.328546-9.530138 8.328546-16.21571 0-0.000888 0-0.001776 0-0.002664 0-0.000888 0-0.001776 0-0.002664L836.002918 480.603654l0 0c0-1.330365 0.682944-10.003492-6.634951-17.320499l-77.36898-76.647847c-5.264622-5.270838-12.568307-7.256617-19.371108-5.962664L621.103689 380.672645 621.103689 273.136885c0-11.039009-8.936891-19.982117-19.963467-19.982117L216.326395 253.154769C205.301596 253.154769 196.362041 262.096988 196.362041 273.136885zM705.436215 660.908066c-22.731656 0-41.227103-18.530971-41.227103-41.308808-0.000888-22.777837 18.494559-41.310584 41.227103-41.310584s41.227103 18.532747 41.227103 41.310584S728.167871 660.908066 705.436215 660.908066zM621.103689 420.638654l103.614824 0 70.55197 70.627458 0 105.824402-11.795666 0c-9.752161-33.940291-40.999751-58.770514-78.038603-58.770514-37.041516 0-68.28733 24.830222-78.038603 58.770514l-6.293923 0L621.103689 420.638654zM331.356781 660.908066c-22.732544 0-41.227103-18.530971-41.227103-41.308808 0-22.777837 18.495447-41.310584 41.227103-41.310584 22.732544 0 41.227103 18.532747 41.227103 41.310584S354.088436 660.908066 331.356781 660.908066zM236.329826 293.592356l343.732371 0L580.062198 597.09229 409.395383 597.09229c-9.751273-33.942067-40.999751-58.77229-78.039491-58.77229-37.043292 0-68.289106 24.83111-78.039491 58.774066l-16.986575 0L236.329826 293.592356z" /></svg>