<?xml version="1.0" standalone="no"?><!DOCTYPE svg PUBLIC "-//W3C//DTD SVG 1.1//EN" "http://www.w3.org/Graphics/SVG/1.1/DTD/svg11.dtd"><svg class="icon" width="200px" height="200.00px" viewBox="0 0 1024 1024" version="1.1" xmlns="http://www.w3.org/2000/svg"><path fill="#333333" d="M969.822709 453.49103C969.822709 203.036068 767.035308 0 516.88585 0 266.733727 0 63.946326 203.036068 63.946326 453.49103c0 131.159062 55.613339 249.312874 144.516885 332.113437l-69.080398 119.650251 137.318882-0.266428 67.207407 118.34564 73.513763-127.327824c32.007799 7.181129 65.291788 10.977731 99.462984 10.977731 34.351479 0 67.806871-3.836566 99.969198-11.091407l73.579482 127.4415 67.209183-118.34564 137.316218 0.266428L825.678824 785.255446C914.364786 702.471757 969.822709 584.466256 969.822709 453.49103zM344.190628 944.123931l-33.262676-58.572469-11.339185-19.968795-22.964337 0.044405-68.989812 0.134102 31.291107-54.196829c41.28927 32.176536 88.288984 57.351339 139.222956 73.742892L344.190628 944.123931zM516.88585 867.621731c-228.047461 0-413.578306-185.778623-413.578306-414.131589S288.838389 39.361218 516.88585 39.361218c228.046573 0 413.57653 185.776847 413.57653 414.129813S744.932422 867.621731 516.88585 867.621731zM826.708125 865.760286l-68.987148-0.133214-22.963449-0.044405-11.340073 19.967907-33.264452 58.574245-34.047751-58.970335c50.910881-16.447502 97.8804-41.674703 139.135035-73.89742L826.708125 865.760286zM357.975624 316.415486l49.259914 0 0 90.380446c0 72.789079-2.856999 93.57048-8.518598 128.437941 30.045999 39.394965 63.344198 81.019046 103.498484 119.139596l-35.00778 46.57787c-23.75474-20.060269-74.094577-76.695804-83.082089-100.273814-13.761906 38.764418-44.854967 68.948072-83.336972 100.273814-8.34098-10.32587-30.834626-29.508702-40.73954-39.649848 39.716455-27.608181 61.415258-49.683535 74.194931-84.545668 12.779674-30.505143 23.729874-82.047459 23.729874-154.703324L357.973848 316.415486zM261.691129 216.457833l234.625574 0 0 138.302002c38.410957-51.813185 51.550309-93.803161 70.003127-165.003439l53.218149 0c-2.508866 21.895959-13.952846 61.194122-24.762727 83.395586l176.347064 0c0 126.379339 0.095914 242.455899-2.722008 336.865628 0 63.909026-41.752855 93.639751-109.886544 90.740124-28.402137 0-48.503258 0-72.619453 0-4.26374-21.787612-11.74238-46.309666-13.136688-53.553849 24.121523 2.887194 47.078755 4.357878 81.145156 4.357878 42.588551 2.887194 63.872614-16.680183 63.872614-58.830904 2.83302-50.838945 4.261963-134.896162 4.261963-275.801168L576.310888 316.929692c-15.536318 30.340846-25.147272 45.726188-38.916282 64.216306-19.530965-0.230016-29.359502 0-41.077903 0l0 155.373835-43.93135 0L452.385353 262.79503 306.368478 262.79503l0 273.965477-44.677349 0L261.691129 216.457833zM617.37547 448.680225l40.257304-9.659799c6.284154 23.177479 15.10204 52.805186 26.419023 88.842267 6.28593 23.177479 11.324976 40.551264 15.10204 52.144444l-44.031704 9.659799-3.189146-17.038085-121.037453 0.035524-14.010572-30.712957c10.061218-6.429801 17.61357-15.440404 22.654392-27.033584 17.602025-45.047684 32.526446-90.050075 46.388706-145.428957l42.667592 7.726418c-18.879992 60.537821-47.231507 148.720234-47.231507 148.720234l58.314921-0.084369C639.679065 525.851159 627.436688 477.016642 617.37547 448.680225z" /></svg>