<?xml version="1.0" standalone="no"?><!DOCTYPE svg PUBLIC "-//W3C//DTD SVG 1.1//EN" "http://www.w3.org/Graphics/SVG/1.1/DTD/svg11.dtd"><svg class="icon" width="200px" height="200.00px" viewBox="0 0 1024 1024" version="1.1" xmlns="http://www.w3.org/2000/svg"><path fill="#333333" d="M841.4 128.8c-140.6-35.1-183.2-78-184.6-79.4h-11.5v715.4c-24.6-10.5-53.5-16.6-84.4-16.6-89.4 0-161.8 50.7-161.8 113.2s72.4 113.2 161.8 113.2 161.8-50.7 161.8-113.2V230.8c34.9 14.8 73.8 24.1 83 27.1 41.7 13.9 107.2 19.9 148.9 33.7 41.7 13.9 69.5 7.9 69.5 7.9-4.1-63.4-39.8-134.9-182.7-170.7z"  /><path fill="#333333" d="M460.6 671.8H39.7C17.8 671.8 0 654 0 632.1c0-21.9 17.8-39.7 39.7-39.7h420.9c21.9 0 39.7 17.8 39.7 39.7 0 21.9-17.8 39.7-39.7 39.7zM460.6 451.5H39.7C17.8 451.5 0 433.7 0 411.7 0 389.8 17.8 372 39.7 372h420.9c21.9 0 39.7 17.8 39.7 39.7 0 22-17.8 39.8-39.7 39.8zM460.6 231.1H39.7C17.8 231.1 0 213.3 0 191.4c0-21.9 17.8-39.7 39.7-39.7h420.9c21.9 0 39.7 17.8 39.7 39.7 0 21.9-17.8 39.7-39.7 39.7z"  /></svg>