<?xml version="1.0" standalone="no"?><!DOCTYPE svg PUBLIC "-//W3C//DTD SVG 1.1//EN" "http://www.w3.org/Graphics/SVG/1.1/DTD/svg11.dtd"><svg class="icon" width="200px" height="200.00px" viewBox="0 0 1024 1024" version="1.1" xmlns="http://www.w3.org/2000/svg"><path fill="#333333" d="M992.4 151.9H763.1c-24.6 0-39.8 26.8-27.2 47.9 5.7 9.6 16.1 15.5 27.2 15.5h166c17.5 0 31.7 14.2 31.7 31.7v462.3H788.2c-7.5 0-13.6 6.1-13.6 13.6v167.3H95.1c-17.5 0-31.7-14.2-31.7-31.7V247.1c0-17.5 14.2-31.7 31.7-31.7h183.3c11.2 0 21.6-5.9 27.3-15.5 12.6-21.2-2.7-48-27.3-48H236.1c-0.8 0-1.6 0-2.4 0.1h-202C14.2 152 0 166.2 0 183.7v738.1c0 17.5 14.2 31.7 31.7 31.7h781.8c8.3 0 16.2-3.2 22.1-8.9l178.9-173.7c6.1-5.9 9.6-14.1 9.6-22.7V183.6c0.1-17.5-14.1-31.7-31.7-31.7z m-41.1 592.2L809.9 881.3c-2.4 2.3-5.2 4.2-8.2 5.7V736.4h155.3c-1.5 2.8-3.5 5.4-5.7 7.7z"  /><path fill="#333333" d="M366.6 446.9h65.9c-11.4 98.9-76 181.6-164.5 218.6-10.9 4.6-9.6 20.3 1.9 23.1 20.4 5 41.7 7.6 63.5 7.6 141.7 0 257.8-110 267.5-249.3H675.1c45.4 0 73.5-49.4 50.3-88.4L571.1 99.1c-22.7-38.1-77.9-38.1-100.6 0L316.3 358.5c-23.2 39 4.9 88.4 50.3 88.4z"  /></svg>