<?xml version="1.0" standalone="no"?><!DOCTYPE svg PUBLIC "-//W3C//DTD SVG 1.1//EN" "http://www.w3.org/Graphics/SVG/1.1/DTD/svg11.dtd"><svg class="icon" width="200px" height="199.61px" viewBox="0 0 1026 1024" version="1.1" xmlns="http://www.w3.org/2000/svg"><path fill="#333333" d="M976 0H50C22.4 0 0 22.4 0 50v200c0 27.6 22.4 50 50 50h926c27.6 0 50-22.4 50-50V50c0-27.6-22.4-50-50-50z m-30 220H80V80h866v140zM253 384H51c-27.6 0-50 22.4-50 50v540c0 27.6 22.4 50 50 50h202c27.6 0 50-22.4 50-50V434c0-27.6-22.4-50-50-50z m-30 560H81V464h142v480zM975 384H433c-27.6 0-50 22.4-50 50v540c0 27.6 22.4 50 50 50h542c27.6 0 50-22.4 50-50V434c0-27.6-22.4-50-50-50z m-30 560H463V464h482v480z" /></svg>