<?xml version="1.0" standalone="no"?><!DOCTYPE svg PUBLIC "-//W3C//DTD SVG 1.1//EN" "http://www.w3.org/Graphics/SVG/1.1/DTD/svg11.dtd"><svg class="icon" width="200px" height="200.00px" viewBox="0 0 1024 1024" version="1.1" xmlns="http://www.w3.org/2000/svg"><path d="M512 0C229.2 0 0 229.2 0 512s229.2 512 512 512 512-229.2 512-512S794.8 0 512 0z m416.5 687.9c-22.8 53.8-55.4 102.2-96.9 143.7s-89.9 74.1-143.7 96.9C632.2 952.1 573 964 512 964s-120.2-11.9-175.9-35.5c-53.8-22.8-102.2-55.4-143.7-96.9s-74.1-89.9-96.9-143.7C71.9 632.2 60 573 60 512s11.9-120.2 35.5-175.9c22.8-53.8 55.4-102.2 96.9-143.7s89.9-74.1 143.7-96.9C391.8 71.9 451 60 512 60s120.2 11.9 175.9 35.5c53.8 22.8 102.2 55.4 143.7 96.9s74.1 89.9 96.9 143.7C952.1 391.8 964 451 964 512s-11.9 120.2-35.5 175.9z" fill="#040000" /><path d="M632.8 683.1H391.2c-10.8 0-19.6-8.7-19.6-19.6 0-10.8 8.7-19.6 19.6-19.6h241.7c10.8 0 19.6 8.7 19.6 19.6-0.1 10.9-8.8 19.6-19.7 19.6zM632.8 582.1H391.2c-10.8 0-19.6-8.7-19.6-19.6 0-10.8 8.7-19.6 19.6-19.6h241.7c10.8 0 19.6 8.7 19.6 19.6-0.1 10.9-8.8 19.6-19.7 19.6zM632.8 481H391.2c-10.8 0-19.6-8.7-19.6-19.6 0-10.8 8.7-19.6 19.6-19.6h241.7c10.8 0 19.6 8.7 19.6 19.6-0.1 10.9-8.8 19.6-19.7 19.6zM632.8 380H391.2c-10.8 0-19.6-8.7-19.6-19.6 0-10.8 8.7-19.6 19.6-19.6h241.7c10.8 0 19.6 8.7 19.6 19.6-0.1 10.9-8.8 19.6-19.7 19.6z"  /><path d="M717.8 239.8H306.2c-30.5 0-55.2 24.7-55.2 55.2v434c0 30.5 24.7 55.2 55.2 55.2h411.6c30.5 0 55.2-24.7 55.2-55.2V295c0-30.5-24.8-55.2-55.2-55.2z m16 489.2c0 8.9-7.2 16.1-16 16.1H306.2c-8.9 0-16-7.2-16-16.1V295c0-8.9 7.2-16.1 16-16.1h411.5c8.9 0 16 7.2 16 16.1v434z"  /></svg>