<?xml version="1.0" standalone="no"?><!DOCTYPE svg PUBLIC "-//W3C//DTD SVG 1.1//EN" "http://www.w3.org/Graphics/SVG/1.1/DTD/svg11.dtd"><svg class="icon" width="200px" height="200.00px" viewBox="0 0 1024 1024" version="1.1" xmlns="http://www.w3.org/2000/svg"><path fill="#333333" d="M209.279563 149.985353c-16.398399-16.398399-42.995801-16.398399-59.3942 0s-16.398399 42.995801 0 59.3942l131.487159 131.487159c16.398399 16.398399 42.995801 16.398399 59.3942 0s16.398399-42.995801 0-59.3942L209.279563 149.985353zM269.873645 511.950005c0-23.197735-18.798164-41.995899-41.995899-41.995899H41.995899c-23.197735 0-41.995899 18.798164-41.995899 41.995899s18.798164 41.995899 41.995899 41.995899h185.981838c23.097744 0 41.895909-18.798164 41.895908-41.995899zM340.766722 683.133288c-16.398399-16.398399-42.995801-16.398399-59.3942 0L149.985353 814.620447c-16.398399 16.398399-16.398399 42.995801 0 59.3942s42.995801 16.398399 59.3942 0l131.487159-131.487159c16.298408-16.498389 16.298408-42.995801-0.09999-59.3942zM511.950005 754.026365c-23.197735 0-41.995899 18.798164-41.995899 41.995898v185.981838c0 23.197735 18.798164 41.995899 41.995899 41.995899s41.995899-18.798164 41.995899-41.995899V795.922273c0-23.097744-18.798164-41.895909-41.995899-41.895908zM742.427497 683.133288c-16.398399-16.398399-42.995801-16.398399-59.394199 0s-16.398399 42.995801 0 59.3942L814.520457 873.914657c16.398399 16.398399 42.995801 16.398399 59.3942 0s16.398399-42.995801 0-59.3942L742.427497 683.133288zM981.904111 469.954106H795.922273c-23.197735 0-41.995899 18.798164-41.995899 41.995899s18.798164 41.995899 41.995899 41.995899h185.981838c23.197735 0 41.995899-18.798164 41.995899-41.995899s-18.798164-41.995899-41.995899-41.995899zM683.133288 340.766722c16.398399 16.398399 42.995801 16.398399 59.3942 0L873.914657 209.279563c16.398399-16.398399 16.398399-42.995801 0-59.3942s-42.995801-16.398399-59.3942 0L683.133288 281.472512c-16.398399 16.398399-16.398399 42.895811 0 59.29421zM511.950005 0c-23.197735 0-41.995899 18.798164-41.995899 41.995899v185.981838c0 23.197735 18.798164 41.995899 41.995899 41.995898s41.995899-18.798164 41.995899-41.995898V41.995899c0-23.197735-18.798164-41.995899-41.995899-41.995899z"  /></svg>