<?xml version="1.0" standalone="no"?><!DOCTYPE svg PUBLIC "-//W3C//DTD SVG 1.1//EN" "http://www.w3.org/Graphics/SVG/1.1/DTD/svg11.dtd"><svg class="icon" width="200px" height="200.00px" viewBox="0 0 1024 1024" version="1.1" xmlns="http://www.w3.org/2000/svg"><path fill="#333333" d="M512 0C229.2 0 0 229.2 0 512s229.2 512 512 512 512-229.2 512-512S794.8 0 512 0z m442 512c0 243.1-198.9 442-442 442S70 755.1 70 512 268.9 70 512 70s442 198.9 442 442z"  /><path fill="#333333" d="M493.2 502.2c-24.9-12.5-50.2-29.4-75.3-50.4l0.6-0.6c3-1.4 7.6-3.2 13.9-5.3 3.1-0.3 5.1-1.7 6.2-3 2.6-2.8 3.4-7.1 2.7-13.5l-0.1-0.7c-1.7-6.7-6-8.3-8.6-8.6-2.5-0.8-6.1-0.6-10.4 3.5-7 4.9-14.2 9.6-21.4 14-2.3-1.4-4.9-3.2-7.7-5.5l-0.3-0.2c0.9-0.4 1.9-1 2.9-1.9 4.6-3.6 7-4.8 8.1-5.1l0.6-0.3c7.2-3.6 7-9 6.4-11.4-0.3-2.9-2.2-5.9-6.3-10l-0.4-0.4-0.4-0.3c-3.7-2.4-7.2-3.2-10.5-2.2-3.2 0.9-5.7 3.4-7.5 7.2-7.5 8.2-14.2 13.8-20 16.6l-0.5 0.2-0.4 0.3c-6.1 4.9-8.8 9.5-8.2 14 0.5 3.9 3.2 6.9 8.1 9.1l0.3 0.1c10.9 3.9 21.5 9 31.6 15.2 4.9 4.7 9.7 9.3 14.5 14-1.8-0.6-4-1-6.6-1H322c-14.2 1.9-23.3 8.3-27.2 19.1l-0.3 0.8v0.9c0 2.4 1 4.6 2.8 6.1 2.2 1.8 5.5 2.7 10.3 2.7 3.6 0 8-0.5 13.5-1.5l0.4-0.1 0.3-0.1c4.6-1.5 19.3-3.2 63.1-2.2h10.9c8.7 0.6 14.7-0.8 18.4-4.2 2.4-2.3 3.8-5.3 3.8-8.9 0.3-2.2 0.1-4-0.4-5.4 10.5 10.2 20.7 20.3 30.6 30.2 5.7 8.5 14.3 12.7 25.7 12.7 6.2 0 13.1-1.2 20.9-3.7 9.7-1.7 11.1-6.8 11.1-9.8v-0.8l-0.3-0.8c-1.5-4.9-7.7-7.4-12.4-8.8z"  /><path fill="#333333" d="M467 605.7h-0.6l-0.5 0.1c-4.4 1-20 1.6-67.9-0.9 4.6-9.3 6.8-16.6 6.8-22.3v-0.6c-0.5-3.7-1.5-7-3.1-9.9 7.6-2.1 11.6-7.2 13.7-11.9l0.4-1v-3.9c1.7-5.1 2.4-8.9 2.4-11.8v-2.8c0.6-1.7 1-2.2 1-2.2l1.3-1.3 0.2-1.8c0.7-8.8-3-20-24.9-23.7l-0.4-0.1h-77.8l-0.4 0.1c-10.3 1.7-16.8 5.2-20.1 10.5-2.4 4.1-2.8 8.9-1 14.3l0.1 0.2c2.3 6 3.8 13.8 4.6 23.1l0.1 0.5c0.4 2.3 1.1 4.4 2 6.2h-0.1 0.1c1.3 2.5 3 4.5 5.2 5.9 1.6 1.1 3.5 1.8 5.5 2.1-0.3 2.2-0.2 4.7 0.7 7.8 1.3 8.6 3.4 16.5 6.5 23.5-34.6 0.7-49.7 1-51.6 1.1-6.1-0.5-11.1 0.9-14.7 3.9-3.7 3.1-5.8 7.8-6.3 14-0.6 5 1.7 7.8 3.2 9 2 1.7 4.7 2.5 8.2 2.5s7.9-0.8 13.3-2.5c10.3-2.3 33.6-3.5 69.6-3.5 43.9 0 76.4 1.2 96.5 3.6 8.6 3.1 21.6 3.8 35.3-9.9 3.4-3.4 9.1-9.1 5.4-13.8-2.7-4-8.5-4.5-12.7-4.5z m-93-21.6c0 7-0.9 13.9-2.5 20.4h-26.7c-0.8-1.9-1.9-7.2-1.2-20.4v-0.8c-0.4-3.9-1.6-7.3-3.5-10.1 10.5-0.6 22.3-0.7 35.4-0.5-1.3 3-2 6.7-1.5 11.4z m17.4-44.6l-0.2 0.5-0.1 0.6c-0.3 3.7-0.9 5.6-1.3 6.5l-0.2-0.1-34.1 1.3h-0.2c-25.1 1.8-30.3 1.7-31.4 1.6-0.3-1.3-0.8-3.6-1.2-8v-0.4l-0.1-0.4c-0.8-3-0.2-3.9-0.2-4 0.2-0.2 0.7-0.6 1.8-0.7h4.5c18 0 38.2-0.4 59.9-1.2 2.4 0 3 0.6 3.1 0.5 0.3 0 0.6 0.9-0.3 3.8zM249.4 531.1c35.6-36.4 65.5-65 88.9-85.2l0.5-0.4 0.4-0.5c3.5-5.1 4.9-10.1 3.9-14.8-1-5-4.4-9.4-10.2-13.1l-0.6-0.4-0.6-0.2c-12.3-3.8-21.6-8.4-27.6-13.7-4.1-3.5-8.3-5.2-12.2-4.8-3.6 0.3-6.8 2.1-9.5 5.4l-0.6 0.7-0.3 0.8c-2.3 6.2-2.4 11.5-0.4 15.7 1.8 3.6 5 6.3 9.6 7.8l0.6 0.2h0.6c8.5 0.7 15.6 2.7 21.3 6.1 0.6 1 0.5 1.7-0.3 2.8l-3.4 3.4-0.4 0.5c-5.7 7.4-8.8 11-10.6 12.7-7.5-6-12.6-11.6-15.2-16.8l-0.7-1.5-1.5-0.7c-10.8-5.3-17.7-1.8-21.6 2.2l-0.7 0.7-0.4 1c-2.1 5.3-2.3 10.1-0.6 14.2 1.8 4.1 5.4 7.3 10.7 9.4 5 2 9.4 4 13.1 6-11.1 9.8-30.9 24.4-59.1 43.7-4.4 2.4-10 6.2-10.2 12.1-0.1 3.7 1.9 6.9 6.1 9.6 2.9 2.5 7.5 5.3 13.3 5.3 5 0 10.9-2.1 17.5-8.1l0.2-0.1zM773 582.9l-0.6-0.2-0.6-0.1c-18.8-2.4-41.6-11.2-67.8-26.2l-0.4-0.3-0.5-0.2c-0.4-0.1-0.7-0.2-1.1-0.3 0.2-0.1 0.4-0.2 0.5-0.3l36.6-18.3c3.4-1.7 10.8-7 6.1-19.7l-0.4-1-0.8-0.8c-7.5-7.5-16.3-8.1-24.9-1.7l-17.6 17.6-0.3 0.3c-4.1 4.9-6.8 8-8.3 9.4l-0.3 0.3-0.2 0.3c-1.6 2.2-5.8 7.8-2.5 12 0.9 1.4 2.2 2.4 3.7 2.9h0.1c-0.7 0.4-1.4 1-2 1.6l-0.8 0.8-0.4 1.1c-1.5 4.5 0 8.8 4.1 11.6 22.5 20 39.6 32.2 52.5 37.3 2.6 1.2 5.3 1.7 8 1.7 7 0 14.3-3.8 21.9-11.4l0.4-0.4 0.3-0.5c2-3.4 2.6-6.6 1.6-9.5-0.4-1.7-2.1-4.3-6.3-6z"  /><path fill="#333333" d="M799.3 486.2l-0.3-0.1c-9-1.6-19.9-3.2-33.2-4.9h-0.3c-12.3-0.7-25-1.4-38-2.2 0.7-16.4 4.9-30.2 12.5-41.3l0.7-1 0.2-1.2c1.4-9.9-2.6-22.9-29.5-28.8l-1.1-0.2-1.1 0.2c-11 2.4-26.7 3.6-46.6 3.6-20.6 0-36.6-1.6-47.5-4.7l-1.3-0.4-1.3 0.4c-9.9 2.7-17.4 7-22.1 12.6l-0.4 0.4-0.3 0.5c-2.4 4.8-2.7 8.9-0.9 12.2 1.8 3.4 5.5 5.4 10.9 6l0.7 0.1 0.7-0.1c36.1-6.4 70.6-8.4 102.6-6h0.2c0.2 0.3 0.8 1.3 1.3 3.9 0 3.9-0.3 6-0.6 7-17.7 1.5-32.2 2.3-43.3 2.3-10.9 0-21.2-1.2-30.5-3.5l-0.6-0.1h-0.6c-9.3 0-17 2.9-22.8 8.5-6.1 4.8-5.7 10.3-3.3 13.9 1.6 2.4 5.4 6.1 13.3 4.7 17.2-0.8 33.1-1.6 47.2-2.4h35.3c0.4 0 0.7 0.1 0.8 0.1 0.1 0.2 0.3 0.8 0.3 2.2 0 0.5-0.2 2.2-1.2 7.8-0.2 1.2-0.4 2.3-0.5 3.3-25 0.7-51.9 1.1-80.1 1.1-30 0-50.8-0.4-61.9-1.2h-0.7l-0.7 0.1c-9.7 2-17.9 9.4-24.3 22.2l-0.4 0.8-0.1 0.9c-0.6 6 0.7 10.3 3.8 12.8 3 2.4 7.3 2.8 12.5 1l0.5-0.2 0.4-0.3c18.6-10.9 52.7-16 101.2-15.2h0.6c2.3-0.2 4.1 0 4.8 0.7s0.9 2.5 0.7 4.8v0.4c-0.8 49.9-1.2 82-1.2 95.4 0 18.7 5 28.2 14.8 28.2h0.4l0.4-0.1c10.1-1.7 12.1-16 12.7-26.6l1.2-98c0-3.1 1-4.3 4-4.8 34.9-0.7 65.8 4.1 91.8 14.3l0.4 0.2 0.4 0.1c7.1 1.4 17.4 0.3 25.9-13.1 2.4-3.6 3.3-5.7 3.3-7.7v-1.2l-0.5-1.1c-1.5-3.1-4.6-5.1-9.3-6.3z"  /><path fill="#333333" d="M638 558.2l-0.5 0.1-0.5 0.2c-28.4 13.4-50.2 19.9-64.8 19.1h-0.3c-4.7 0-8 1.4-9.8 4.3-1.7 2.8-1.6 6.2 0.4 10.3 6.4 12.8 14.3 16 20.8 16 2.8 0 5.4-0.6 7.4-1.4l0.5-0.2 0.4-0.2c3.6-2.2 9.6-5.7 20.7-12.2 9.6-5.6 20-12 32-19.7 4.9-3.2 5.9-7.4 5.9-10.3V563l-0.5-1.1c-1-2.1-4.1-5.6-11.7-3.7zM592.7 539.3c10.6 7.3 21.1 12.4 31.1 15 1.8 1.1 3.6 1.6 5.4 1.6 2.3 0 4.5-0.9 6.2-2.7l0.6-0.6 0.4-0.7c1.6-3.1 1.1-7-1.2-11.8l-0.5-0.9-0.8-0.7c-5.4-4.6-11.7-11.7-18.8-21.2l-0.2-0.3-0.3-0.3c-7.7-7.7-16.9-7.2-25.4 1.2l-0.3 0.3c-3.5 4.1-4.9 8.2-4.1 12 0.8 3.8 3.4 6.8 7.9 9.1z"  /></svg>