<?xml version="1.0" standalone="no"?><!DOCTYPE svg PUBLIC "-//W3C//DTD SVG 1.1//EN" "http://www.w3.org/Graphics/SVG/1.1/DTD/svg11.dtd"><svg class="icon" width="200px" height="200.00px" viewBox="0 0 1024 1024" version="1.1" xmlns="http://www.w3.org/2000/svg"><path fill="#333333" d="M604.2 655.1c0 5.7-0.5 11.3-1.5 16.8-0.3 1.4-0.5 2.7-0.8 4.1-0.7 3-1.5 5.9-2.5 8.8-0.5 1.4-1 2.8-1.6 4.2-1.7 4.2-3.6 8.2-5.8 12.1-1.5 2.6-3.1 5.1-4.8 7.5-1.3 1.8-2.6 3.6-4 5.3-9.5 11.6-21.9 20.8-35.9 26.6v139.6c0 19.5-15.8 35.3-35.3 35.3-19.5 0-35.3-15.8-35.3-35.3V740.4c-33.5-13.9-57-46.8-57-85.3 0-42.2 28.3-77.8 67-88.8 1.5-0.4 2.9-0.8 4.4-1.1s3-0.7 4.5-0.9c5.3-0.9 10.8-1.4 16.3-1.4 11.1 0 21.8 2 31.7 5.6 0.7 0.3 1.4 0.5 2.1 0.8 9.8 3.9 18.7 9.3 26.5 16.1 0.6 0.5 1.1 1 1.7 1.5 18.6 16.8 30.3 41.1 30.3 68.2z"  /><path fill="#333333" d="M867.6 454h-81.9V273.7C785.8 122.5 663.1 0 512 0S238.3 122.5 238.3 273.7V454h-81.9c-24.5 0-44.4 19.9-44.4 44.4v481.1c0 24.5 19.9 44.4 44.4 44.4h711.1c24.5 0 44.4-19.9 44.4-44.4V498.4c0.1-24.5-19.8-44.4-44.3-44.4zM318.3 273.7c0-51.7 20.1-100.4 56.7-136.9C411.6 100.1 460.3 80 512 80s100.4 20.1 136.9 56.7c36.6 36.6 56.7 85.2 56.7 136.9V454H318.3V273.7z m498.1 648.4c0 18.6-15.1 33.8-33.8 33.8H241.4c-18.6 0-33.8-15.1-33.8-33.8V555.9c0-17.2 12.8-31.3 29.4-33.5h550.1c16.6 2.2 29.4 16.3 29.3 33.5v366.2z"  /></svg>