<?xml version="1.0" standalone="no"?><!DOCTYPE svg PUBLIC "-//W3C//DTD SVG 1.1//EN" "http://www.w3.org/Graphics/SVG/1.1/DTD/svg11.dtd"><svg class="icon" width="200px" height="200.00px" viewBox="0 0 1024 1024" version="1.1" xmlns="http://www.w3.org/2000/svg"><path fill="#333333" d="M596.1 423c-6.9-45.6-35-69.3-84.4-71h-1.8c-52.3 3.8-80.1 58.1-83.3 163.1v1c3.3 103.4 31.1 156.9 83.4 160.7h1.7c50.7-1.7 79-25.2 84.7-70.6 1-7.7 7.5-13.6 15.3-13.6h70.1c9.2 0 16.4 8.1 15.3 17.3-11.1 86.5-73.2 130.4-186.2 132-120.2-3.2-182-78.4-185.3-225.7v-1c4.9-150.3 66.5-227.9 184.8-232.9h1c111.4 1.7 173.2 47.2 185.5 136.6 1.3 9.2-5.9 17.4-15.3 17.4h-70.2c-7.7-0.1-14.2-5.7-15.3-13.3z"  /><path fill="#333333" d="M512 65c60.4 0 118.9 11.8 174 35.1 53.2 22.5 101 54.7 142.1 95.8 41.1 41.1 73.3 88.9 95.8 142.1 23.3 55.1 35.1 113.6 35.1 174 0 60.4-11.8 118.9-35.1 174-22.5 53.2-54.7 101-95.8 142.1-41.1 41.1-88.9 73.3-142.1 95.8-55.1 23.3-113.6 35.1-174 35.1-60.4 0-118.9-11.8-174-35.1-53.2-22.5-101-54.7-142.1-95.8s-73.3-88.9-95.8-142.1C76.8 630.9 65 572.4 65 512c0-60.4 11.8-118.9 35.1-174 22.5-53.2 54.7-101 95.8-142.1 41.1-41.1 88.9-73.3 142.1-95.8C393.1 76.8 451.6 65 512 65m0-65C229.2 0 0 229.2 0 512s229.2 512 512 512 512-229.2 512-512S794.8 0 512 0z"  /></svg>