<?xml version="1.0" standalone="no"?><!DOCTYPE svg PUBLIC "-//W3C//DTD SVG 1.1//EN" "http://www.w3.org/Graphics/SVG/1.1/DTD/svg11.dtd"><svg class="icon" width="200px" height="200.00px" viewBox="0 0 1024 1024" version="1.1" xmlns="http://www.w3.org/2000/svg"><path d="M636 716.5c-25.4 5.2-53 5.1-78.8 1.6-24.5-3.4-36.5-25.1-27.9-48.4 8.1-21.8 19.3-43.5 33.6-61.7 30.7-39.2 65.2-75.3 96.3-114.1 19-23.8 36.1-49.5 51.1-76.1 10.8-19 6-41.8-13.2-51.4-32.4-16.1-67.1-27.4-101.2-39.8-3.9-1.4-10 2.9-17.5 5.5 9.7 9 17 15.7 26.9 24.8-101.2 17.3-197.5 42.7-290.8 77.3-0.4 2-1.2 3.5-0.7 4.2 13.7 21.6 7.3 38.2-12.7 51.8-7.6 5.2-14.6 11.3-20.3 19.4 61.5 18.5 116.3 8 168.5-27.2-3.2-4.9-6.2-9.1-9.3-13.8 19.9 3.4 31.7 14.6 33.2 32 0.4 3.9-2.1 8-3.2 11.9-2.9-3.2-6.1-6.2-8.6-9.7-1.5-2.2-2-5.1-3.2-9.1-62.2 42.7-129 53.3-202.9 31.1 0 14.8-0.7 27.4 0.2 39.9 0.7 10.8-3.6 15.3-12.8 21-21.4 13.3-43.4 27.1-60.8 44.9-21.4 21.6-13.4 47.9 15.3 59 32.7 12.7 66.9 12.8 101 8.7 40.3-5 80.5-11.7 124.3-18.3-51.8 24.6-102.3 42.2-155.9 49.4-37.3 5-74.8 7.7-111.9-3C101.6 711 78 670.7 91.9 617.1c13.1-50.3 44.3-90.5 78.3-127.5 113-123.4 255.8-186.1 421.2-198.5 38.6-2.9 77.6 2.2 113.7 18.9 50.9 23.6 71.9 73.5 47.4 124-16.3 33.5-38.8 64.2-61 94.4-21.9 29.9-47 57.4-70.2 86.2-6.8 8.5-13.1 17.8-18.2 27.5-9.6 18.4-3 30.9 17.8 28.9 43.7-4.4 88-7.8 130.1-18.9 61.8-16.3 122.1-39.1 183-59.1h0.1c1.5-0.5 2.5 1.6 1.1 2.5-95.4 51.8-192.4 98.7-299.2 121z"  /><path d="M967.1 142H56.9C25.5 142 0 167.5 0 198.9v612.9C0 850.6 31.4 882 70.2 882H953.8c38.8 0 70.2-31.4 70.2-70.2V198.9c0-31.4-25.5-56.9-56.9-56.9zM954 741.8c0 38.8-31.4 70.2-70.2 70.2H140.2c-38.8 0-70.2-31.4-70.2-70.2V382.4c0-8.5 9.3-13.6 16.5-9.2l104.3 44.1c13.2 5.6 28.4 3.5 39.5-5.5 0.2-0.2 0.5-0.4 0.7-0.6 23.1-18.5 17.9-54.9-9.4-66.3L75.4 284.1c-3.3-2.1-5.4-5.7-5.4-9.7v-5.5c0-31.4 25.5-56.9 56.9-56.9h770.2c28.2 0 51.7 20.6 56.1 47.6-3.2 22.8-16.4 43.3-36.4 55.5L810 356c-18.3 7-30.6 24-32.1 43.6-1 13.7-4.9 27.6-11.5 41.3-2.5 5.2 2.7 10.8 8.1 8.6l179.5-75v367.3z" fill="#060001" /></svg>