<?xml version="1.0" standalone="no"?><!DOCTYPE svg PUBLIC "-//W3C//DTD SVG 1.1//EN" "http://www.w3.org/Graphics/SVG/1.1/DTD/svg11.dtd"><svg class="icon" width="200px" height="200.00px" viewBox="0 0 1024 1024" version="1.1" xmlns="http://www.w3.org/2000/svg"><path fill="#333333" d="M776.6 880.5c-0.8-7.2-1.7-14.3-2.8-21.2-0.1-0.5-0.1-0.9-0.2-1.4-0.3-2-0.6-4-1-6-0.1-0.6-0.2-1.3-0.3-1.8-0.3-2-0.7-3.9-1-5.9-0.1-0.6-0.2-1.2-0.3-1.7-0.4-2.1-0.8-4-1.2-6.1 0-0.1-0.1-0.2-0.1-0.3-1.4-6.8-2.9-13.6-4.5-20.4-0.1-0.3-0.2-0.7-0.2-1-0.5-2-1-3.9-1.5-5.9-0.1-0.6-0.3-1.2-0.4-1.7-0.5-1.8-1-3.8-1.5-5.7-0.2-0.6-0.3-1.2-0.5-1.6-0.5-2-1.1-3.9-1.7-5.9-0.1-0.2-0.1-0.5-0.2-0.7-1.9-6.6-4-13-6.1-19.5-0.1-0.2-0.2-0.5-0.2-0.7-0.6-1.8-1.3-3.8-2-5.7-0.2-0.6-0.4-1-0.6-1.6-0.6-1.8-1.3-3.6-2-5.4-0.2-0.6-0.4-1-0.6-1.6-0.7-1.8-1.4-3.7-2.1-5.5l-0.3-0.9c-2.5-6.3-5-12.6-7.7-18.7 0-0.1-0.1-0.2-0.1-0.3l-2.4-5.4c-0.2-0.5-0.4-0.9-0.7-1.5-0.8-1.7-1.6-3.5-2.4-5.2-0.2-0.5-0.5-1-0.7-1.5-0.8-1.7-1.7-3.5-2.5-5.2-0.2-0.3-0.3-0.7-0.5-1-3.9-7.8-7.9-15.5-12.2-23-0.2-0.5-0.5-0.8-0.7-1.3-0.9-1.6-1.9-3.2-2.8-4.8-0.3-0.5-0.6-0.9-0.9-1.5-1-1.6-1.9-3.2-2.9-4.8-0.2-0.3-0.4-0.7-0.6-1-4.5-7.3-9.2-14.4-14-21.5-0.3-0.3-0.5-0.7-0.8-1.2-1.1-1.5-2.1-3-3.2-4.5-0.3-0.5-0.6-0.9-1-1.3l-3.3-4.5c-0.3-0.3-0.5-0.7-0.8-1-5.1-6.8-10.3-13.4-15.7-19.8-0.2-0.3-0.5-0.6-0.7-0.9-1.2-1.4-2.4-2.9-3.6-4.3-0.3-0.3-0.7-0.8-1-1.2-1.2-1.4-2.4-2.8-3.7-4.2l-0.9-0.9c-5.6-6.2-11.4-12.2-17.4-18.1-0.2-0.2-0.4-0.5-0.6-0.7-1.3-1.3-2.7-2.7-4-3.9l-1-1c-1.3-1.3-2.7-2.5-4-3.8-0.3-0.2-0.6-0.6-0.9-0.8-6.2-5.7-12.5-11.1-19-16.3-0.2-0.1-0.3-0.2-0.5-0.3-1.5-1.2-2.9-2.3-4.4-3.5-0.4-0.2-0.7-0.6-1.1-0.8-1.5-1.2-2.9-2.2-4.4-3.3-0.3-0.2-0.7-0.5-1-0.7-1.5-1.2-3.1-2.3-4.6-3.3 0 0-0.1 0-0.1-0.1-5.2-3.8-10.5-7.4-15.8-10.8-0.1 0-0.2-0.1-0.3-0.1-1.6-1-3.2-2.1-4.8-3-0.4-0.2-0.7-0.5-1.1-0.7-1.5-0.9-3.1-2-4.7-2.9-0.4-0.2-0.7-0.5-1.1-0.7-1.6-0.9-3.2-2-4.9-2.9-0.1-0.1-0.3-0.1-0.4-0.2-5.5-3.1-11.1-6.2-16.7-9.1-9.7-5-19.6-9.5-29.7-13.4 14.2-12.9 26.9-27.9 37.7-44.5 0.2-0.2 0.4-0.6 0.6-0.8 0.8-1.2 1.5-2.3 2.2-3.6 0.2-0.2 0.3-0.6 0.5-0.8 2.3-3.7 4.5-7.6 6.6-11.4 0.2-0.3 0.4-0.7 0.6-1 0.6-1.2 1.2-2.3 1.8-3.5 0.2-0.5 0.5-0.9 0.7-1.4 0.6-1.2 1.2-2.3 1.8-3.6 0.1-0.2 0.2-0.5 0.4-0.7 1.2-2.4 2.3-4.8 3.4-7.3 0.2-0.5 0.4-0.9 0.6-1.4 0.5-1.2 0.9-2.2 1.4-3.3 0.3-0.7 0.6-1.3 0.8-2 0.4-1 0.9-2.2 1.3-3.2 0.3-0.7 0.6-1.4 0.8-2.2 0.7-1.8 1.4-3.6 2-5.4 0.3-0.9 0.6-1.7 0.9-2.7 0.3-0.9 0.7-2 1-2.9s0.6-1.7 0.9-2.7c0.3-0.9 0.6-2 0.9-2.9 0.3-0.9 0.6-2 0.9-2.9 0.3-0.9 0.5-1.8 0.8-2.8 0.4-1.6 0.9-3.1 1.3-4.7 0.2-0.9 0.5-1.8 0.7-2.8 0.3-1.3 0.6-2.4 0.9-3.7 0.2-0.8 0.4-1.7 0.6-2.5 0.3-1.2 0.5-2.3 0.8-3.5 0.2-0.8 0.3-1.6 0.5-2.4 0.3-1.5 0.6-2.9 0.8-4.4 0.1-0.6 0.2-1 0.3-1.6 0.3-2 0.7-3.9 1-5.9l0.3-2.1 0.6-4.2c0.1-0.8 0.2-1.5 0.3-2.3 0.2-1.5 0.3-3 0.5-4.4 0.1-0.6 0.1-1.2 0.2-1.8 0.2-2.1 0.4-4.2 0.5-6.1 0-0.5 0.1-1 0.1-1.5l0.3-4.8c0-0.7 0.1-1.4 0.1-2.1 0.1-1.5 0.1-3 0.2-4.5 0-0.7 0-1.3 0.1-2 0-2.1 0.1-4.3 0.1-6.3 0-2.5 0-5.2-0.1-7.7 0-0.7 0-1.4-0.1-2.1-0.1-2.1-0.2-4.2-0.3-6.2 0-0.5-0.1-1-0.1-1.5-0.2-2.5-0.4-5.1-0.6-7.6 0-0.6-0.1-1-0.2-1.6-0.2-2.1-0.4-4.2-0.7-6.2-0.1-0.6-0.1-1.2-0.2-1.7-0.3-2.5-0.7-5.1-1.1-7.6-0.4-2.5-0.8-5-1.3-7.5l-0.3-1.5c-0.5-2.4-0.9-4.7-1.5-7.2 0-0.1 0-0.1-0.1-0.2-0.6-2.5-1.2-5.1-1.8-7.6-0.1-0.2-0.1-0.6-0.2-0.8-0.6-2.3-1.2-4.6-1.9-6.9-0.1-0.2-0.1-0.5-0.2-0.7-1.4-5.1-3-10-4.8-14.9-0.1-0.2-0.1-0.3-0.2-0.6-1.8-5-3.7-9.8-5.7-14.5-33.5-78.9-103.6-133-184.7-133C276.1 87.2 184 193.5 184 324.5c0 75.8 30.8 143.3 78.7 186.6C109.9 572.4 0 739.8 0 936.8h779.7c0-19.1-1.1-37.9-3.1-56.3z"  /><path fill="#333333" d="M804 514.8c-3.4-1.5-4.2-6.6-1.5-9.3 37.9-37.7 61.9-93.5 61.9-155.8 0-113.7-79.9-205.9-178.5-205.9-12.7 0-25.1 1.5-37.1 4.5-5.4 1.3-8.2 8.2-5.5 13.8 5.1 10.5 9.6 21.3 13.7 32.5 15.1 41.3 22.8 85.1 22.8 130.2 0 52.1-10.2 102.2-30.2 148.7-1 2.5-0.3 5.7 1.8 7.2 7.2 5.5 14.4 11.3 21.3 17.3 38.7 33.2 72.7 73 101 118 28.7 45.7 51 95.9 66.3 149.3 7 24.5 12.5 49.5 16.4 74.9 3.6 23.3 21.3 40.3 41.8 40.3H1024c0-167.5-91.5-310.4-220-365.7z"  /></svg>