<?xml version="1.0" standalone="no"?><!DOCTYPE svg PUBLIC "-//W3C//DTD SVG 1.1//EN" "http://www.w3.org/Graphics/SVG/1.1/DTD/svg11.dtd"><svg class="icon" width="200px" height="200.00px" viewBox="0 0 1024 1024" version="1.1" xmlns="http://www.w3.org/2000/svg"><path fill="#333333" d="M0 66.4v891.1c0 36.7 29.7 66.4 66.4 66.4h891.1c36.7 0 66.4-29.7 66.4-66.4V66.4C1024 29.7 994.3 0 957.6 0H66.4C29.7 0 0 29.7 0 66.4zM776 112c0-18.8 15.2-34 34-34s34 15.2 34 34-15.2 34-34 34-34-15.2-34-34z m-136 0c0-18.8 15.2-34 34-34s34 15.2 34 34-15.2 34-34 34-34-15.2-34-34z m-136 0c0-18.8 15.2-34 34-34s34 15.2 34 34-15.2 34-34 34-34-15.2-34-34z m327.6 812H192.4c-43.4 0-78.7-35.2-78.7-78.7V302.7c0-43.4 35.2-78.7 78.7-78.7h639.1c43.4 0 78.7 35.2 78.7 78.7v542.7c0 43.4-35.2 78.6-78.6 78.6z"  /><path fill="#333333" d="M564.5 538.2l90-52c3.1-1.8 5-5.1 5-8.6v-98.5c0-5.5-4.5-10-10-10h-340c-5.5 0-10 4.5-10 10V723c0 3.7 2.1 7.2 5.5 8.9l240.1 121.9c6.6 3.4 14.5-1.4 14.5-8.9V739.1c0-5.5 4.5-10 10-10h80.1c5.5 0 10-4.5 10-10v-98.5c0-3.6-1.9-6.8-5-8.6l-90-52c-3.1-1.8-5-5.1-5-8.6v-4.7c-0.2-3.5 1.7-6.8 4.8-8.5z m-59.4 250.4L345 707.3c-3.3-1.7-5.5-5.1-5.5-8.9V450.5c0-7.4 7.8-12.2 14.5-8.9l160.1 81.3c3.3 1.7 5.5 5.1 5.5 8.9v247.9c-0.1 7.5-7.9 12.3-14.5 8.9z"  /><path fill="#333333" d="M702 522.2v-17.8c0-7.7-8.3-12.5-14.9-8.6l-77.5 44.7c-6.6 3.8-6.6 13.4 0 17.2l77.5 44.7c6.6 3.8 14.9-1 14.9-8.6V576c0-5.5 4.5-10 10-10h42.6c5.5 0 10-4.5 10-10v-14.1c0-5.5-4.5-10-10-10H712c-5.6 0.2-10-4.2-10-9.7z"  /></svg>