<?xml version="1.0" standalone="no"?><!DOCTYPE svg PUBLIC "-//W3C//DTD SVG 1.1//EN" "http://www.w3.org/Graphics/SVG/1.1/DTD/svg11.dtd"><svg class="icon" width="200px" height="200.00px" viewBox="0 0 1024 1024" version="1.1" xmlns="http://www.w3.org/2000/svg"><path fill="#333333" d="M888.5 0h-30c-8.3 0-15 6.7-15 15v30c0 8.3 6.7 15 15 15h30c8.3 0 15-6.7 15-15V15c0-8.3-6.7-15-15-15zM738 60h30c8.3 0 15-6.7 15-15V15c0-8.3-6.7-15-15-15h-30c-8.3 0-15 6.7-15 15v30c0 8.3 6.7 15 15 15zM647.5 0h-30c-8.3 0-15 6.7-15 15v30c0 8.3 6.7 15 15 15h30c8.3 0 15-6.7 15-15V15c0-8.3-6.7-15-15-15zM497 60h30c8.3 0 15-6.7 15-15V15c0-8.3-6.7-15-15-15h-30c-8.3 0-15 6.7-15 15v30c0 8.3 6.7 15 15 15zM376.5 60h30c8.3 0 15-6.7 15-15V15c0-8.3-6.7-15-15-15h-30c-8.3 0-15 6.7-15 15v30c0 8.3 6.7 15 15 15zM256 60h30c8.3 0 15-6.7 15-15V15c0-8.3-6.7-15-15-15h-30c-8.3 0-15 6.7-15 15v30c0 8.3 6.7 15 15 15zM135.5 60h30c8.3 0 15-6.7 15-15V15c0-8.3-6.7-15-15-15h-30c-8.3 0-15 6.7-15 15v30c0 8.3 6.7 15 15 15zM45 0H15C6.7 0 0 6.7 0 15v30c0 8.3 6.7 15 15 15h30c8.3 0 15-6.7 15-15V15c0-8.3-6.7-15-15-15zM45 120.5H15c-8.3 0-15 6.7-15 15v30c0 8.3 6.7 15 15 15h30c8.3 0 15-6.7 15-15v-30c0-8.3-6.7-15-15-15zM45 241H15c-8.3 0-15 6.7-15 15v30c0 8.3 6.7 15 15 15h30c8.3 0 15-6.7 15-15v-30c0-8.3-6.7-15-15-15zM45 361.5H15c-8.3 0-15 6.7-15 15v30c0 8.3 6.7 15 15 15h30c8.3 0 15-6.7 15-15v-30c0-8.3-6.7-15-15-15zM45 482H15c-8.3 0-15 6.7-15 15v30c0 8.3 6.7 15 15 15h30c8.3 0 15-6.7 15-15v-30c0-8.3-6.7-15-15-15zM45 602.5H15c-8.3 0-15 6.7-15 15v30c0 8.3 6.7 15 15 15h30c8.3 0 15-6.7 15-15v-30c0-8.3-6.7-15-15-15zM45 723H15c-8.3 0-15 6.7-15 15v30c0 8.3 6.7 15 15 15h30c8.3 0 15-6.7 15-15v-30c0-8.3-6.7-15-15-15zM45 843.5H15c-8.3 0-15 6.7-15 15v30c0 8.3 6.7 15 15 15h30c8.3 0 15-6.7 15-15v-30c0-8.3-6.7-15-15-15zM165.5 964h-30c-8.3 0-15 6.7-15 15v30c0 8.3 6.7 15 15 15h30c8.3 0 15-6.7 15-15v-30c0-8.3-6.7-15-15-15zM45 964H15c-8.3 0-15 6.7-15 15v30c0 8.3 6.7 15 15 15h30c8.3 0 15-6.7 15-15v-30c0-8.3-6.7-15-15-15zM286 964h-30c-8.3 0-15 6.7-15 15v30c0 8.3 6.7 15 15 15h30c8.3 0 15-6.7 15-15v-30c0-8.3-6.7-15-15-15zM406.5 964h-30c-8.3 0-15 6.7-15 15v30c0 8.3 6.7 15 15 15h30c8.3 0 15-6.7 15-15v-30c0-8.3-6.7-15-15-15zM527 964h-30c-8.3 0-15 6.7-15 15v30c0 8.3 6.7 15 15 15h30c8.3 0 15-6.7 15-15v-30c0-8.3-6.7-15-15-15zM647.5 964h-30c-8.3 0-15 6.7-15 15v30c0 8.3 6.7 15 15 15h30c8.3 0 15-6.7 15-15v-30c0-8.3-6.7-15-15-15zM768 964h-30c-8.3 0-15 6.7-15 15v30c0 8.3 6.7 15 15 15h30c8.3 0 15-6.7 15-15v-30c0-8.3-6.7-15-15-15zM888.5 964h-30c-8.3 0-15 6.7-15 15v30c0 8.3 6.7 15 15 15h30c8.3 0 15-6.7 15-15v-30c0-8.3-6.7-15-15-15zM1009 843.5h-30c-8.3 0-15 6.7-15 15v30c0 8.3 6.7 15 15 15h30c8.3 0 15-6.7 15-15v-30c0-8.3-6.7-15-15-15zM1009 964h-30c-8.3 0-15 6.7-15 15v30c0 8.3 6.7 15 15 15h30c8.3 0 15-6.7 15-15v-30c0-8.3-6.7-15-15-15zM1009 723h-30c-8.3 0-15 6.7-15 15v30c0 8.3 6.7 15 15 15h30c8.3 0 15-6.7 15-15v-30c0-8.3-6.7-15-15-15zM1009 602.5h-30c-8.3 0-15 6.7-15 15v30c0 8.3 6.7 15 15 15h30c8.3 0 15-6.7 15-15v-30c0-8.3-6.7-15-15-15zM1009 482h-30c-8.3 0-15 6.7-15 15v30c0 8.3 6.7 15 15 15h30c8.3 0 15-6.7 15-15v-30c0-8.3-6.7-15-15-15zM1009 361.5h-30c-8.3 0-15 6.7-15 15v30c0 8.3 6.7 15 15 15h30c8.3 0 15-6.7 15-15v-30c0-8.3-6.7-15-15-15zM1009 241h-30c-8.3 0-15 6.7-15 15v30c0 8.3 6.7 15 15 15h30c8.3 0 15-6.7 15-15v-30c0-8.3-6.7-15-15-15zM1009 120.5h-30c-8.3 0-15 6.7-15 15v30c0 8.3 6.7 15 15 15h30c8.3 0 15-6.7 15-15v-30c0-8.3-6.7-15-15-15zM1009 0h-30c-8.3 0-15 6.7-15 15v30c0 8.3 6.7 15 15 15h30c8.3 0 15-6.7 15-15V15c0-8.3-6.7-15-15-15zM769.5 402.5l123.6-123.6c5.3-5.3 5.3-13.9 0-19.3l-0.7-0.7c-5.3-5.3-13.9-5.3-19.3 0L769.5 362.5c-5.3 5.3-13.9 5.3-19.3 0L713.7 326c-5.3-5.3-13.9-5.3-19.3 0l-0.7 0.7c-5.3 5.3-5.3 13.9 0 19.3l56.5 56.5c5.3 5.3 13.9 5.3 19.3 0zM146.9 280.7v100c0 23.2 18.8 42 42 42h388c23.2 0 42-18.8 42-42v-100c0-23.2-18.8-42-42-42h-388c-23.2 0-42 18.8-42 42z m50 50c0-23.2 18.8-42 42-42h288c23.2 0 42 18.8 42 42s-18.8 42-42 42h-288c-23.2 0-42-18.8-42-42zM618.9 743.3v-100c0-23.2-18.8-42-42-42h-388c-23.2 0-42 18.8-42 42v100c0 23.2 18.8 42 42 42h388c23.2 0 42-18.8 42-42z m-50-50c0 23.2-18.8 42-42 42h-288c-23.2 0-42-18.8-42-42s18.8-42 42-42h288c23.2 0 42 18.8 42 42zM866.6 766.5c5.5-5.5 5.5-14.5 0-20l-43.2-43.2c-5.5-5.5-5.5-14.5 0-20l43.2-43.2c5.5-5.5 5.5-14.5 0-20s-14.5-5.5-20 0l-43.2 43.2c-5.5 5.5-14.5 5.5-20 0l-43.2-43.2c-5.5-5.5-14.5-5.5-20 0s-5.5 14.5 0 20l43.2 43.2c5.5 5.5 5.5 14.5 0 20l-43.2 43.2c-5.5 5.5-5.5 14.5 0 20s14.5 5.5 20 0l43.2-43.2c5.5-5.5 14.5-5.5 20 0l43.2 43.2c5.5 5.5 14.5 5.5 20 0z" /></svg>