<?xml version="1.0" standalone="no"?><!DOCTYPE svg PUBLIC "-//W3C//DTD SVG 1.1//EN" "http://www.w3.org/Graphics/SVG/1.1/DTD/svg11.dtd"><svg class="icon" width="200px" height="200.00px" viewBox="0 0 1024 1024" version="1.1" xmlns="http://www.w3.org/2000/svg"><path fill="#333333" d="M512 0C229.2 0 0 229.2 0 512s229.2 512 512 512 512-229.2 512-512S794.8 0 512 0z m6.9 855.4c-24.4-3-38.2-16.8-41.2-41.2 0-3 1.5-22.9 4.6-59.5 3-64.1 6.1-108.3 9.2-132.8-3.1-112.9-12.2-198.4-27.5-256.4 3-12.2 10.7-19.8 22.9-22.9 33.6 6.1 59.5 21.4 77.8 45.8V406.7c-3.1 9.2-6.1 36.6-9.2 82.4-3.1 48.8-4.6 93.1-4.6 132.8 0 36.6 4.6 90 13.7 160.2 3.1 39.7-12.2 64.1-45.7 73.3z m-9.2-563.1c-36.6 0-54.9-19.8-54.9-59.5s18.3-61 54.9-64.1c33.6 6.1 53.4 27.5 59.5 64.1-3 39.6-22.9 59.5-59.5 59.5z" /></svg>