<?xml version="1.0" standalone="no"?><!DOCTYPE svg PUBLIC "-//W3C//DTD SVG 1.1//EN" "http://www.w3.org/Graphics/SVG/1.1/DTD/svg11.dtd"><svg class="icon" width="200px" height="200.00px" viewBox="0 0 1024 1024" version="1.1" xmlns="http://www.w3.org/2000/svg"><path fill="#333333" d="M512 0C509.22737 0 233.998135 0.744223 0.474686 62.806013l0 391.878616 0 56.266976 0 0.555059c0.426285 5.818792 7.917359 93.944367 71.873454 198.890444 38.799054 63.68345 90.436396 120.723068 153.473313 169.588668 78.332562 60.735866 174.603736 108.920298 286.177659 143.20961 111.247992-34.224481 207.295367-82.192219 285.488498-142.665208 62.998729-48.715512 114.646728-105.606819 153.524823-169.071798 64.377051-105.154779 72.076827-194.23772 72.511993-199.957933l0-0.555059 0-56.266976L1023.524426 62.806013C790.008081 0.744223 514.783287 0 512 0L512 0zM980.89147 454.684629l0 54.971247c-1.121663 11.583411-10.407574 88.34227-66.23672 179.533546-36.173848 59.059144-84.369825 112.091682-143.250462 157.618048-71.129231 55.015652-158.355167 99.290694-259.414056 131.706128-101.271144-32.459838-188.700453-76.903618-260.048155-132.21767C192.992168 800.596383 144.816616 747.411093 108.751116 688.213406 53.085379 596.86849 44.159146 521.011047 43.107642 509.730476l0-55.045847L43.107642 96.028724C262.681798 43.616964 508.546202 42.640061 511.999112 42.634732c3.447581 0.005329 249.31465 0.976903 468.89147 53.393992l0 358.655904L980.89147 454.684629zM342.969055 189.08855c-17.927067 73.896532-37.434053 129.40774-83.218855 191.871837 0 14.192631 0 51.956168 0 78.894725 30.397684-36.690719 49.512133-58.388633 64.44277-87.874244l0 328.753777 42.689794 0 0-412.53746c9.666904-29.702306 16.259226-55.641758 21.61621-99.109523L342.969055 189.08855 342.969055 189.08855zM772.431811 380.812075 772.431811 189.203114 473.387446 189.203114l0 191.608961 128.214142 0 0 64.185223-192.254605 0 0 43.264391 151.899611 0c-38.49355 59.944574-64.484511 90.530534-130.121768 125.420198l20.907511 39.105446c66.818422-35.04064 122.691085-94.845783 149.568364-161.234368l0 209.206545 41.985536 0L643.586235 491.553854c30.708517 67.039557 79.319234 122.663554 146.355239 157.554994l24.768944-38.880759c-58.640852-27.924342-95.186811-64.693213-130.090684-121.964624l151.885401 0 0-43.264391L643.586235 444.999075l0-64.185223 128.844688 0L772.431811 380.812075 772.431811 380.812075zM515.761078 338.553895 515.761078 232.096282l214.205627 0 0 106.457613L515.761078 338.553895z" /></svg>