<?xml version="1.0" standalone="no"?><!DOCTYPE svg PUBLIC "-//W3C//DTD SVG 1.1//EN" "http://www.w3.org/Graphics/SVG/1.1/DTD/svg11.dtd"><svg class="icon" width="200px" height="200.00px" viewBox="0 0 1024 1024" version="1.1" xmlns="http://www.w3.org/2000/svg"><path fill="#333333" d="M689.8 76.3c-12.3 3.1-25.2 3.1-37.5 0L388 9v-0.2L353.3 0l-0.3 0.1-0.3-0.1L318 8.8V9L58.5 75.1C24.1 83.8 0 115.3 0 151.3v837.6c0 22.3 20.6 38.7 41.9 33.2l292.4-74.5c12.3-3.1 25.2-3.1 37.5 0L636 1015v0.2l34.7 8.8 0.3-0.1 35-8.9 259.5-66.1c34.4-8.8 58.5-40.2 58.5-76.2V35.1c0-22.3-20.6-38.7-41.9-33.2L689.8 76.3z m-430.3 817l-147.7 37.6C90.6 936.3 70 920 70 897.7V206.9c0-36 24.1-67.5 58.5-76.2l147.7-37.6c21.3-5.4 41.9 10.9 41.9 33.2v690.8c-0.1 36.1-24.2 67.5-58.6 76.2z m334.6 37.6l-147.7-37.6c-34.4-8.8-58.5-40.2-58.5-76.2V126.3c0-22.3 20.6-38.7 41.9-33.2l147.7 37.6c34.4 8.8 58.5 40.2 58.5 76.2v690.8c0 22.3-20.6 38.6-41.9 33.2z m301.4-37.6l-147.7 37.6c-21.3 5.4-41.9-10.9-41.9-33.2V206.9c0-36 24.1-67.5 58.5-76.2l147.7-37.6c21.3-5.4 41.9 10.9 41.9 33.2v690.8c0 36.1-24.1 67.5-58.5 76.2z"  /></svg>