<?xml version="1.0" standalone="no"?><!DOCTYPE svg PUBLIC "-//W3C//DTD SVG 1.1//EN" "http://www.w3.org/Graphics/SVG/1.1/DTD/svg11.dtd"><svg class="icon" width="200px" height="200.00px" viewBox="0 0 1024 1024" version="1.1" xmlns="http://www.w3.org/2000/svg"><path fill="#333333" d="M30 833c-16.6 0-30-13.4-30-30V221c0-16.6 13.4-30 30-30s30 13.4 30 30v582c0 16.6-13.4 30-30 30zM994 849c-16.6 0-30-13.4-30-30V237c0-16.6 13.4-30 30-30s30 13.4 30 30v582c0 16.6-13.4 30-30 30zM833 30c0 16.6-13.4 30-30 30H221c-16.6 0-30-13.4-30-30s13.4-30 30-30h582c16.6 0 30 13.4 30 30zM833 994c0 16.6-13.4 30-30 30H221c-16.6 0-30-13.4-30-30s13.4-30 30-30h582c16.6 0 30 13.4 30 30zM783 192H241c-27.6 0-50 22.4-50 50v540c0 27.6 22.4 50 50 50h542c27.6 0 50-22.4 50-50V242c0-27.6-22.4-50-50-50z m-30 560H271V272h482v480z" /></svg>