<?xml version="1.0" standalone="no"?><!DOCTYPE svg PUBLIC "-//W3C//DTD SVG 1.1//EN" "http://www.w3.org/Graphics/SVG/1.1/DTD/svg11.dtd"><svg class="icon" width="200px" height="200.00px" viewBox="0 0 1024 1024" version="1.1" xmlns="http://www.w3.org/2000/svg"><path d="M991.447846 523.454449c-2.799695-64.692963-18.098031-126.986187-45.795018-184.979878-26.597107-55.993909-63.393104-105.788492-109.288112-147.983902S737.77544 115.898783 679.581771 94.101154c-58.793604-21.997607-120.686872-31.89653-183.879998-29.796759l-4.899467-29.096835c-5.399413-31.996519-43.395279-46.194975-68.39256-25.497226l-89.590255 74.09194c-24.997281 20.697749-18.29801 60.693398 12.198673 71.992169l108.988145 40.595584c30.396693 11.298771 61.693289-14.498423 56.293876-46.494942l-4.099554-24.397347c225.275495-3.299641 414.254938 173.981074 424.053872 400.456439 9.898923 230.774896-172.881194 428.253415-403.656091 436.252545-228.975092 7.899141-422.654024-170.881412-432.552947-400.256461-1.399848-32.996411 0.999891-65.592865 6.999238-97.189427 3.599608-18.897944-10.798825-36.49603-30.096726-36.49603-14.698401 0-27.297031 10.398869-30.096726 24.897291-6.999239 36.49603-9.798934 73.791973-8.199108 111.387884 2.799695 64.692963 18.098031 126.986187 45.695029 184.979878 26.597107 56.093898 63.493093 105.788492 109.388101 147.983902 45.895008 42.095421 98.589276 74.591886 156.782946 96.289526 60.193452 22.497553 123.586556 32.396476 188.279519 29.59678 64.692963-2.799695 126.986187-18.098031 184.979878-45.695029 56.093898-26.597107 105.788492-63.493093 147.983902-109.388101 42.095421-45.895008 74.591886-98.589276 96.289526-156.782945 22.297574-59.993474 32.196498-123.386578 29.396802-188.079541z"  /><path d="M507.4005 320.576518L287.824386 447.362726c-2.799695 1.599826-4.5995 4.699489-4.5995 7.899141v253.572417c0 3.299641 1.699815 6.299315 4.5995 7.89914l219.576114 126.786209c2.799695 1.599826 6.299315 1.599826 9.199 0l219.576114-126.786209c2.799695-1.599826 4.5995-4.699489 4.5995-7.89914V455.261867c0-3.299641-1.699815-6.299315-4.5995-7.899141L516.5995 320.576518c-2.899685-1.599826-6.299315-1.599826-9.199 0z m164.782075 322.664901l-128.186056-73.991952c-2.799695-1.599826-4.5995-4.699489-4.599499-7.89914V412.966468c0-6.999239 7.599173-11.39876 13.69851-7.899141l128.186056 73.991951c2.799695 1.599826 4.5995 4.699489 4.599499 7.899141v148.383859c0 6.999239-7.599173 11.39876-13.69851 7.899141zM484.60298 412.966468v147.683935c0 3.299641-1.699815 6.299315-4.599499 7.899141l-128.186056 73.991951c-6.099337 3.499619-13.69851-0.899902-13.69851-7.899141V486.958419c0-3.299641 1.699815-6.299315 4.599499-7.899141l128.186056-73.991951c6.099337-3.599608 13.69851 0.799913 13.69851 7.899141zM379.014466 690.236307l127.886089-73.791973c2.799695-1.599826 6.299315-1.599826 9.198999 0l128.486023 74.191929c6.099337 3.499619 6.099337 12.298662 0 15.898271l-127.886088 73.791973c-2.799695 1.599826-6.299315 1.599826-9.199 0L379.014466 706.034588c-6.099337-3.499619-6.099337-12.298662 0-15.798281z" fill="#060001" /></svg>