<?xml version="1.0" standalone="no"?><!DOCTYPE svg PUBLIC "-//W3C//DTD SVG 1.1//EN" "http://www.w3.org/Graphics/SVG/1.1/DTD/svg11.dtd"><svg class="icon" width="200px" height="200.00px" viewBox="0 0 1024 1024" version="1.1" xmlns="http://www.w3.org/2000/svg"><path fill="#333333" d="M448.6 280h-250c-8.3 0-15-6.7-15-15V15c0-8.3 6.7-15 15-15h250c8.3 0 15 6.7 15 15v250c0 8.3-6.7 15-15 15zM825.4 92.5h-306c-8.3 0-15-6.7-15-15s6.7-15 15-15h306c8.3 0 15 6.7 15 15s-6.7 15-15 15zM825.4 155h-306c-8.3 0-15-6.7-15-15s6.7-15 15-15h306c8.3 0 15 6.7 15 15s-6.7 15-15 15zM648.4 217.5h-126c-8.3 0-15-6.7-15-15s6.7-15 15-15h126c8.3 0 15 6.7 15 15s-6.8 15-15 15z"  /><path fill="#333333" d="M448.6 652h-250c-8.3 0-15-6.7-15-15V387c0-8.3 6.7-15 15-15h250c8.3 0 15 6.7 15 15v250c0 8.3-6.7 15-15 15zM825.4 464.5h-306c-8.3 0-15-6.7-15-15s6.7-15 15-15h306c8.3 0 15 6.7 15 15s-6.7 15-15 15zM825.4 527h-306c-8.3 0-15-6.7-15-15s6.7-15 15-15h306c8.3 0 15 6.7 15 15s-6.7 15-15 15zM648.4 589.5h-126c-8.3 0-15-6.7-15-15s6.7-15 15-15h126c8.3 0 15 6.7 15 15s-6.8 15-15 15z"  /><path fill="#333333" d="M448.6 1024h-250c-8.3 0-15-6.7-15-15V759c0-8.3 6.7-15 15-15h250c8.3 0 15 6.7 15 15v250c0 8.3-6.7 15-15 15zM825.4 836.5h-306c-8.3 0-15-6.7-15-15s6.7-15 15-15h306c8.3 0 15 6.7 15 15s-6.7 15-15 15zM825.4 899h-306c-8.3 0-15-6.7-15-15s6.7-15 15-15h306c8.3 0 15 6.7 15 15s-6.7 15-15 15zM648.4 961.5h-126c-8.3 0-15-6.7-15-15s6.7-15 15-15h126c8.3 0 15 6.7 15 15s-6.8 15-15 15z"  /></svg>