<?xml version="1.0" standalone="no"?><!DOCTYPE svg PUBLIC "-//W3C//DTD SVG 1.1//EN" "http://www.w3.org/Graphics/SVG/1.1/DTD/svg11.dtd"><svg class="icon" width="200px" height="200.00px" viewBox="0 0 1024 1024" version="1.1" xmlns="http://www.w3.org/2000/svg"><path fill="#333333" d="M938.6 77.3H85.4C38.3 77.3 0 115.6 0 162.7v225.1c0 47.2 38.3 85.5 85.4 85.5h853.1c47.2 0 85.4-38.3 85.4-85.4V162.7c0.1-47.1-38.2-85.4-85.3-85.4zM954 387.8c0 8.5-6.8 15.4-15.3 15.4H85.3c-8.5 0-15.3-6.9-15.3-15.4V162.7c0-8.5 6.8-15.4 15.3-15.4h853.3c8.5 0 15.3 6.9 15.3 15.4v225.1z"  /><path fill="#333333" d="M850 241.1H720.7c-18.2 0-29.6 8.5-20.5 15.3l64.7 48c9.1 6.8 32 6.8 41.1 0l64.7-48c9.2-6.8-2.2-15.3-20.7-15.3z"  /><path fill="#333333" d="M938.6 550.7H85.4C38.3 550.7 0 589 0 636.1v225.1c0 47.2 38.3 85.5 85.4 85.5h853.1c47.2 0 85.4-38.3 85.4-85.4V636.1c0.1-47.1-38.2-85.4-85.3-85.4zM954 861.2c0 8.5-6.8 15.4-15.3 15.4H85.3c-8.5 0-15.3-6.9-15.3-15.4V636.1c0-8.5 6.8-15.4 15.3-15.4h853.3c8.5 0 15.3 6.9 15.3 15.4v225.1z"  /><path fill="#333333" d="M850 714.4H720.7c-18.2 0-29.6 8.5-20.5 15.3l64.7 48c9.1 6.8 32 6.8 41.1 0l64.7-48c9.2-6.8-2.2-15.3-20.7-15.3z"  /></svg>