<?xml version="1.0" standalone="no"?><!DOCTYPE svg PUBLIC "-//W3C//DTD SVG 1.1//EN" "http://www.w3.org/Graphics/SVG/1.1/DTD/svg11.dtd"><svg class="icon" width="200px" height="200.00px" viewBox="0 0 1024 1024" version="1.1" xmlns="http://www.w3.org/2000/svg"><path fill="#333333" d="M940 130H410c-46.4 0-84 37.6-84 84s37.6 84 84 84h530c46.4 0 84-37.6 84-84s-37.6-84-84-84zM940 428H410c-46.4 0-84 37.6-84 84s37.6 84 84 84h530c46.4 0 84-37.6 84-84s-37.6-84-84-84zM940 726H410c-46.4 0-84 37.6-84 84s37.6 84 84 84h530c46.4 0 84-37.6 84-84s-37.6-84-84-84zM170.6 314H29.4C13.2 314 0 300.8 0 284.6V143.4C0 127.2 13.2 114 29.4 114h141.1c16.3 0 29.4 13.2 29.4 29.4v141.1c0.1 16.3-13.1 29.5-29.3 29.5zM170.6 910H29.4C13.2 910 0 896.8 0 880.6V739.4C0 723.2 13.2 710 29.4 710h141.1c16.3 0 29.4 13.2 29.4 29.4v141.1c0.1 16.3-13.1 29.5-29.3 29.5zM170.6 612H29.4C13.2 612 0 598.8 0 582.6V441.4C0 425.2 13.2 412 29.4 412h141.1c16.3 0 29.4 13.2 29.4 29.4v141.1c0.1 16.3-13.1 29.5-29.3 29.5z" /></svg>