<?xml version="1.0" standalone="no"?><!DOCTYPE svg PUBLIC "-//W3C//DTD SVG 1.1//EN" "http://www.w3.org/Graphics/SVG/1.1/DTD/svg11.dtd"><svg class="icon" width="200px" height="200.00px" viewBox="0 0 1024 1024" version="1.1" xmlns="http://www.w3.org/2000/svg"><path fill="#333333" d="M512 1024C229.7 1024 0 794.3 0 512S229.7 0 512 0s512 229.7 512 512-229.7 512-512 512z m0-958.5C265.8 65.5 65.5 265.8 65.5 512S265.8 958.5 512 958.5 958.5 758.2 958.5 512 758.2 65.5 512 65.5z"  /><path fill="#333333" d="M789.6 541.6h-270c-20.5 0-37.2-16.6-37.2-37.2v-350c0-16.4 12.8-30.2 29.2-30.7 16.9-0.4 30.8 13.2 30.8 30v290.7c0 20.5 16.6 37.2 37.2 37.2h210.7c16.8 0 30.4 13.9 30 30.8-0.5 16.4-14.4 29.2-30.7 29.2z"  /></svg>