<?xml version="1.0" standalone="no"?><!DOCTYPE svg PUBLIC "-//W3C//DTD SVG 1.1//EN" "http://www.w3.org/Graphics/SVG/1.1/DTD/svg11.dtd"><svg class="icon" width="200px" height="200.00px" viewBox="0 0 1024 1024" version="1.1" xmlns="http://www.w3.org/2000/svg"><path fill="#333333" d="M352.5 673.6h-10.3c-7.5 0-13.6 6.1-13.6 13.6v47c0 7.5-6.1 13.6-13.6 13.6H191.9c-7.5 0-13.6-6.1-13.6-13.6V611.1c0-7.5 6.1-13.6 13.6-13.6h47c7.5 0 13.6-6.1 13.6-13.6v-10.3c0-7.5-6.1-13.6-13.6-13.6h-84.6c-7.5 0-13.6 6.1-13.6 13.6v198.2c0 7.5 6.1 13.6 13.6 13.6h198.2c7.5 0 13.6-6.1 13.6-13.6v-84.6c0.1-7.5-6-13.6-13.6-13.6zM611.3 653.9H478.4c-4.3 0-7.8 6.1-7.8 13.6v10.3c0 7.5 3.5 13.6 7.8 13.6h132.9c4.3 0 7.8-6.1 7.8-13.6v-10.3c0-7.5-3.5-13.6-7.8-13.6zM611.3 335.4H478.4c-4.3 0-7.8 6.1-7.8 13.6v10.3c0 7.5 3.5 13.6 7.8 13.6h132.9c4.3 0 7.8-6.1 7.8-13.6V349c0-7.5-3.5-13.6-7.8-13.6z"  /><path fill="#333333" d="M966.8 93.9H57.2C25.6 93.9 0 119.6 0 151.2v721.7c0 31.6 25.6 57.2 57.2 57.2h909.6c31.6 0 57.2-25.6 57.2-57.2V151.2c0-31.6-25.6-57.3-57.2-57.3zM700.9 836.1c0 15.6-12.6 28.2-28.2 28.2H123c-31.6 0-57.2-25.6-57.2-57.2V216.9c0-31.6 25.6-57.2 57.2-57.2h571c3.8 0 6.9 3.1 6.9 6.9v669.5z m257.3-29c0 31.6-25.6 57.2-57.2 57.2H785.4c-15.6 0-28.2-12.6-28.2-28.2V166.6c0-3.8 3.1-6.9 6.9-6.9h137c31.6 0 57.2 25.6 57.2 57.2v590.2z"  /><path fill="#333333" d="M352.5 355.1h-10.3c-7.5 0-13.6 6.1-13.6 13.6v47c0 7.5-6.1 13.6-13.6 13.6H191.9c-7.5 0-13.6-6.1-13.6-13.6V292.6c0-7.5 6.1-13.6 13.6-13.6h47c7.5 0 13.6-6.1 13.6-13.6v-10.3c0-7.5-6.1-13.6-13.6-13.6h-84.6c-7.5 0-13.6 6.1-13.6 13.6v198.2c0 7.5 6.1 13.6 13.6 13.6h198.2c7.5 0 13.6-6.1 13.6-13.6v-84.6c0.1-7.5-6-13.6-13.6-13.6z"  /><path fill="#333333" d="M405.5 243.3c-5.3-5.3-13.9-5.3-19.3 0L282.6 346.9c-5.3 5.3-13.9 5.3-19.3 0l-36.5-36.5c-5.3-5.3-13.9-5.3-19.3 0l-0.7 0.7c-5.3 5.3-5.3 13.9 0 19.3l56.5 56.5c5.3 5.3 13.9 5.3 19.3 0l123.6-123.6c5.3-5.3 5.3-13.9 0-19.3l-0.7-0.7zM886.9 383.8h-44.2c-15.6 0-28.2 12.6-28.2 28.2v200.1c0 15.6 12.6 28.2 28.2 28.2h44.2c15.6 0 28.2-12.6 28.2-28.2V411.9c0-15.5-12.6-28.1-28.2-28.1z"  /></svg>