<?xml version="1.0" standalone="no"?><!DOCTYPE svg PUBLIC "-//W3C//DTD SVG 1.1//EN" "http://www.w3.org/Graphics/SVG/1.1/DTD/svg11.dtd"><svg class="icon" width="200px" height="200.00px" viewBox="0 0 1024 1024" version="1.1" xmlns="http://www.w3.org/2000/svg"><path fill="#333333" d="M754 565.1H270c-15.2 0-27.5-12.3-27.5-27.5v-51.3c0-15.2 12.3-27.5 27.5-27.5h484c15.2 0 27.5 12.3 27.5 27.5v51.3c-0.1 15.2-12.4 27.5-27.5 27.5z"  /><path fill="#333333" d="M977.1 1024H46.9C21 1024 0 1003 0 977.1V46.9C0 21 21 0 46.9 0h930.2c25.9 0 46.9 21 46.9 46.9v930.2c0 25.9-21 46.9-46.9 46.9z m-864.7-65.5h799.1c25.9 0 46.9-21 46.9-46.9V112.4c0-25.9-21-46.9-46.9-46.9H112.4c-25.9 0-46.9 21-46.9 46.9v799.1c0 26 21 47 46.9 47z"  /></svg>