<?xml version="1.0" standalone="no"?><!DOCTYPE svg PUBLIC "-//W3C//DTD SVG 1.1//EN" "http://www.w3.org/Graphics/SVG/1.1/DTD/svg11.dtd"><svg class="icon" width="200px" height="200.00px" viewBox="0 0 1024 1024" version="1.1" xmlns="http://www.w3.org/2000/svg"><path fill="#333333" d="M912.8 208.3H111.2C49.8 208.3 0 258.1 0 319.5v593.3C0 974.2 49.8 1024 111.2 1024h801.6c61.4 0 111.2-49.8 111.2-111.2V319.5c0-61.4-49.8-111.2-111.2-111.2zM944 912.8c0 17.2-14 31.2-31.2 31.2H111.2C94 944 80 930 80 912.8V319.5c0-17.2 14-31.2 31.2-31.2h801.6c17.2 0 31.2 14 31.2 31.2v593.3zM40 80h423.4c22.1 0 40-17.9 40-40s-17.9-40-40-40H40C17.9 0 0 17.9 0 40s17.9 40 40 40z"  /><path fill="#333333" d="M414 528.2l4.2-7.1-3.7-7.3c-5-9.9-12.9-10.9-16.1-10.9h-2.5l-2.4 0.8c-9.1 3.2-42.8 8.2-165.7 5.9h-0.3c-4.7 0-10.2-0.4-16.5-1.2-9.9-2-16.7-2.9-21.2-2.9h-1.5l-1.5 0.3c-20 4-31.7 17.6-32.2 37.4-1.1 7.2 1.7 12.1 3.6 14.5 2.1 2.8 5.9 5.9 12.2 7 7.2 3.3 16.2 3.2 26.8-0.4 2.6-0.9 5-1.8 7.1-2.7 13.1-3.2 28.3-5.6 45.5-7.3h3c-0.2 16.9-0.6 37.6-1.3 62.6-0.9 32.5-0.9 58.3 0 76.5v0.5c1.4 17.2 11.1 29 27.2 33.4l3.2 0.9 3.2-0.5c17.6-2.9 28.6-15.3 30-33.8v-1.2c0-3.2-0.6-8.2-4.8-20.9l-0.2-0.5c-2.8-7.4-3.1-11-3.1-12.2v-1.6l-0.3-1.6c-2.5-11.5-3.7-26.7-3.7-45.3 0-15.5 1-34.2 2.9-55.7 8.7-0.1 25.6 0.2 58 2h12.2c17.8 1.7 30.1-15.5 37.9-28.7zM836.6 610.2c10.2-10.7 15.6-26.1 15.6-45.2v-1l-0.1-1c-3.2-24.2-20.8-53.4-85.9-54.7-97.6-2.1-119.5 7.5-128.5 18.2-4.1 4.8-5.9 10.8-5.2 16.9 0.5 15.4 11.1 20 14.3 21.1l2.3 0.7h8.5l0.7-0.1c1.8-0.2 3.4-0.3 5-0.5 2.9 39.1 3.2 77.1 0.9 113.2-11 3.3-19.5 9-25.4 17-0.2-0.6-0.5-1.3-0.8-1.9l-1.8-3.8-3.5-2.3c-9.8-6.3-18.2-15.1-25.1-26.1 6.9-6.5 12.3-14.7 16.1-24.5l7.9-20.4h-8.2v-10.6l-21.7 10.9c-4.7 2.3-9.9 3.9-15.8 4.6-10.2-18.8-21.9-45.2-34.8-78.7l-0.4-1.1-0.6-1c-2.3-4-3.4-8.1-3.4-12.7v-5.9l-4-4.3c-9.1-9.8-18.9-14.6-29-14.2-9.7 0.4-18.5 5.5-26.1 15.1l-1.6 2-0.8 2.5c-1.2 3.7-1.9 7.8-2.1 12.3-0.6 2.5-1 4.6-1.2 6.6-25 61.6-54.6 111.9-87.7 149.4-3.5 3.7-5.4 8.2-5.3 12.9 0 4.9 2.1 9.6 5.8 13.3l0.8 0.8 1 0.7c9.1 6.6 20.1 9.3 32.5 8.2 9.6-0.3 17.6-5.7 21.8-14.5 5.3-8.3 13.2-23.8 23.9-47.2 25.2-2.9 50.6-2.9 75.8-0.1 7.9 21 15.4 37.2 22.8 49.2 3.2 8.7 10.8 14 20.4 14h2.4c15.4-1.1 28-5.2 37.5-12.4l0.4-0.3c0.2 0.8 0.5 1.5 0.8 2.2 1.6 3.7 6.1 10.1 17.3 11.7l2.1 0.3 2.1-0.3c12-1.7 25-3 38.7-3.9 9.4 0 23.6 0.5 43.3 1.3h0.3c36.9 0.9 61.1 0.4 73.8-1.5 35.8-4.5 56.2-25.9 57.3-60.1v-1.4l-0.2-1.3c-3.2-21.4-14.2-38.9-32.9-52.1z m-341.9 12.2c5.8-11.7 12.4-26.2 19.9-43.5 1.7 4.4 3.6 9.2 5.7 14.5 4.3 11.2 8.1 20.7 11.4 28.5-13.7 0.9-26.1 1-37 0.5z m219.5-64.5c7.8-2.8 23.3-5.6 53.6-4.9 25.5 1.7 29.2 10 30 14.6-2.2 15.1-10 22.2-26.4 24.1-34.6 1.3-51 0.6-58.7-0.1-0.3-5.6-0.5-11.6-0.5-17.9 0.5-6.1 1.2-11.4 2-15.8z m84.1 120.2c-13.3 1.6-29.1 2.5-46.9 2.5-12.8-0.6-25.1-1.8-36.6-3.4-1.1-9.5-2-18.4-2.6-26.6 0-6.7 0.2-11.6 0.4-15.3 6.8-1.1 22.9-2.2 59.9-0.2 35.3 4.9 39.3 20.1 40.2 27.2-0.8 9.3-4.8 13.6-14.4 15.8z"  /></svg>