<?xml version="1.0" standalone="no"?><!DOCTYPE svg PUBLIC "-//W3C//DTD SVG 1.1//EN" "http://www.w3.org/Graphics/SVG/1.1/DTD/svg11.dtd"><svg class="icon" width="200px" height="200.00px" viewBox="0 0 1024 1024" version="1.1" xmlns="http://www.w3.org/2000/svg"><path fill="#333333" d="M490.5 17.6c0 7-5.6 12.6-12.6 12.6H12.6C5.6 30.2 0 35.9 0 42.8v938.3c0 7 5.6 12.6 12.6 12.6h465.3c7 0 12.6 5.6 12.6 12.6 0 8.6 8.5 14.7 16.7 11.9l508.3-174.7c5.1-1.7 8.5-6.5 8.5-11.9V192.4c0-5.4-3.4-10.2-8.5-11.9L507.2 5.7C499 2.9 490.5 9 490.5 17.6zM323.1 98.7h154.8c7 0 12.6 5.6 12.6 12.6v130.1c0 7-5.6 12.6-12.6 12.6H323.1c-7 0-12.6-5.6-12.6-12.6V111.3c0-6.9 5.7-12.6 12.6-12.6z m0 223.8h154.8c7 0 12.6 5.6 12.6 12.6v130.1c0 7-5.6 12.6-12.6 12.6H323.1c-7 0-12.6-5.6-12.6-12.6V335.1c0-7 5.7-12.6 12.6-12.6z m0 223.7h154.8c7 0 12.6 5.6 12.6 12.6v130.1c0 7-5.6 12.6-12.6 12.6H323.1c-7 0-12.6-5.6-12.6-12.6V558.8c0-6.9 5.7-12.6 12.6-12.6z m-93.7 379.1H81.1c-7 0-12.6-5.6-12.6-12.6V782.6c0-7 5.6-12.6 12.6-12.6h148.3c7 0 12.6 5.6 12.6 12.6v130.1c0 6.9-5.6 12.6-12.6 12.6z m0-223.8H81.1c-7 0-12.6-5.6-12.6-12.6V558.8c0-7 5.6-12.6 12.6-12.6h148.3c7 0 12.6 5.6 12.6 12.6v130.1c0 7-5.6 12.6-12.6 12.6z m0-223.7H81.1c-7 0-12.6-5.6-12.6-12.6V335.1c0-7 5.6-12.6 12.6-12.6h148.3c7 0 12.6 5.6 12.6 12.6v130.1c0 6.9-5.6 12.6-12.6 12.6z m0-223.8H81.1c-7 0-12.6-5.6-12.6-12.6V111.3c0-7 5.6-12.6 12.6-12.6h148.3c7 0 12.6 5.6 12.6 12.6v130.1c0 7-5.6 12.6-12.6 12.6z m81.1 658.7V782.6c0-7 5.6-12.6 12.6-12.6h154.8c7 0 12.6 5.6 12.6 12.6v130.1c0 7-5.6 12.6-12.6 12.6H323.1c-6.9 0-12.6-5.7-12.6-12.6zM991 805.5L561.4 933c-8.1 2.4-16.2-3.7-16.2-12.1V103.1c0-8.4 8.1-14.5 16.2-12.1L991 218.5c5.3 1.6 9 6.5 9 12.1v562.8c0 5.6-3.7 10.5-9 12.1z"  /><path fill="#333333" d="M660.5 581.6c-46.2 68.5-52.5 172.1-53.1 211-0.1 8.2 7.5 14.4 15.5 12.5 29.1-7 92.6-29.1 131-93 13.9-23.1 23.4-49.8 30-76 3.2-12.7 21.2-12.7 24.4 0 6.2 24.7 15.2 48.8 28.2 68 32 47.4 77.5 49.7 98.5 47.7 6.6-0.6 11.6-6.1 11.5-12.7-0.4-29.8-4.3-113.6-35.6-165.5-14.5-24.1-33.2-39-51.4-48.1-9.3-4.7-9.3-18 0.1-22.6 18.7-9.1 38.1-24.1 53-49 31.2-51.9 35.1-135.6 35.5-165.4 0.1-6.6-4.9-12.1-11.5-12.7-21-1.9-66.4 0.5-98.2 47.9-12.4 18.4-21.2 41.4-27.3 65-3.3 12.6-21.3 12.5-24.4-0.2-6.5-27.2-16.3-55-30.6-79-38.3-63.8-101.5-86-130.5-93.1-8-1.9-15.7 4.2-15.5 12.5 0.7 38.9 7 142.2 53 210.7 20.5 30.5 45.5 48.5 68.4 59.1 9.8 4.5 9.7 18.6-0.2 22.9-23.6 10.5-49.6 28.6-70.8 60z"  /></svg>