<?xml version="1.0" standalone="no"?><!DOCTYPE svg PUBLIC "-//W3C//DTD SVG 1.1//EN" "http://www.w3.org/Graphics/SVG/1.1/DTD/svg11.dtd"><svg class="icon" width="200px" height="200.00px" viewBox="0 0 1024 1024" version="1.1" xmlns="http://www.w3.org/2000/svg"><path fill="#333333" d="M944 80v864H80V80h864m40.6-80H39.4C17.7 0 0 17.7 0 39.4v945.1c0 21.8 17.7 39.4 39.4 39.4h945.1c21.8 0 39.4-17.7 39.4-39.4V39.4C1024 17.7 1006.3 0 984.6 0z"  /><path fill="#333333" d="M642.6 196.1H381.4c-21.8 0-39.4 17.7-39.4 39.4s17.7 39.4 39.4 39.4h261.1c21.8 0 39.4-17.7 39.4-39.4s-17.6-39.4-39.3-39.4zM642.6 749H381.4c-21.8 0-39.4 17.7-39.4 39.4s17.7 39.4 39.4 39.4h261.1c21.8 0 39.4-17.7 39.4-39.4S664.3 749 642.6 749z"  /><path fill="#333333" d="M788.4 342c-21.8 0-39.4 17.7-39.4 39.4v261.1c0 21.8 17.7 39.4 39.4 39.4s39.4-17.7 39.4-39.4V381.4c0.1-21.7-17.6-39.4-39.4-39.4zM235.6 342c-21.8 0-39.4 17.7-39.4 39.4v261.1c0 21.8 17.7 39.4 39.4 39.4s39.4-17.7 39.4-39.4V381.4c0-21.7-17.7-39.4-39.4-39.4z"  /></svg>