<?xml version="1.0" standalone="no"?><!DOCTYPE svg PUBLIC "-//W3C//DTD SVG 1.1//EN" "http://www.w3.org/Graphics/SVG/1.1/DTD/svg11.dtd"><svg class="icon" width="200px" height="200.00px" viewBox="0 0 1024 1024" version="1.1" xmlns="http://www.w3.org/2000/svg"><path fill="#333333" d="M655.59279 3.751232c-6.899654-4.099794-15.199237-4.899754-22.698861-2.099895L109.020236 196.841536c-10.299483 3.899804-17.199136 13.699312-17.199137 24.798754v501.274829c0 20.498971 22.29888 33.198333 39.897997 22.69886l93.79529-55.797198c7.999598-4.799759 12.899352-13.399327 12.899352-22.69886V341.634265c0-12.299382 8.499573-22.998845 20.498971-25.69871l359.181963-82.195872c16.499171-3.799809 32.298378 8.799558 32.298379 25.698709v600.969823c0 16.899151-15.599217 29.398524-32.098389 25.798704l-369.581441-80.895938c-20.198986-4.399779-29.598514 23.8988-10.899453 32.498369l401.379845 183.690776c5.799709 2.699864 12.399377 3.099844 18.499071 1.299934l255.487171-76.396164c11.199438-3.299834 18.799056-13.599317 18.799056-25.298729V183.642198c0-9.299533-4.899754-17.899101-12.899352-22.69886L655.59279 3.751232z" /></svg>