<?xml version="1.0" standalone="no"?><!DOCTYPE svg PUBLIC "-//W3C//DTD SVG 1.1//EN" "http://www.w3.org/Graphics/SVG/1.1/DTD/svg11.dtd"><svg class="icon" width="200px" height="200.00px" viewBox="0 0 1024 1024" version="1.1" xmlns="http://www.w3.org/2000/svg"><path fill="#333333" d="M943.3 236c-1.1-1.7-2.2-3.5-3.4-5.2-38.3-58.3-88.4-108.4-146.8-146.8-1.7-1.1-3.4-2.3-5.2-3.4C708.3 29.6 613.6 0 512 0c-67.8 0-132.4 13.2-191.6 37.1l-3.6 1.5a509.89 509.89 0 0 0-116 66.9c-3.3 2.5-6.5 5-9.7 7.6-2.5 2-4.9 4-7.3 6-2.3 1.9-4.6 3.8-6.8 5.8-2.4 2-4.7 4.1-7 6.2-1.5 1.3-2.9 2.6-4.3 3.9-1.6 1.4-3.1 2.9-4.7 4.3-2.2 2-4.3 4.1-6.4 6.2l-4.5 4.5c-1.4 1.4-2.9 2.9-4.3 4.4-2.2 2.2-4.3 4.5-6.4 6.7-10.2 10.9-20 22.1-29.2 33.9-0.5 0.7-1.1 1.4-1.6 2.1-1.5 2-3 3.9-4.5 5.9-1.4 1.9-2.8 3.7-4.2 5.6-4.7 6.3-9.2 12.7-13.5 19.3-1.8 2.7-3.6 5.5-5.4 8.2C29.6 315.7 0 410.4 0 512c0 121.5 42.3 233.1 113 320.9l3.9 4.8c2.6 3.2 5.3 6.3 7.9 9.4 1.3 1.5 2.7 3.1 4.1 4.6 13.6 15.3 28.1 29.8 43.4 43.4 1.5 1.4 3.1 2.7 4.6 4.1 3.1 2.7 6.2 5.3 9.4 7.9l4.8 3.9c87.8 70.7 199.4 113 320.9 113 101.6 0 196.3-29.6 276-80.7 2.8-1.8 5.5-3.6 8.2-5.4 6.5-4.4 13-8.9 19.3-13.5 1.9-1.4 3.8-2.8 5.6-4.2 2-1.5 3.9-3 5.9-4.5 0.7-0.5 1.4-1.1 2.1-1.6 11.7-9.3 23-19 33.9-29.2 2.3-2.1 4.5-4.3 6.7-6.4 1.5-1.4 2.9-2.9 4.4-4.3l4.5-4.5c2.1-2.1 4.1-4.3 6.2-6.4 1.5-1.5 2.9-3.1 4.3-4.7 1.3-1.4 2.6-2.9 3.9-4.3 2.1-2.3 4.2-4.7 6.2-7s3.9-4.5 5.8-6.8c2-2.4 4-4.9 6-7.3 2.6-3.2 5.1-6.4 7.6-9.7 27.1-35.3 49.7-74.3 66.9-116l1.5-3.6c23.9-59.2 37.1-123.9 37.1-191.6-0.1-101.9-29.7-196.6-80.8-276.3zM694.5 705.8c-11.7 11.7-30.7 11.7-42.4 0L491.6 545.4c-6.1-6.1-9-14.2-8.8-22.2V128.8c0-16.6 13.4-30 30-30s30 13.4 30 30v371.8c0 7.1 2.8 13.9 7.9 19l143.8 143.8c11.7 11.7 11.7 30.7 0 42.4z" /></svg>