<?xml version="1.0" standalone="no"?><!DOCTYPE svg PUBLIC "-//W3C//DTD SVG 1.1//EN" "http://www.w3.org/Graphics/SVG/1.1/DTD/svg11.dtd"><svg class="icon" width="200px" height="200.00px" viewBox="0 0 1024 1024" version="1.1" xmlns="http://www.w3.org/2000/svg"><path fill="#333333" d="M408.006226 257.394553h338.178988c10.658366 0 19.025681-13.34786 19.025681-29.883269s-8.566537-29.883268-19.025681-29.883268H408.006226c-10.658366 0-19.025681 13.34786-19.025681 29.883268-0.099611 16.535409 8.466926 29.883268 19.025681 29.883269zM262.275486 257.394553h62.655253c1.992218 0 3.486381-13.34786 3.486382-29.883269s-1.593774-29.883268-3.486382-29.883268h-62.655253c-1.992218 0-3.486381 13.34786-3.486381 29.883268-0.099611 16.535409 1.494163 29.883268 3.486381 29.883269zM408.006226 446.057588h338.178988c10.658366 0 19.025681-13.34786 19.025681-29.883269s-8.566537-29.883268-19.025681-29.883268H408.006226c-10.658366 0-19.025681 13.34786-19.025681 29.883268-0.099611 16.535409 8.466926 29.883268 19.025681 29.883269zM262.275486 446.057588h62.655253c1.992218 0 3.486381-13.34786 3.486382-29.883269s-1.593774-29.883268-3.486382-29.883268h-62.655253c-1.992218 0-3.486381 13.34786-3.486381 29.883268-0.099611 16.535409 1.494163 29.883268 3.486381 29.883269zM408.006226 634.621012h338.178988c10.658366 0 19.025681-13.34786 19.025681-29.883269s-8.566537-29.883268-19.025681-29.883268H408.006226c-10.658366 0-19.025681 13.34786-19.025681 29.883268-0.099611 16.535409 8.466926 29.883268 19.025681 29.883269zM262.275486 634.621012h62.655253c1.992218 0 3.486381-13.34786 3.486382-29.883269s-1.593774-29.883268-3.486382-29.883268h-62.655253c-1.992218 0-3.486381 13.34786-3.486381 29.883268-0.099611 16.535409 1.494163 29.883268 3.486381 29.883269zM408.006226 823.284047h338.178988c10.658366 0 19.025681-13.34786 19.025681-29.883269s-8.566537-29.883268-19.025681-29.883268H408.006226c-10.658366 0-19.025681 13.34786-19.025681 29.883268-0.099611 16.535409 8.466926 29.883268 19.025681 29.883269zM262.275486 823.284047h62.655253c1.992218 0 3.486381-13.34786 3.486382-29.883269s-1.593774-29.883268-3.486382-29.883268h-62.655253c-1.992218 0-3.486381 13.34786-3.486381 29.883268-0.099611 16.535409 1.494163 29.883268 3.486381 29.883269z"  /><path fill="#333333" d="M916.121401 0H108.077821C91.741634 0 78.493385 15.638911 78.493385 34.863813v954.272374c0 19.224903 13.248249 34.863813 29.484825 34.863813h801.170428c4.781323 0 9.363424-1.394553 13.447471-3.884825 13.148638-3.486381 23.010117-17.431907 23.010117-33.967315V34.863813c0-19.224903-13.248249-34.863813-29.484825-34.863813z m-29.484825 954.272374h-749.07393V69.727626h749.07393v884.544748z"  /></svg>