<?xml version="1.0" standalone="no"?><!DOCTYPE svg PUBLIC "-//W3C//DTD SVG 1.1//EN" "http://www.w3.org/Graphics/SVG/1.1/DTD/svg11.dtd"><svg class="icon" width="200px" height="200.00px" viewBox="0 0 1024 1024" version="1.1" xmlns="http://www.w3.org/2000/svg"><path fill="#333333" d="M574 944H143.4c-35 0-63.4-28.4-63.4-63.4V317.4c0-35 28.4-63.4 63.4-63.4h563.2c35 0 63.4 28.4 63.4 63.4v154.7c0 22.1 17.9 39.9 39.9 39.9 22.1 0 39.9-17.9 39.9-39.9V237.4c0.1-35-28.3-63.4-63.3-63.4H63.4C28.4 174 0 202.4 0 237.4v723.1c0 35 28.4 63.4 63.4 63.4H574c22.1 0 39.9-17.9 39.9-39.9 0.1-22.1-17.8-40-39.9-40z"  /><path fill="#333333" d="M1002 0H446c-22.1 0-40 17.9-40 40s17.9 40 40 40h476c12.2 0 22 9.8 22 22v370.1c0 22.1 17.9 39.9 39.9 39.9h0.1c22.1 0 39.9-17.9 39.9-39.9V22c0.1-12.1-9.7-22-21.9-22zM767.5 612.3L568.3 811.6c-30.4 30.4-8.9 82.4 34.1 82.4h199.2c26.7 0 48.3-21.6 48.3-48.3V646.5c0-43-52-64.6-82.4-34.2z"  /></svg>