<?xml version="1.0" standalone="no"?><!DOCTYPE svg PUBLIC "-//W3C//DTD SVG 1.1//EN" "http://www.w3.org/Graphics/SVG/1.1/DTD/svg11.dtd"><svg class="icon" width="200px" height="200.00px" viewBox="0 0 1024 1024" version="1.1" xmlns="http://www.w3.org/2000/svg"><path fill="#333333" d="M775.924226 80.59213v124.887804c0 5.799434-4.699541 10.598965-10.598965 10.598965h-48.895225c-5.799434 0-10.598965-4.699541-10.598965-10.598965V80.59213c0-5.799434-4.699541-10.598965-10.598965-10.598965H468.554243c-5.799434 0-10.598965 4.699541-10.598965 10.598965v124.887804c0 5.799434-4.699541 10.598965-10.598965 10.598965h-48.895225c-5.799434 0-10.598965-4.699541-10.598965-10.598965V10.598965C387.962113 4.699541 383.262572 0 377.363148 0H10.598965C4.699541 0 0 4.699541 0 10.598965v1002.80207c0 5.799434 4.699541 10.598965 10.598965 10.598965h1002.80207c5.799434 0 10.598965-4.699541 10.598965-10.598965V80.59213c0-5.799434-4.699541-10.598965-10.598965-10.598965H786.523191c-5.899424 0-10.598965 4.699541-10.598965 10.598965z m104.989747 862.71575V742.627478c0-5.799434-4.699541-10.598965-10.598965-10.598965H761.125671c-5.799434 0-10.598965 4.699541-10.598965 10.598965v200.680402c0 5.799434-4.699541 10.598965-10.598965 10.598965h-50.99502c-5.799434 0-10.598965-4.699541-10.598965-10.598965V382.662631c0-5.799434-4.699541-10.598965-10.598964-10.598965H558.545455c-5.799434 0-10.598965 4.699541-10.598965 10.598965v560.645249c0 5.799434-4.699541 10.598965-10.598965 10.598965h-50.99502c-5.799434 0-10.598965-4.699541-10.598965-10.598965V682.633337c0-5.799434-4.699541-10.598965-10.598965-10.598965H356.065228c-5.799434 0-10.598965 4.699541-10.598965 10.598965v260.674543c0 5.799434-4.699541 10.598965-10.598965 10.598965h-50.99502c-5.799434 0-10.598965-4.699541-10.598965-10.598965V792.622595c0-5.799434-4.699541-10.598965-10.598965-10.598964H153.585001c-5.799434 0-10.598965 4.699541-10.598964 10.598964v150.685285c0 5.799434-4.699541 10.598965-10.598965 10.598965H80.59213c-5.799434 0-10.598965-4.699541-10.598965-10.598965V80.59213C69.993165 74.692706 74.692706 69.993165 80.59213 69.993165h226.877844c5.799434 0 10.598965 4.699541 10.598965 10.598965v194.880968c0 5.799434 4.699541 10.598965 10.598965 10.598965h614.839957c5.799434 0 10.598965 4.699541 10.598965 10.598965v646.836833c0 5.799434-4.699541 10.598965-10.598965 10.598965h-51.894933c-5.999414-0.19998-10.698955-4.899522-10.698955-10.798946z"  /></svg>