<?xml version="1.0" standalone="no"?><!DOCTYPE svg PUBLIC "-//W3C//DTD SVG 1.1//EN" "http://www.w3.org/Graphics/SVG/1.1/DTD/svg11.dtd"><svg class="icon" width="200px" height="200.00px" viewBox="0 0 1024 1024" version="1.1" xmlns="http://www.w3.org/2000/svg"><path fill="#333333" d="M858.5 60h30c8.3 0 15-6.7 15-15V15c0-8.3-6.7-15-15-15h-30c-8.3 0-15 6.7-15 15v30c0 8.3 6.7 15 15 15zM738 60h30c8.3 0 15-6.7 15-15V15c0-8.3-6.7-15-15-15h-30c-8.3 0-15 6.7-15 15v30c0 8.3 6.7 15 15 15zM617.5 60h30c8.3 0 15-6.7 15-15V15c0-8.3-6.7-15-15-15h-30c-8.3 0-15 6.7-15 15v30c0 8.3 6.7 15 15 15zM497 60h30c8.3 0 15-6.7 15-15V15c0-8.3-6.7-15-15-15h-30c-8.3 0-15 6.7-15 15v30c0 8.3 6.7 15 15 15zM376.5 60h30c8.3 0 15-6.7 15-15V15c0-8.3-6.7-15-15-15h-30c-8.3 0-15 6.7-15 15v30c0 8.3 6.7 15 15 15zM256 60h30c8.3 0 15-6.7 15-15V15c0-8.3-6.7-15-15-15h-30c-8.3 0-15 6.7-15 15v30c0 8.3 6.7 15 15 15zM135.5 60h30c8.3 0 15-6.7 15-15V15c0-8.3-6.7-15-15-15h-30c-8.3 0-15 6.7-15 15v30c0 8.3 6.7 15 15 15zM15 60h30c8.3 0 15-6.7 15-15V15c0-8.3-6.7-15-15-15H15C6.7 0 0 6.7 0 15v30c0 8.3 6.7 15 15 15zM15 180.5h30c8.3 0 15-6.7 15-15v-30c0-8.3-6.7-15-15-15H15c-8.3 0-15 6.7-15 15v30c0 8.3 6.7 15 15 15zM15 301h30c8.3 0 15-6.7 15-15v-30c0-8.3-6.7-15-15-15H15c-8.3 0-15 6.7-15 15v30c0 8.3 6.7 15 15 15zM15 421.5h30c8.3 0 15-6.7 15-15v-30c0-8.3-6.7-15-15-15H15c-8.3 0-15 6.7-15 15v30c0 8.3 6.7 15 15 15zM15 542h30c8.3 0 15-6.7 15-15v-30c0-8.3-6.7-15-15-15H15c-8.3 0-15 6.7-15 15v30c0 8.3 6.7 15 15 15zM15 662.5h30c8.3 0 15-6.7 15-15v-30c0-8.3-6.7-15-15-15H15c-8.3 0-15 6.7-15 15v30c0 8.3 6.7 15 15 15zM15 783h30c8.3 0 15-6.7 15-15v-30c0-8.3-6.7-15-15-15H15c-8.3 0-15 6.7-15 15v30c0 8.3 6.7 15 15 15zM15 903.5h30c8.3 0 15-6.7 15-15v-30c0-8.3-6.7-15-15-15H15c-8.3 0-15 6.7-15 15v30c0 8.3 6.7 15 15 15zM135.5 1024h30c8.3 0 15-6.7 15-15v-30c0-8.3-6.7-15-15-15h-30c-8.3 0-15 6.7-15 15v30c0 8.3 6.7 15 15 15zM15 1024h30c8.3 0 15-6.7 15-15v-30c0-8.3-6.7-15-15-15H15c-8.3 0-15 6.7-15 15v30c0 8.3 6.7 15 15 15zM256 1024h30c8.3 0 15-6.7 15-15v-30c0-8.3-6.7-15-15-15h-30c-8.3 0-15 6.7-15 15v30c0 8.3 6.7 15 15 15zM376.5 1024h30c8.3 0 15-6.7 15-15v-30c0-8.3-6.7-15-15-15h-30c-8.3 0-15 6.7-15 15v30c0 8.3 6.7 15 15 15zM497 1024h30c8.3 0 15-6.7 15-15v-30c0-8.3-6.7-15-15-15h-30c-8.3 0-15 6.7-15 15v30c0 8.3 6.7 15 15 15zM617.5 1024h30c8.3 0 15-6.7 15-15v-30c0-8.3-6.7-15-15-15h-30c-8.3 0-15 6.7-15 15v30c0 8.3 6.7 15 15 15zM738 1024h30c8.3 0 15-6.7 15-15v-30c0-8.3-6.7-15-15-15h-30c-8.3 0-15 6.7-15 15v30c0 8.3 6.7 15 15 15zM858.5 1024h30c8.3 0 15-6.7 15-15v-30c0-8.3-6.7-15-15-15h-30c-8.3 0-15 6.7-15 15v30c0 8.3 6.7 15 15 15zM979 903.5h30c8.3 0 15-6.7 15-15v-30c0-8.3-6.7-15-15-15h-30c-8.3 0-15 6.7-15 15v30c0 8.3 6.7 15 15 15zM979 1024h30c8.3 0 15-6.7 15-15v-30c0-8.3-6.7-15-15-15h-30c-8.3 0-15 6.7-15 15v30c0 8.3 6.7 15 15 15zM979 783h30c8.3 0 15-6.7 15-15v-30c0-8.3-6.7-15-15-15h-30c-8.3 0-15 6.7-15 15v30c0 8.3 6.7 15 15 15zM979 662.5h30c8.3 0 15-6.7 15-15v-30c0-8.3-6.7-15-15-15h-30c-8.3 0-15 6.7-15 15v30c0 8.3 6.7 15 15 15zM979 542h30c8.3 0 15-6.7 15-15v-30c0-8.3-6.7-15-15-15h-30c-8.3 0-15 6.7-15 15v30c0 8.3 6.7 15 15 15zM979 421.5h30c8.3 0 15-6.7 15-15v-30c0-8.3-6.7-15-15-15h-30c-8.3 0-15 6.7-15 15v30c0 8.3 6.7 15 15 15zM979 301h30c8.3 0 15-6.7 15-15v-30c0-8.3-6.7-15-15-15h-30c-8.3 0-15 6.7-15 15v30c0 8.3 6.7 15 15 15zM979 180.5h30c8.3 0 15-6.7 15-15v-30c0-8.3-6.7-15-15-15h-30c-8.3 0-15 6.7-15 15v30c0 8.3 6.7 15 15 15zM964 15v30c0 8.3 6.7 15 15 15h30c8.3 0 15-6.7 15-15V15c0-8.3-6.7-15-15-15h-30c-8.3 0-15 6.7-15 15z"  /><path fill="#333333" d="M842 815.3H182c-16.6 0-30-13.4-30-30v-136c0-16.6 13.4-30 30-30h660c16.6 0 30 13.4 30 30v136c0 16.6-13.4 30-30 30zM213.1 214.3c9.5 2.1 14.2 9.5 14.2 22.1-2.1 9.5-3.2 20-3.2 31.6-1.1 2.1 0 3.2 3.2 3.2h17.4c8.4-1 13.1-1.6 14.2-1.6 6.3 1.1 10.5 3.7 12.6 7.9-1.1 5.3-6.3 8.4-15.8 9.5-13.7 1.1-23.2 0.5-28.4-1.6-3.2 1.1-4.2 2.1-3.2 3.2-1.1 63.1-0.5 116.3 1.6 159.4 1 29.5-3.2 44.2-12.6 44.2s-13.2-14.2-11-42.6c1-10.5 1.6-23.7 1.6-39.5 1-13.7 1.6-34.2 1.6-61.5-1.1-2.1-2.1-3.7-3.2-4.7-1.1 0-2.1 1.1-3.2 3.2-5.3 14.7-16.3 30.5-33.1 47.3-11.6 10.5-20.5 13.7-26.8 9.5-8.4-5.3-6.3-12.6 6.3-22.1 36.8-26.3 56.8-56.8 60-91.5-1.1-1-2.1-2.1-3.2-3.2-12.6 1.1-22.1 2.1-28.4 3.2-17.9 5.3-26.8 3.2-26.8-6.3 1-10.5 8.9-15.8 23.7-15.8 7.3 2.1 17.9 2.6 31.6 1.6 1 1.1 2.1 0 3.2-3.2 0-10.5-0.5-20-1.6-28.4-2.3-13.9 0.9-21.8 9.3-23.9z m17.4 123c-2.1-2.1-2.6-4.2-1.6-6.3 1-2.1 3.2-2.6 6.3-1.6 11.6 4.2 21 9 28.4 14.2 6.3 5.3 7.9 12.1 4.7 20.5-5.3 6.3-11 6.9-17.4 1.6-4.2-3.2-10-10.5-17.4-22.1-2-3.1-3-5.2-3-6.3z m59.9-34.7c98.9 0 162.5 0.5 191 1.6 9.5 2.1 12.1 6.9 7.9 14.2-7.4 12.6-16.3 16.8-26.8 12.6-24.2-7.3-43.2-11.6-56.8-12.6-10.5-2.1-15.3 5.8-14.2 23.7 0 41 0.5 74.7 1.6 101-1.1 28.4-4.7 42.6-11 42.6-10.5 3.2-14.2-10.5-11-41v-93.1c1-8.4 1.6-13.1 1.6-14.2 0-15.8-6.9-22.6-20.5-20.5-20 1.1-38.9 4.7-56.8 11-13.7 6.3-21.6 6.3-23.7 0-2.3-14.7 4-23.1 18.7-25.3z m36.3 58.4c1-2.1 3.7-2.6 7.9-1.6 3.2 1.1 4.2 3.2 3.2 6.3-9.5 32.6-21.1 54.7-34.7 66.3-10.5 9.5-18.4 9.5-23.7 0-6.3-8.4-4.2-16.3 6.3-23.7 14.7-7.3 28.4-23.1 41-47.3z m11.1-127.8c4.2 2.1 15.2 3.2 33.1 3.2 18.9 0 37.3-0.5 55.2-1.6 11.6 0 17.4 2.6 17.4 7.9-1.1 8.4-8.4 12.1-22.1 11-41 0-70.5 1.6-88.4 4.7-16.8 5.3-24.7 4.2-23.7-3.2 3.2-14.6 12.7-22 28.5-22zM434 361c14.7 21.1 33.1 37.4 55.2 48.9 6.3 3.2 6.3 7.4 0 12.6-10.5 11.6-20.5 13.2-30 4.7-18.9-26.3-31-46.8-36.3-61.5-2.1-3.2-1.6-5.3 1.6-6.3s6.4-0.5 9.5 1.6zM576.1 321.6c11.6 1.1 30 1.6 55.2 1.6s47.9-0.5 67.9-1.6c6.3 0 11 2.6 14.2 7.9 0 7.4-5.3 10.5-15.8 9.5h-30c-7.4 0-10.5 2.6-9.5 7.9-2.1 7.4-2.6 13.2-1.6 17.4-1.1 4.2 1 6.3 6.3 6.3 16.8-1 29.4-1 37.9 0 5.3 2.1 7.3 5.3 6.3 9.5-2.1 5.3-5.8 7.9-11 7.9-3.2-1-14.7-1.6-34.7-1.6-3.2 0-4.7 2.6-4.7 7.9-1.1 5.3-1.6 12.1-1.6 20.5 23.1 4.2 52.1 12.1 86.8 23.7 52.6 17.9 98.9 27.9 138.9 30 5.3 0 8.4 1.1 9.5 3.2 0 2.1-2.1 5.3-6.3 9.5-21.1 13.7-43.7 17.4-67.9 11-115.7-51.5-188.9-74.2-219.4-67.9-5.3 0-8.4 1.1-9.5 3.2l-6.3 6.3c-9.5 12.6-15.8 20-18.9 22.1-11.6 7.4-20 9-25.3 4.7-4.2-6.3-1.6-13.1 7.9-20.5 25.3-15.8 41-37.9 47.3-66.3 0-5.3 2.6-7.3 7.9-6.3 6.3 3.2 9.5 6.9 9.5 11-2.1 8.4-6.3 17.4-12.6 26.8-2.1 4.2-1.1 6.3 3.2 6.3 23.1 0 36.3 0.5 39.5 1.6-2.1-32.6-3.2-54.7-3.2-66.3 0-5.3-3.2-7.9-9.5-7.9-22.1 1.1-37.9 2.1-47.3 3.2-15.8 5.3-25.3 4.7-28.4-1.6-0.1-9.6 8.3-15.9 25.2-19z m33.1-112.1c0 1.1 6.8 1.6 20.5 1.6h53.7c14.7 2.1 21.6 9.5 20.5 22.1-1.1 7.4-2.1 15.8-3.2 25.3-1.1 10.5-2.1 19.5-3.2 26.8-4.2 12.6-12.6 17.4-25.3 14.2-18.9-3.2-35.8-3.2-50.5 0-15.8 4.2-25.8 1.1-30-9.5-2.1-4.2-3.7-13.7-4.7-28.4v-34.7c1.2-14.7 8.5-20.5 22.2-17.4z m6.3 37.9c21-1 42.1-1 63.1 0 2.1 1.1 3.2-0.5 3.2-4.7 0-8.4-4.2-14.2-12.6-17.4-16.8-2.1-31-2.6-42.6-1.6-11.6 3.2-17.4 9.5-17.4 18.9-1 3.2 1.1 4.8 6.3 4.8z m1.6 14.2c-5.3 0-7.9 2.1-7.9 6.3-1.1 9.5 3.2 14.2 12.6 14.2 7.3 2.1 21.6 2.6 42.6 1.6 10.5-1 16.3-5.8 17.4-14.2 0-4.2-2.1-6.3-6.3-6.3-9.5-1-18.9-1.6-28.4-1.6h-30z m260.4-26.8c-7.4 9.5-16.3 12.1-26.8 7.9H846c-8.4-3.2-16.3-4.7-23.7-4.7-8.4-1-12.6 1.1-12.6 6.3-3.2 13.7-4.2 21.1-3.2 22.1h31.6c12.6 2.1 18.4 7.9 17.4 17.4-1.1 6.3-2.1 18.9-3.2 37.9 0 16.8 0.5 28.4 1.6 34.7 1 14.7-2.1 22.6-9.5 23.7-7.4 2.1-10.5-5.8-9.5-23.7v-7.9-52.1c-1.1-9.5-5.3-14.7-12.6-15.8-14.7-1-29.5-1-44.2 0-10.5 1.1-15.8 6.3-15.8 15.8-2.1 23.2-3.2 41-3.2 53.7 0 17.9-3.2 26.3-9.5 25.3-8.4 1.1-11.6-6.8-9.5-23.7 1-26.3 1-49.4 0-69.4-1.1-9.5 3.7-14.7 14.2-15.8 5.3 2.1 16.3 2.6 33.1 1.6 1-3.2 1.6-11 1.6-23.7 0-4.2-3.7-6.3-11-6.3-9.5 1.1-18.9 2.1-28.4 3.2h-4.7c-15.8 4.2-24.2 2.1-25.3-6.3 4.2-9.5 15.2-13.7 33.1-12.6l6.3 1.6h112.1c7.4 0.8 9.6 4.5 6.4 10.8z m-85.2 59.9c10.5 2.1 15.2 7.9 14.2 17.4-2.1 4.2-3.7 13.7-4.7 28.4-1.1 42.1-16.8 68.4-47.3 78.9-15.8 6.3-26.3 5.3-31.6-3.2-3.2-5.3 1.6-9.5 14.2-12.6 37.9-6.3 54.2-36.8 48.9-91.5-1.1-12.6 1-18.4 6.3-17.4z m22.1 94.7c-2.1-1-2.1-2.6 0-4.7s4.2-2.6 6.3-1.6c16.8 12.6 30.5 21.1 41 25.3 5.3 3.2 5.8 7.4 1.6 12.6-8.4 9.5-16.3 11-23.7 4.7-9.4-8.4-17.9-20.5-25.2-36.3z"  /></svg>