<?xml version="1.0" standalone="no"?><!DOCTYPE svg PUBLIC "-//W3C//DTD SVG 1.1//EN" "http://www.w3.org/Graphics/SVG/1.1/DTD/svg11.dtd"><svg class="icon" width="200px" height="200.00px" viewBox="0 0 1024 1024" version="1.1" xmlns="http://www.w3.org/2000/svg"><path fill="#333333" d="M743.494363 488.858359c-120.503782 5.299186-210.868109-28.739803-210.868109-40.070778l168.824531 0L701.450785 404.365481 532.626255 404.365481l0-19.632325-44.376035 0 0 19.632325L319.010223 404.365481l0 44.4221 169.240883 0c0 21.955038-106.260114 40.070778-210.789268 40.070778 9.496369 13.752903 21.327852 28.639702 33.596062 43.2572l-55.785851 0.079727 0 44.41767 399.391404 0 0.317136 101.985863c0 35.801842-11.676459 44.420328-45.807577 44.420328-9.892346 0-24.570968 0-35.85145 0L573.321561 595.976867 317.708016 595.976867l0 127.043166 44.376035 0 180.524907 0 22.188903 44.4221c40.925629 0 68.72554 0 91.58415 0 30.562894 0 45.066116-4.904095 45.066116-44.4221l0.423439-146.407076 63.734631 0 0-44.41767-44.299852-0.601496L743.494363 488.858359zM528.943754 678.599705l-166.859704 0 0-38.205167L528.94464 640.394538l0 38.205167L528.943754 678.599705zM362.059247 532.042919c66.036969-6.930932 99.128093-17.043856 148.380762-31.131613 62.102886 13.637742 64.787913 25.426705 166.411461 30.681598L362.059247 532.042919zM521.532689 277.028212 454.96775 277.028212 477.156654 321.449425 255.272934 321.449425 255.272934 410.292739 299.648969 410.292739 299.648969 365.870639 721.228391 365.870639 721.228391 410.292739 765.604426 410.292739 765.604426 321.449425 543.720706 321.449425ZM871.198377 2.584926l0-0.002658L828.709214 2.582268l0 143.562595L701.232865 2.583154l-42.491821 0 0.002658 0.002658L0.117376 2.585812l0 1020.852556 1019.802818 0L1019.920193 2.584926 871.198377 2.584926zM977.38408 980.902254 42.652604 980.902254 42.652604 45.121039l658.52711 0L828.709214 193.995223l42.489163 0L871.198377 45.121039l106.185703 0L977.38408 980.902254 977.38408 980.902254z" /></svg>