<?xml version="1.0" standalone="no"?><!DOCTYPE svg PUBLIC "-//W3C//DTD SVG 1.1//EN" "http://www.w3.org/Graphics/SVG/1.1/DTD/svg11.dtd"><svg class="icon" width="200px" height="200.00px" viewBox="0 0 1024 1024" version="1.1" xmlns="http://www.w3.org/2000/svg"><path fill="#333333" d="M310.973425 983.972185c-60.886897-25.752163-115.485476-62.583745-162.398331-109.4966-46.912855-46.912855-83.744437-101.611248-109.496601-162.398331-17.567367-41.522868-29.445303-84.842398-35.533992-129.259888-4.990729-36.831582 23.556242-69.770395 60.787082-69.770396 30.643078 0 56.59487 22.558096 60.687268 52.901731 25.851978 189.248454 188.649567 335.576637 384.885043 335.576636 214.40173 0 388.478367-174.076637 388.478367-388.478367 0-214.202101-174.276267-388.478367-388.478367-388.478367V2.096106c68.971879 0 135.947466 13.474969 198.930469 40.125464C769.72126 67.973733 824.419653 104.805315 871.332508 151.71817c46.912855 46.912855 83.744437 101.611248 109.496601 162.398331 26.650494 62.983004 40.125463 129.95859 40.125463 198.930469 0 68.971879-13.474969 135.947466-40.125463 198.930469C955.076946 772.864337 918.245364 827.462915 871.332508 874.37577c-46.912855 46.912855-101.611248 83.744437-162.398331 109.496601-62.983004 26.650494-129.95859 40.125463-198.930469 40.125463-69.071693 0.199629-135.947466-13.375154-199.030283-40.025649z"  /></svg>