<?xml version="1.0" standalone="no"?><!DOCTYPE svg PUBLIC "-//W3C//DTD SVG 1.1//EN" "http://www.w3.org/Graphics/SVG/1.1/DTD/svg11.dtd"><svg class="icon" width="200px" height="200.00px" viewBox="0 0 1024 1024" version="1.1" xmlns="http://www.w3.org/2000/svg"><path fill="#333333" d="M680.8 0H58.3C26.1 0 0 26.1 0 58.3v622.5c0 32.2 26.1 58.3 58.3 58.3h622.5c32.2 0 58.3-26.1 58.3-58.3V58.3C739.1 26.1 713 0 680.8 0z"  /><path fill="#333333" d="M799.1 58.3v682.5c0 32.2-26.1 58.3-58.3 58.3H58.3c-32.2 0-58.3 26-58.3 58.2v108.4c0 32.2 26.1 58.3 58.3 58.3h907.5c32.2 0 58.3-26.1 58.3-58.3V58.3C1024 26.1 997.9 0 965.7 0H857.3c-32.2 0-58.2 26.1-58.2 58.3zM467.3 911.5c0 19.9-16.1 36-36 36H216c-19.9 0-36-16.1-36-36s16.1-36 36-36h215.3c19.9 0 36 16.1 36 36z m480.2-480.2c0 19.9-16.1 36-36 36s-36-16.1-36-36V216c0-19.9 16.1-36 36-36s36 16.1 36 36v215.3z"  /></svg>