<?xml version="1.0" standalone="no"?><!DOCTYPE svg PUBLIC "-//W3C//DTD SVG 1.1//EN" "http://www.w3.org/Graphics/SVG/1.1/DTD/svg11.dtd"><svg class="icon" width="200px" height="200.00px" viewBox="0 0 1024 1024" version="1.1" xmlns="http://www.w3.org/2000/svg"><path fill="#333333" d="M848.9 118h-93.5c-8.7 0-15.8-7.1-15.8-15.8V60.6c0-16.3-12.8-30.2-29.2-30.6-17-0.5-30.8 13.1-30.8 30v42.3c0 8.7-7.1 15.8-15.8 15.8H363.3c-8.7 0-15.8-7.1-15.8-15.8V60.6c0-16.3-12.8-30.2-29.2-30.6-17-0.5-30.8 13.1-30.8 30v42.3c0 8.7-7.1 15.8-15.8 15.8h-96.6C98.8 118 37 179.8 37 256.1v599.8C37 932.2 98.8 994 175.1 994h673.7c76.3 0 138.1-61.8 138.1-138.1V256.1c0.1-76.3-61.7-138.1-138-138.1zM927 856c0 43.2-35 78.1-78.1 78.1H175.1c-43.1 0-78.1-35-78.1-78.1V402.7c0-11.4 9.2-20.6 20.6-20.6h788.9c11.4 0 20.6 9.2 20.6 20.6L927 856z m-20.6-533.9H117.6c-11.4 0-20.6-9.2-20.6-20.6v-45.4c0-43.2 35-78.1 78.1-78.1h96.6c8.7 0 15.8 7.1 15.8 15.8v41.7c0 16.3 12.8 30.2 29.2 30.6 17 0.5 30.8-13.1 30.8-30v-42.3c0-8.7 7.1-15.8 15.8-15.8h300.5c8.7 0 15.8 7.1 15.8 15.8v41.7c0 16.3 12.8 30.2 29.2 30.6 17 0.5 30.8-13.1 30.8-30v-42.3c0-8.7 7.1-15.8 15.8-15.8h93.5c43.2 0 78.1 35 78.1 78.1v45.4c0 11.4-9.2 20.6-20.6 20.6z"  /><path fill="#333333" d="M411.6 831.3c11.7 11.7 30.7 11.7 42.4 0l304.1-304.1c11.7-11.7 11.7-30.7 0-42.4s-30.7-11.7-42.4 0L454.1 746.5c-11.7 11.7-30.7 11.7-42.4 0L308.3 643.2c-11.7-11.7-30.7-11.7-42.4 0s-11.7 30.7 0 42.4l145.7 145.7z"  /></svg>