<?xml version="1.0" standalone="no"?><!DOCTYPE svg PUBLIC "-//W3C//DTD SVG 1.1//EN" "http://www.w3.org/Graphics/SVG/1.1/DTD/svg11.dtd"><svg class="icon" width="200px" height="200.00px" viewBox="0 0 1024 1024" version="1.1" xmlns="http://www.w3.org/2000/svg"><path fill="#333333" d="M832.8 0H191.2C85.6 0 0 85.6 0 191.2v641.6C0 938.4 85.6 1024 191.2 1024h641.6c105.6 0 191.2-85.6 191.2-191.2V191.2C1024 85.6 938.4 0 832.8 0zM702.1 637.8L734.7 828c2.5 14.9-13 26.2-26.4 19.2l-170.9-89.8c-16-8.4-35-8.4-51 0l-170.9 89.8c-13.3 7-28.9-4.3-26.4-19.2l32.6-190.3c3-17.8-2.8-35.9-15.8-48.5l-138-134.7c-10.8-10.5-4.8-28.9 10.1-31l191-27.8c17.8-2.6 33.3-13.8 41.3-30l85.4-173.1c6.7-13.5 25.9-13.5 32.6 0l85.4 173.1c8 16.2 23.4 27.4 41.3 30l191 27.8c14.9 2.2 20.9 20.5 10.1 31L717.9 589.3a54.981 54.981 0 0 0-15.8 48.5z"  /></svg>