<?xml version="1.0" standalone="no"?><!DOCTYPE svg PUBLIC "-//W3C//DTD SVG 1.1//EN" "http://www.w3.org/Graphics/SVG/1.1/DTD/svg11.dtd"><svg class="icon" width="200px" height="200.00px" viewBox="0 0 1024 1024" version="1.1" xmlns="http://www.w3.org/2000/svg"><path fill="#333333" d="M503.9 204.8c2.6 0 5.2 0.7 7.9 2.3l424.5 252.5c5.1 3.1 7.7 7.6 7.7 13.6s-2.6 10.6-7.7 13.6L511.7 739c-2.7 1.6-5.3 2.4-7.9 2.4-5.2 0-15.9-3.9-15.9-15.9v-99.8c0-48-39.1-87.1-87.1-87.1-3.8 0-7.7 0.3-11.5 0.8-113.2 15.1-217 67.3-296.5 145.2 15-54.8 43-105.6 82.3-148.2 61.1-66.1 143.9-106.7 233.1-114.2 44.8-3.8 79.8-41.9 79.8-86.8V220.7c0-12 10.7-15.9 15.9-15.9m0-80c-50 0-95.9 39.9-95.9 95.9v114.9c0 3.7-2.8 6.8-6.5 7.1C176.6 361.6 0 550.2 0 779.9c0 35.7 4.2 70.5 12.4 103.9 2.5 10.1 11 15.4 19.5 15.4 7.4 0 14.8-4 18.3-12.3 59.6-142.4 191.4-247.1 349.7-268.2 0.4-0.1 0.7-0.1 1-0.1 3.8 0 7.1 3.1 7.1 7.1v99.8c0 56 45.9 95.9 95.9 95.9 16.3 0 33.1-4.3 48.8-13.6l424.5-252.4c62.4-37.1 62.4-127.4 0-164.6L552.7 138.4c-15.7-9.3-32.5-13.6-48.8-13.6z"  /></svg>