<?xml version="1.0" standalone="no"?><!DOCTYPE svg PUBLIC "-//W3C//DTD SVG 1.1//EN" "http://www.w3.org/Graphics/SVG/1.1/DTD/svg11.dtd"><svg class="icon" width="200px" height="200.00px" viewBox="0 0 1024 1024" version="1.1" xmlns="http://www.w3.org/2000/svg"><path fill="#333333" d="M368.2 612.9c-77.3 0-139.9-62.6-139.9-139.9v-89.5c0-21.7-17.6-39.4-39.4-39.4H36.1C16.2 344.2 0 360.4 0 380.3v397.2c0 19.9 16.2 36.1 36.1 36.1h53.8c20.7 0 37.1 17.3 36.1 37.8l-6 122.8c-0.4 9.1 10.9 13.4 16.7 6.5L266 826.4c6.9-8.2 17-12.9 27.7-12.9h362.2c19.9 0 36.1-16.2 36.1-36.1V667.9c0-30.4-24.6-55-55-55H368.2z"  /><path fill="#333333" d="M332 75.9c0-19.9 16.2-36.1 36.1-36.1h619.7c19.9 0 36.1 16.2 36.1 36.1v397.2c0 19.9-16.2 36.1-36.1 36.1H934c-20.7 0-37.1 17.3-36.1 37.8l6 122.8c0.4 9.1-10.9 13.4-16.7 6.5L758 522c-6.9-8.2-17-12.9-27.7-12.9H368.2c-19.9 0-36.1-16.2-36.1-36.1V75.9z"  /></svg>