<?xml version="1.0" standalone="no"?><!DOCTYPE svg PUBLIC "-//W3C//DTD SVG 1.1//EN" "http://www.w3.org/Graphics/SVG/1.1/DTD/svg11.dtd"><svg class="icon" width="200px" height="200.00px" viewBox="0 0 1024 1024" version="1.1" xmlns="http://www.w3.org/2000/svg"><path fill="#333333" d="M680.9 833.6c-18.4 18.4-48.3 18.4-66.7 0L401.4 620.7c-9.4-9.4-24.6-9.4-34 0L167.6 820.5c-20 20-19.4 52.9 1.7 71.9C260 974.2 380.2 1024 512 1024c251.6 0 460.7-181.4 503.8-420.5 3.4-19-18.7-31.8-33.5-19.6L680.9 833.6z"  /><path fill="#333333" d="M351 473.8c18.4-18.4 48.3-18.4 66.7 0l212.8 212.8c9.4 9.4 24.6 9.4 34 0l308.1-307.3c16.6-16.5 21.7-41.4 12.7-63.1C908.3 130.6 725.4 0 512 0 229.2 0 0 229.2 0 512c0 64.2 11.8 125.7 33.4 182.3 12.6 33 55 41.9 80 17L351 473.8z"  /></svg>