<?xml version="1.0" standalone="no"?><!DOCTYPE svg PUBLIC "-//W3C//DTD SVG 1.1//EN" "http://www.w3.org/Graphics/SVG/1.1/DTD/svg11.dtd"><svg class="icon" width="200px" height="199.03px" viewBox="0 0 1029 1024" version="1.1" xmlns="http://www.w3.org/2000/svg"><path fill="#333333" d="M1014.261452 177.515888L831.969352 5.671752c-3.880672-3.681664-9.054902-5.671752-14.428141-5.671752l-74.628316 0.995044H20.709805C9.266796 0.995044 0.012885 10.34846 0.012885 21.791468v981.511612c0 11.443008 9.253911 20.69692 20.69692 20.69692H1003.514974c11.443008 0 20.69692-9.253911 20.69692-20.69692v-737.327762l-3.38315-74.429307c-0.298513-5.273734-2.587115-10.34846-6.567292-14.030123zM146.18488 63.68283h654.938101c5.273734 0 10.34846 1.990088 14.229132 5.671752l77.712954 73.235254c4.079681 3.880672 6.467787 9.253911 6.467787 14.925663l1.293557 211.844913c0.099504 11.443008-9.253911 20.796424-20.696919 20.796424h-25.075114c-11.443008 0-20.69692-9.253911-20.69692-20.69692V217.417161c0-11.443008-9.253911-20.69692-20.69692-20.69692h-28.756777c-11.443008 0-20.69692 9.253911-20.69692 20.69692v152.14226c0 11.443008-9.253911 20.69692-20.69692 20.696919h-63.483821c-11.443008 0-20.69692-9.253911-20.696919-20.696919V153.734331c0-11.443008-9.253911-20.69692-20.69692-20.69692h-83.981731c-11.443008 0-20.69692 9.253911-20.69692 20.69692v215.82509c0 11.443008-9.253911 20.69692-20.69692 20.696919H146.18488c-11.443008 0-20.69692-9.253911-20.69692-20.696919V84.479254c0-11.443008 9.253911-20.796424 20.69692-20.796424z m-20.69692 871.459722V534.836265c0-11.443008 9.253911-20.69692 20.69692-20.69692H881.22404c11.343504 0 20.597415 9.154407 20.69692 20.597415l2.487611 400.405792c0.099504 11.443008-9.253911 20.796424-20.69692 20.796424H146.18488c-11.443008-0.099504-20.69692-9.353416-20.69692-20.796424z" /></svg>