<?xml version="1.0" standalone="no"?><!DOCTYPE svg PUBLIC "-//W3C//DTD SVG 1.1//EN" "http://www.w3.org/Graphics/SVG/1.1/DTD/svg11.dtd"><svg class="icon" width="200px" height="200.00px" viewBox="0 0 1024 1024" version="1.1" xmlns="http://www.w3.org/2000/svg"><path fill="#333333" d="M1009.4 938.6L712.7 642c52.3-67.4 83.5-152 83.5-243.9C796.2 178.2 618 0 398.1 0 178.2 0 0 178.2 0 398.1 0 618 178.2 796.2 398.1 796.2c91.9 0 176.5-31.2 243.9-83.5l296.6 296.6c19.5 19.5 51.2 19.5 70.7 0 19.6-19.5 19.6-51.1 0.1-70.7zM514.1 672.8c-36.7 15.5-75.7 23.4-116 23.4s-79.3-7.9-116-23.4c-35.5-15-67.4-36.5-94.8-63.9-27.4-27.4-48.9-59.3-63.9-94.8-15.5-36.7-23.4-75.7-23.4-116s7.9-79.3 23.4-116c15-35.5 36.5-67.4 63.9-94.8 27.4-27.4 59.3-48.9 94.8-63.9 36.7-15.5 75.7-23.4 116-23.4s79.3 7.9 116 23.4c35.5 15 67.4 36.5 94.8 63.9 27.4 27.4 48.9 59.3 63.9 94.8 15.5 36.7 23.4 75.7 23.4 116s-7.9 79.3-23.4 116c-15 35.5-36.5 67.4-63.9 94.8-27.4 27.4-59.3 48.9-94.8 63.9z"  /></svg>