<?xml version="1.0" standalone="no"?><!DOCTYPE svg PUBLIC "-//W3C//DTD SVG 1.1//EN" "http://www.w3.org/Graphics/SVG/1.1/DTD/svg11.dtd"><svg class="icon" width="200px" height="200.00px" viewBox="0 0 1024 1024" version="1.1" xmlns="http://www.w3.org/2000/svg"><path d="M1012.801094 959.306318L791.422713 737.927937c-1.699834-1.699834-1.999805-4.499561-0.499952-6.499366 37.996289-50.395079 60.594083-113.188946 60.594083-181.182306 0-166.383752-134.886827-301.270579-301.270579-301.270579-166.383752 0.09999-301.270579 134.886827-301.270579 301.370569 0 166.383752 134.886827 301.270579 301.270579 301.270579 67.99336 0 130.787228-22.597793 181.182306-60.594082 1.999805-1.499854 4.699541-1.299873 6.499366 0.499951L959.306318 1012.901084c14.798555 14.798555 38.696221 14.798555 53.494776 0 14.798555-14.798555 14.798555-38.696221 0-53.594766zM638.037692 758.225954C610.240406 769.924812 580.743287 775.924226 550.246265 775.924226s-59.994141-5.999414-87.791427-17.698272c-26.897373-11.398887-50.99502-27.597305-71.692998-48.395273-20.697979-20.697979-36.996387-44.895616-48.395274-71.692999-11.698858-27.797285-17.698272-57.294405-17.698272-87.791427s5.999414-59.994141 17.698272-87.791426c11.398887-26.897373 27.597305-50.99502 48.395274-71.692999 20.697979-20.697979 44.895616-36.996387 71.692998-48.395274 27.797285-11.698858 57.294405-17.698272 87.791427-17.698272s59.994141 5.999414 87.791427 17.698272c26.897373 11.398887 50.99502 27.597305 71.692998 48.395274 20.697979 20.697979 36.996387 44.895616 48.395274 71.692999 11.698858 27.797285 17.698272 57.294405 17.698272 87.791426s-5.999414 59.994141-17.698272 87.791427c-11.398887 26.897373-27.597305 50.99502-48.395274 71.692999-20.697979 20.697979-44.795625 36.996387-71.692998 48.395273z" fill="#040000" /><path d="M296.970999 157.984572H162.984084c-2.699736 0-4.999512 2.199785-4.999512 4.999512v133.986915c0 2.699736 2.199785 4.999512 4.999512 4.999512h133.986915c2.699736 0 4.999512-2.199785 4.999512-4.999512V162.984084c0-2.799727-2.199785-4.999512-4.999512-4.999512zM869.315106 684.933112c-1.399863 3.299678 0.999902 6.899326 4.599551 6.899326l70.093155-0.09999v-0.19998h34.996582c2.699736 0 4.999512-2.199785 4.999512-4.999512V528.948345c0-2.699736-2.199785-4.999512-4.999512-4.999512H948.907333c-2.699736 0-4.999512 2.199785-4.999511 4.999512l0.19998 117.888487c0 2.699736-2.199785 4.999512-4.899522 4.999512l-54.194707 0.09999c-2.199785 0-4.0996 1.399863-4.699541 3.499659-0.999902 2.999707-1.999805 6.099404-2.999707 9.099111-2.499756 6.799336-5.199492 13.598672-7.999219 20.398008zM162.984084 825.919344h133.986915c2.699736 0 4.999512-2.199785 4.999512-4.999512v-27.297334c0-1.299873-0.499951-2.499756-1.399864-3.399668-29.79709-30.996973-53.294795-66.593497-69.493213-105.289718-0.799922-1.799824-2.599746-2.999707-4.599551-2.999707H162.984084c-2.699736 0-4.999512 2.199785-4.999512 4.999512v133.986915c0 2.799727 2.199785 4.999512 4.999512 4.999512zM550.246265 204.08007c2.899717 0 5.799434 0 8.59916 0.099991s5.099502-2.199785 5.099502-4.999512V44.995606c0-2.699736 2.199785-4.999512 4.999512-4.999512h369.963871c2.699736 0 4.999512 2.199785 4.999512 4.999512v369.963871c0 2.699736-2.199785 4.999512-4.999512 4.999511h-60.494093c-3.499658 0-5.899424 3.499658-4.59955 6.699346 3.699639 9.699053 6.999316 19.598086 9.799043 29.59711 0.599941 2.099795 2.499756 3.599648 4.799531 3.599648H978.904404c2.699736 0 4.999512-2.199785 4.999512-4.999511V4.999512c0-2.699736-2.199785-4.999512-4.999512-4.999512H528.948345c-2.699736 0-4.999512 2.199785-4.999512 4.999512v194.780978c0 2.799727 2.399766 5.099502 5.199492 4.899522 6.999316-0.399961 13.998633-0.599941 21.09794-0.599942z"  /><path d="M684.933112 231.177424c38.596231 16.298408 74.092764 39.696123 105.089737 69.493214 0.899912 0.899912 2.099795 1.399863 3.399668 1.399863H820.919832c2.699736 0 4.999512-2.199785 4.999512-4.999512V162.984084c0-2.699736-2.199785-4.999512-4.999512-4.999512H686.932917c-2.699736 0-4.999512 2.199785-4.999512 4.999512v63.593789c0 1.999805 1.199883 3.799629 2.999707 4.599551zM563.944927 943.907822v-42.495851c0-2.799727-2.299775-4.999512-5.099502-4.999511-2.899717 0.09999-5.799434 0.09999-8.69915 0.09999-7.099307 0-14.098623-0.19998-21.09794-0.599941-2.799727-0.19998-5.199492 2.099795-5.199492 4.899521V978.904404c0 2.699736 2.199785 4.999512 4.999512 4.999512h30.297041c2.799727 0 4.999512-2.199785 4.999512-4.999512l-0.299971-25.39752V943.907822zM714.630212 882.113856v-18.798164c0-3.699639-3.899619-6.099404-7.199297-4.399571-9.699053 4.899522-19.598086 9.399082-29.59711 13.398692-1.899814 0.799922-3.099697 2.599746-3.099697 4.599551v101.99004c0 2.699736 2.199785 4.999512 4.999512 4.999512H709.930671c2.699736 0 4.999512-2.199785 4.999512-4.999512l-0.299971-72.392931v-24.397617zM221.978322 419.958988H44.995606c-2.699736 0-4.999512-2.199785-4.999512-4.999511V44.995606c0-2.699736 2.199785-4.999512 4.999512-4.999512h369.963871c2.699736 0 4.999512 2.199785 4.999511 4.999512v177.082707c0 3.499658 3.499658 5.899424 6.699346 4.59955 9.699053-3.699639 19.598086-6.999316 29.59711-9.799043 2.099795-0.599941 3.599648-2.499756 3.599648-4.799531V4.999512c0-2.699736-2.199785-4.999512-4.999511-4.999512H4.999512C2.199785 0 0 2.199785 0 4.999512v449.956059c0 2.699736 2.199785 4.999512 4.999512 4.999512h207.079777c2.199785 0 4.19959-1.499854 4.799531-3.599649 2.799727-9.999024 6.099404-19.898057 9.799043-29.59711 1.199883-3.299678-1.199883-6.799336-4.699541-6.799336zM815.62035 944.807734V978.904404c0 2.699736 2.199785 4.999512 4.999511 4.999512H850.916903c2.799727 0 4.999512-2.199785 4.999511-4.999512v-3.899619c0-1.299873-0.499951-2.499756-1.499853-3.499659l-30.297041-30.297041c-3.199688-2.999707-8.49917-0.799922-8.49917 3.599649zM419.958988 878.614198V938.90831c0 2.699736-2.199785 4.999512-4.999511 4.999512H44.995606c-2.699736 0-4.999512-2.199785-4.999512-4.999512V568.944439c0-2.699736 2.199785-4.999512 4.999512-4.999512h154.184943c2.799727 0 4.999512-2.299775 4.999512-5.099502-0.09999-2.899717-0.09999-5.699443-0.099991-8.59916 0-7.099307 0.19998-14.098623 0.599942-21.09794 0.19998-2.799727-2.099795-5.199492-4.899522-5.199492H4.999512c-2.699736 0-4.999512 2.199785-4.999512 4.999512v449.956059c0 2.699736 2.199785 4.999512 4.999512 4.999512h449.956059c2.699736 0 4.999512-2.199785 4.999512-4.999512v-90.491163c0-2.199785-1.499854-4.19959-3.599649-4.799531-9.999024-2.799727-19.898057-6.099404-29.59711-9.799043-3.299678-1.099893-6.799336 1.299873-6.799336 4.799531z"  /></svg>