<?xml version="1.0" standalone="no"?><!DOCTYPE svg PUBLIC "-//W3C//DTD SVG 1.1//EN" "http://www.w3.org/Graphics/SVG/1.1/DTD/svg11.dtd"><svg class="icon" width="200px" height="200.00px" viewBox="0 0 1024 1024" version="1.1" xmlns="http://www.w3.org/2000/svg"><path fill="#333333" d="M40.9 1024H983c22.6 0 40.9-18.3 40.9-40.9V965c0-22.6-18.3-40.9-40.9-40.9H40.9C18.3 924 0 942.3 0 964.9V983c0 22.7 18.3 41 40.9 41zM466.6 462H42.4c-22.6 0-40.9 18.3-40.9 40.9V521c0 22.6 18.3 40.9 40.9 40.9h424.1c22.6 0 40.9-18.3 40.9-40.9v-18.1c0.1-22.6-18.2-40.9-40.8-40.9zM466.6 0H42.4C19.8 0 1.5 18.3 1.5 40.9V59c0 22.6 18.3 40.9 40.9 40.9h424.1c22.6 0 40.9-18.3 40.9-40.9V40.9C507.5 18.3 489.2 0 466.6 0zM965.3 222.3L755.7 12.7c-16-16-41.9-16-57.9 0s-16 41.9 0 57.9l180.6 180.6c16 16 16 41.9 0 57.9L701.3 486.2c-16 16-16 41.9 0 57.9l0.9 0.9c16 16 41.9 16 57.9 0l206.1-206.1 28.9-28.9c16-16 16-41.9 0-57.9l-29.8-29.8z" /></svg>