<?xml version="1.0" standalone="no"?><!DOCTYPE svg PUBLIC "-//W3C//DTD SVG 1.1//EN" "http://www.w3.org/Graphics/SVG/1.1/DTD/svg11.dtd"><svg class="icon" width="200px" height="200.00px" viewBox="0 0 1024 1024" version="1.1" xmlns="http://www.w3.org/2000/svg"><path fill="#333333" d="M737.6 212c13.5 0 24.4 11 24.4 24.4v451.2c0 13.5-11 24.4-24.4 24.4H286.4c-13.5 0-24.4-11-24.4-24.4V236.4c0-13.5 11-24.4 24.4-24.4h451.2m0-50H286.4c-41.1 0-74.4 33.3-74.4 74.4v451.2c0 41.1 33.3 74.4 74.4 74.4h451.2c41.1 0 74.4-33.3 74.4-74.4V236.4c0-41.1-33.3-74.4-74.4-74.4z"  /><path fill="#333333" d="M243.6 451.8h536.8v50H243.6zM254.5 271.8h527v100h-527zM241.6 581.9h536.8v50H241.6zM537 69.7V40.3c0-5.7-4.6-10.3-10.3-10.3h-29.5c-5.7 0-10.3 4.6-10.3 10.3v29.5c0 5.7-4.6 10.3-10.3 10.3h-29.5c-5.7 0-10.3 4.6-10.3 10.3v29.5c0 5.7 4.6 10.3 10.3 10.3h129.5c5.7 0 10.3-4.6 10.3-10.3V90.3c0-5.7-4.6-10.3-10.3-10.3h-29.5c-5.5 0-10.1-4.6-10.1-10.3zM782 826.9H242c-16.6 0-30 13.4-30 30s13.4 30 30 30h197.6l-85.9 85.9c-11.7 11.7-11.7 30.7 0 42.4s30.7 11.7 42.4 0l94.7-94.7c11.7-11.7 30.7-11.7 42.4 0l94.7 94.7c11.7 11.7 30.7 11.7 42.4 0s11.7-30.7 0-42.4l-85.9-85.9H782c16.6 0 30-13.4 30-30s-13.4-30-30-30z"  /></svg>