<?xml version="1.0" standalone="no"?><!DOCTYPE svg PUBLIC "-//W3C//DTD SVG 1.1//EN" "http://www.w3.org/Graphics/SVG/1.1/DTD/svg11.dtd"><svg class="icon" width="200px" height="200.00px" viewBox="0 0 1024 1024" version="1.1" xmlns="http://www.w3.org/2000/svg"><path fill="#333333" d="M938.6 244H85.4C38.3 244 0 282.3 0.1 329.4v365.2c0 47.1 38.2 85.4 85.4 85.4h853.1c47.1 0 85.4-38.3 85.4-85.5V329.4c0-47.1-38.3-85.4-85.4-85.4z m15.3 450.5c0 8.5-3.4 15.4-7.7 15.4H518.7c-4.3 0-7.7-6.9-7.7-15.4V329.4c0-8.5 3.4-15.4 7.7-15.4h427.5c4.3 0 7.7 6.9 7.7 15.4v365.1z"  /><path fill="#333333" d="M707.5 457.9c-13.1-15.2-32.1-26.2-56.6-32.8l-1.3-0.3h-1.3c-4.6 0-8.8-1.3-12.8-4l-2.5-1.7h-3c-3.7 0-7 1.7-11.2 4.5l-0.8 0.6-0.7 0.7c-0.6 0.6-1.1 1.1-1.5 1.4l-0.3 0.1c-22.5 4.2-40.4 14-53.2 29.2-12.6 14.9-20.3 35.2-22.8 60.3l-0.1 0.9 0.1 0.9c2.1 27 11.1 48.1 26.9 62.8 15.6 14.6 37.8 22.7 66.1 24.3h0.8c29.2-1 52.1-8.9 68.3-23.4 16.3-14.7 25.6-36.1 27.7-63.6v-1.2c-1.4-23.7-8.6-43.3-21.8-58.7z m-74.6 108.3c-35.1-2.6-52.2-18.4-53.9-49.7 0.1-33.7 18.1-50.2 56.5-52 34.8 1.8 51.8 18.3 53.7 52-3.5 33-21.4 48.8-56.3 49.7zM924.3 504.1v-0.4c-2.1-48.6-28.9-75.4-77.5-77.5h-1.2c-20.7 1.5-39.7 8.3-56.7 20.4-2-6.6-7.8-15.9-25.2-17.5l-1.7-0.2-1.7 0.4c-12.2 3.1-18.7 12.2-17.5 24.4v7.6l0.2 1.1c3.6 16.3 5.4 28.9 5.4 37.5 0 24.9-0.5 43.7-1.4 55.9v0.8c0 14.5-0.5 25.5-1.3 32.7l-0.1 0.6v0.6c0 6.9 3 10.4 5.5 12.2 1.4 1 3.8 2.3 7.2 2.3 1 0 2.1-0.1 3.3-0.4 26.6-2.2 29.5-19.5 29.5-26.9v-2.4l-1-1.9c-0.1-0.3-0.4-1.8-0.4-5.6v-0.6c-1.8-30.9-2.3-55.4-1.5-72.8 12.4-19.3 31.4-30 57.9-32.6 25.6 3.4 37.4 16.5 38.3 42.3-0.9 22.9-1.9 42.7-2.8 58.9v26.1c0 6.8 2.9 10.7 5.4 12.7 2.4 2 6.6 4 13.1 2.9 20.8-2.1 24.8-15.6 25.5-21.4l0.1-0.8v-0.8c-0.9-25.2-1.4-51.2-1.4-77.6z"  /></svg>