<?xml version="1.0" standalone="no"?><!DOCTYPE svg PUBLIC "-//W3C//DTD SVG 1.1//EN" "http://www.w3.org/Graphics/SVG/1.1/DTD/svg11.dtd"><svg class="icon" width="200px" height="200.00px" viewBox="0 0 1024 1024" version="1.1" xmlns="http://www.w3.org/2000/svg"><path fill="#333333" d="M1022.8 153c-3.6-26.6-21.8-50.3-54.1-70.6-27.1-17-64.8-31.9-111.9-44.3C764.3 13.5 641.8 0 511.9 0 382 0 259.5 13.5 167.1 38.1 120 50.6 82.4 65.5 55.3 82.3l-0.1 0.1C23.8 102.1 5.8 125 1.5 150.5H0.4v245.6c0 1-0.1 2.2 0 3.6v456.9l0.1 21.2h1.9c5.6 23.9 23.3 45.3 52.9 63.9 27.1 17 64.8 31.9 111.9 44.3 92.7 24.5 215.2 38 344.9 38 129.8 0 252.2-13.5 344.8-38 47.2-12.5 84.8-27.4 111.9-44.3 29.6-18.6 47.3-40.1 52.8-64h2.1V153h-0.9zM186.3 913.8c-39.7-10.6-71.3-22.9-91.5-35.5-1.8-1.1-3.5-2.2-5-3.2-5.4-3.8-8.9-7-11.1-9.3-0.1-0.1-0.2-0.2-0.2-0.3-1.6-1.8-2.5-3.1-2.9-3.8-0.1-0.2-0.2-0.4-0.2-0.5l8.4-18.9h-8.5V720.5c24.6 12.4 55.4 23.5 91.8 33.1 92.9 24.6 215.4 38.1 344.9 38.1 129.8 0 252.2-13.5 344.8-38 36.5-9.7 67.3-20.8 91.9-33.1v124.2h-0.1V861c-0.9 1.8-4.7 8.1-19.6 17.4-20.1 12.6-51.7 24.9-91.4 35.5-86.4 22.9-202.1 35.5-325.7 35.5-123.3 0-238.9-12.7-325.6-35.6zM118.2 507c20.1 7.1 41.5 13.4 65.2 19 19.8 4.7 41.1 9.1 65.3 13.2 41.8 7.1 84.6 12.2 130.8 15.6 43 3.2 87 4.8 130.8 4.8 46.2 0 89-1.5 130.8-4.6 47.3-3.5 90-8.5 130.8-15.3 24.2-4.1 45.5-8.4 65.2-13.1 23.6-5.5 44.9-11.7 65.4-18.7 11.6-4 22.3-8.2 32.7-12.9 4.5-2 9-4.1 13.5-6.3v136.5c-0.1 0.8-0.1 1.5 0 2.3v0.8c-1.1 2.4-6 8.8-19.6 17.4-20.1 12.6-51.7 24.9-91.4 35.5-86.4 22.9-202.1 35.5-325.7 35.5h-3.4v-0.1l-14.4-0.1c-116.6-1.2-225.9-13.7-307.7-35.4-39.9-10.7-71.4-22.9-91.3-35.5-13.8-8.6-18.7-15.2-19.7-17.4l7.9-18.5h-8.1V489c15 7.6 29.7 13.3 42.9 18z m830.7-109.8c0 0.1-0.1 0.3-0.2 0.6 0 0.1-0.5 1-2.2 3.2-0.3 0.3-0.5 0.6-0.8 1l-0.1 0.1c-3.1 3.7-8.6 8-16.3 12.8-3.8 2.3-7.7 4.4-11.4 6.4-1 0.5-2.1 1-3.1 1.5-3.2 1.6-6.1 3.1-9.2 4.3l-0.2 0.1c-8.7 3.8-17.8 7.4-27 10.6-2.2 0.8-4.3 1.5-6.5 2.2-15.5 5.1-32.3 9.9-51.4 14.3-18.5 4.4-38.3 8.3-60.4 12-39.5 6.5-81.2 11.4-123.9 14.4-39.7 2.9-81.9 4.4-125.3 4.4-5.4 0-10.8 0-16.1-0.1-37.5-0.4-74.2-1.9-109.2-4.5-44.7-3.4-85.2-8.3-123.9-14.8-4.9-0.8-9.9-1.7-14.9-2.6-2.5-0.5-5-0.9-7.5-1.4-12.6-2.4-25.3-5.2-38-8.2-21-4.9-39.8-10.4-57.7-16.8-4.8-1.7-9.4-3.4-13.8-5.2-3.7-1.5-7.4-3-10.9-4.6-0.7-0.3-1.3-0.6-2-0.9l-0.5-0.2-1.8-0.9c-3.5-1.7-6.8-3.2-9.8-4.9l-0.6-0.3c-1.3-0.7-2.7-1.4-4.1-2.2l-1.2-0.7c-0.9-0.6-1.9-1.2-2.8-1.8-0.9-0.5-1.8-1.1-2.6-1.6l-0.2-0.1c-6.5-4.1-12.1-8.7-15.5-12.8-1.3-1.5-1.9-2.6-2.2-3.2V254.8c11.6 5.8 24.6 11.4 38.9 16.7 16.1 5.9 33.8 11.4 53.1 16.5 43.4 11.5 93.4 20.6 147.6 26.9 10.8 1.3 21.9 2.4 33 3.5 52.1 5 107.5 7.5 164.2 7.5 77.1 0 151.5-4.8 218.7-13.8 46-6.2 88.5-14.3 126.1-24.2 36.6-9.6 67.4-20.7 92-33.2v142.5z m-19.8-216.9c-20.1 12.6-51.7 24.9-91.4 35.5-86.3 22.9-202 35.6-325.7 35.6-123 0-238.7-12.6-325.7-35.6-39.7-10.6-71.3-22.9-91.4-35.5h-0.1c-13.2-8.2-18.3-14.6-19.5-17.1 1.2-2.5 6.2-8.8 19.6-17.3 20.1-12.6 51.7-24.9 91.4-35.5C272.7 87.5 388.4 74.9 512 74.9c123.4 0 239.1 12.6 325.7 35.6 39.7 10.6 71.3 22.9 91.5 35.5 13.3 8.3 18.4 14.7 19.6 17.2-1.4 2.4-6.3 8.7-19.7 17.1z" /></svg>