<?xml version="1.0" standalone="no"?><!DOCTYPE svg PUBLIC "-//W3C//DTD SVG 1.1//EN" "http://www.w3.org/Graphics/SVG/1.1/DTD/svg11.dtd"><svg class="icon" width="200px" height="200.00px" viewBox="0 0 1024 1024" version="1.1" xmlns="http://www.w3.org/2000/svg"><path d="M0 33v958c0 18.2 14.8 33 33 33h958c18.2 0 33-14.8 33-33V33c0-18.2-14.8-33-33-33H33C14.8 0 0 14.8 0 33z m931 931H93c-18.2 0-33-14.8-33-33V735.6c0-18.2 14.8-33 33-33h838c18.2 0 33 14.8 33 33V931c0 18.2-14.8 33-33 33z m0-321.3H93c-18.2 0-33-14.8-33-33V414.3c0-18.2 14.8-33 33-33h838c18.2 0 33 14.8 33 33v195.4c0 18.2-14.8 33-33 33z m0-321.4H93c-18.2 0-33-14.8-33-33V93c0-18.2 14.8-33 33-33h838c18.2 0 33 14.8 33 33v195.4c0 18.2-14.8 32.9-33 32.9z" fill="#060001" /><path d="M840 240.6H611.6c-18.2 0-33-14.8-33-33v-34c0-18.2 14.8-33 33-33H840c18.2 0 33 14.8 33 33v34c0 18.3-14.8 33-33 33zM840 561.9H611.6c-18.2 0-33-14.8-33-33v-34c0-18.2 14.8-33 33-33H840c18.2 0 33 14.8 33 33v34c0 18.3-14.8 33-33 33zM840 883.3H611.6c-18.2 0-33-14.8-33-33v-34c0-18.2 14.8-33 33-33H840c18.2 0 33 14.8 33 33v34c0 18.2-14.8 33-33 33z" fill="#040000" /></svg>