<?xml version="1.0" standalone="no"?><!DOCTYPE svg PUBLIC "-//W3C//DTD SVG 1.1//EN" "http://www.w3.org/Graphics/SVG/1.1/DTD/svg11.dtd"><svg class="icon" width="200px" height="200.00px" viewBox="0 0 1024 1024" version="1.1" xmlns="http://www.w3.org/2000/svg"><path fill="#333333" d="M836.9 567V212.2c0-43.1-35-78-78-78H265c-43.1 0-78 35-78 78v375.5c0 43.1 35 78 78 78h494c43 0 77.9-34.9 78-77.9V571c0-1.3 0-2.6-0.1-4zM265 204.8v-0.1h494c4.2 0 7.5 3.4 7.5 7.5v253.2l-84-109.3c-12.3-16-35.5-18.4-50.8-5.3l-80.3 68.5c-15.7 13.4-39.6 10.4-51.6-6.5l-90.1-128c-11.8-16.6-35.2-19.9-51-7L257.5 360V212.3c0-4.2 3.4-7.5 7.5-7.5z m494 390.7H265c-4.2 0-7.5-3.4-7.5-7.5V450.6l87-70.7c15.9-12.9 39.2-9.7 51 7l91.2 129.6c11.9 17 35.8 20 51.6 6.5l82.7-70.6c15.4-13.1 38.5-10.7 50.8 5.3l94.7 123.1v7c0 4.4-3.4 7.7-7.5 7.7z"  /><path fill="#333333" d="M923.1 70c17 0 30.9 13.9 30.9 30.9v822.2c0 17-13.9 30.9-30.9 30.9H100.9c-17 0-30.9-13.9-30.9-30.9V100.9c0-17 13.9-30.9 30.9-30.9h822.2m0-70H100.9C45.2 0 0 45.2 0 100.9v822.2C0 978.8 45.2 1024 100.9 1024h822.2c55.7 0 100.9-45.2 100.9-100.9V100.9C1024 45.2 978.8 0 923.1 0z"  /><path fill="#333333" d="M807 785.2H217c-16.6 0-30-13.4-30-30s13.4-30 30-30h590c16.6 0 30 13.4 30 30 0 16.5-13.4 30-30 30zM807 904.6H217c-16.6 0-30-13.4-30-30s13.4-30 30-30h590c16.6 0 30 13.4 30 30s-13.4 30-30 30z"  /></svg>