<?xml version="1.0" standalone="no"?><!DOCTYPE svg PUBLIC "-//W3C//DTD SVG 1.1//EN" "http://www.w3.org/Graphics/SVG/1.1/DTD/svg11.dtd"><svg class="icon" width="200px" height="200.00px" viewBox="0 0 1024 1024" version="1.1" xmlns="http://www.w3.org/2000/svg"><path fill="#333333" d="M1015.050874 728.528855V295.371155c0-17.498291-14.198613-31.796895-31.796895-31.796895H810.170882c-17.498291 0-31.796895-14.198613-31.796895-31.796895V116.588614c0-17.498291 14.198613-31.796895 31.796895-31.796894h52.294893c17.498291 0 31.796895-14.198613 31.796895-31.796895V31.796895c0-17.498291-14.198613-31.796895-31.796895-31.796895H609.390489c-17.498291 0-31.796895 14.198613-31.796895 31.796895v21.29792c0 17.498291 14.198613 31.796895 31.796895 31.796895h52.294893c17.498291 0 31.796895 14.198613 31.796895 31.796895v790.62279c0 17.498291-14.198613 31.796895-31.796895 31.796895h-52.294893c-17.498291 0-31.796895 14.198613-31.796895 31.796895v21.29792c0 17.498291 14.198613 31.796895 31.796895 31.796895h253.075286c17.498291 0 31.796895-14.198613 31.796895-31.796895V970.905185c0-17.498291-14.198613-31.796895-31.796895-31.796895h-52.294893c-17.498291 0-31.796895-14.198613-31.796895-31.796895V792.022654c0-17.498291 14.198613-31.796895 31.796895-31.796895h173.083097c17.498291 0 31.796895-14.198613 31.796895-31.696904z m-84.89171-348.26599v263.37428c0 17.498291-14.198613 31.796895-31.796895 31.796895h-88.191387c-17.498291 0-31.796895-14.198613-31.796895-31.796895V380.262865c0-17.498291 14.198613-31.796895 31.796895-31.796895h88.191387c17.598281 0 31.796895 14.198613 31.796895 31.796895z"  /><path fill="#333333" d="M40.746021 760.225759h538.347427c17.498291 0 31.796895-14.198613 31.796895-31.796895v-21.29792c0-17.498291-14.198613-31.796895-31.796895-31.796895H125.637731c-17.498291 0-31.796895-14.198613-31.796895-31.796894V380.262865c0-17.498291 14.198613-31.796895 31.796895-31.796895h453.455717c17.498291 0 31.796895-14.198613 31.796895-31.796895v-21.29792c0-17.498291-14.198613-31.796895-31.796895-31.796895H40.746021c-17.498291 0-31.796895 14.198613-31.796895 31.796895v433.1577c0 17.498291 14.298604 31.696905 31.796895 31.696904z"  /></svg>