<?xml version="1.0" standalone="no"?><!DOCTYPE svg PUBLIC "-//W3C//DTD SVG 1.1//EN" "http://www.w3.org/Graphics/SVG/1.1/DTD/svg11.dtd"><svg class="icon" width="200px" height="200.00px" viewBox="0 0 1024 1024" version="1.1" xmlns="http://www.w3.org/2000/svg"><path fill="#333333" d="M936.508544 239.976565h45.895518c22.897764 0 41.495948-18.598184 41.495948-41.495948V88.591349c0-48.995215-39.596133-88.591349-88.591349-88.591349H825.419393C802.521629 0 783.923445 18.598184 783.923445 41.495948v45.895518c0 84.291768 68.293331 152.585099 152.585099 152.585099z"  /><path fill="#333333" d="M936.508544 299.970706C819.120008 299.970706 723.929304 204.780002 723.929304 87.391466V41.495948C723.929304 18.598184 705.33112 0 682.433356 0H88.591349C39.596133 0 0 39.596133 0 88.591349v846.817302c0 48.895225 39.596133 88.591349 88.591349 88.591349h846.817302c48.895225 0 88.591349-39.596133 88.591349-88.591349v-593.941997c0-22.897764-18.598184-41.495948-41.495948-41.495948h-45.995508zM697.931843 483.052827h-24.597598c-100.190216-5.499463-149.385412-5.499463-147.485597 0-5.499463 54.594668-8.199199 101.090128-8.1992 139.286398 0 40.096084 2.699736 72.892882 8.1992 98.290401 0 9.099111 2.699736 20.997949 8.199199 35.496534 5.499463 16.398399 8.199199 27.297334 8.199199 32.796797-1.799824 23.697686-13.698662 37.296358-35.496533 40.995996-20.098037-5.499463-30.996973-19.098135-32.796798-40.995996-1.799824-36.396446-1.799824-87.391466 0-152.98506s2.699736-118.388439 2.699737-158.384533h-38.19627c-38.19627 3.699639-71.992969 9.099111-101.090128 16.398399-3.699639 1.799824-8.199199 3.699639-13.698662 5.499462-16.398399 5.499463-28.297237 5.499463-35.496534 0-9.099111 0-12.79875-3.599648-10.898935-10.898935 0-27.297334 13.698662-43.695733 40.995996-49.195196 7.299287 0 19.998047 1.799824 38.19627 5.499463 14.598574 1.799824 27.297334 2.699736 38.19627 2.699736 194.880969 3.699639 310.469681-0.899912 346.866126-13.698662 1.799824 0 3.599648 1.799824 5.499463 5.499463-18.198223 30.996973-34.496631 45.595547-49.095205 43.695733z"  /></svg>