<?xml version="1.0" standalone="no"?><!DOCTYPE svg PUBLIC "-//W3C//DTD SVG 1.1//EN" "http://www.w3.org/Graphics/SVG/1.1/DTD/svg11.dtd"><svg class="icon" width="200px" height="200.00px" viewBox="0 0 1024 1024" version="1.1" xmlns="http://www.w3.org/2000/svg"><path fill="#333333" d="M996.9 259.6H27.1C11.8 262.1 0 275.4 0 291.5v440.9c0 15 10.3 27.6 24.1 31.2h975.7c13.9-3.6 24.1-16.2 24.1-31.2V291.5c0.1-16-11.6-29.4-27-31.9zM937.6 646c0 17.8-14.5 32.4-32.4 32.4h-37.5c-0.8-0.1-1.6-0.1-2.4-0.1H118.8c-17.8 0-32.4-14.5-32.4-32.4v-268c0-17.8 14.5-32.4 32.4-32.4h786.4c17.9 0 32.4 14.5 32.4 32.4V646z"  /><path fill="#333333" d="M807.3 470.3h-268c-17.1 0-31 13.2-32.3 29.9l-0.1 21c0 17.9 14.6 32.4 32.4 32.4h268.1c17.9 0 32.4-14.5 32.4-32.4v-18.5c-0.1-17.9-14.7-32.4-32.5-32.4z"  /></svg>