<?xml version="1.0" standalone="no"?><!DOCTYPE svg PUBLIC "-//W3C//DTD SVG 1.1//EN" "http://www.w3.org/Graphics/SVG/1.1/DTD/svg11.dtd"><svg class="icon" width="200px" height="200.00px" viewBox="0 0 1024 1024" version="1.1" xmlns="http://www.w3.org/2000/svg"><path fill="#333333" d="M579.198252 640.983324l-54.398585 18.999506c-11.199709 3.899899-23.399391-1.999948-27.29929-13.199656l-31.599178-90.397649c-13.999636-39.998959-57.798496-61.09841-97.797455-47.098774-36.199058 12.69967-56.89852 49.698707-50.198694 86.297754l63.498348 181.695274c3.199917 9.099763-4.099893 18.499519-13.699644 17.599542-48.698733-4.399886-95.897505 40.498946-81.297885 96.197497l0.899977 3.299914c2.799927 10.599724 8.799771 19.99948 17.199552 26.8993l126.296714 94.597539c10.899716 8.099789 25.099347 10.299732 37.899014 5.899847l230.993991-80.797898c4.299888-1.499961 8.299784-3.799901 11.799693-6.699826 24.899352-20.799459 35.599074-55.498556 24.299368-87.897713l-54.59858-156.195937c-14.59962-41.798913-60.298431-63.79834-101.997346-49.19872z m98.197445 185.195182c12.69967 36.399053-6.499831 76.198018-42.898884 88.997685l-154.595978 53.998595c-0.099997 0-0.099997 0.099997-0.199995 0.099998-12.499675 4.299888-26.299316 1.999948-36.89904-5.699852l-92.097604-67.098254c-10.499727-8.699774-18.099529-20.499467-21.49944-33.699124-5.599854-21.399443 19.399495-37.499024 36.49905-23.499388l33.999115 27.799276c8.699774 7.199813 20.599464 9.199761 31.299186 5.499857 16.89956-5.899847 25.799329-24.399365 19.899483-41.298925l-84.097813-240.193751c-5.299862-14.99961 2.899925-31.399183 18.099529-36.299056 14.699618-4.699878 30.399209 3.599906 35.499077 18.199526l43.898858 125.596733c5.799849 16.699566 24.19937 25.499337 40.898936 19.699487l90.097656-31.49918c16.499571-5.799849 34.499102 2.899925 40.198954 19.399495l41.89891 119.996878z"  /><path fill="#333333" d="M794.492651 0h-564.985302C149.809423 0 85.211103 64.598319 85.211103 144.296246v564.985302c0 79.697927 64.598319 144.296246 144.296246 144.296246h5.899847c18.599516 0 35.899066-9.899742 44.898832-26.099321 2.799927-5.099867 6.099841-9.899742 9.99974-14.399626 0.099997-0.099997 0.199995-0.299992 0.299992-0.399989 9.099763-10.599724 1.699956-26.999298-12.29968-26.999298h-48.898728c-42.198902 0-76.398012-34.19911-76.398013-76.398012v-564.985302c0-42.198902 34.19911-76.398012 76.398013-76.398012h564.985301c42.198902 0 76.398012 34.19911 76.398013 76.398012v564.985302c0 42.198902-34.19911 76.398012-76.398013 76.398012h-19.799485c-21.799433 0-37.099035 21.599438-29.899222 42.198902l4.799875 13.599646c2.499935 7.29981 9.399755 12.099685 17.099556 12.099686h27.899274c79.697927 0 144.296246-64.598319 144.296246-144.296246v-564.985302C938.788897 64.598319 874.190577 0 794.492651 0z"  /><path fill="#333333" d="M496.500403 214.694415H327.304805c-23.899378 0-43.298874 19.399495-43.298874 43.298873v103.497308c0 23.899378 19.399495 43.298874 43.298874 43.298873h369.39039c23.899378 0 43.298874-19.399495 43.298874-43.298873V257.993288c0-23.899378-19.399495-43.298874-43.298874-43.298873H496.500403z m171.095549 160.995811h-96.697484c-23.899378 0-43.298874-19.399495-43.298874-43.298873v-45.298822c0-23.899378 19.399495-43.298874 43.298874-43.298873h96.697484c23.899378 0 43.298874 19.399495 43.298874 43.298873v45.298822c0 23.899378-19.399495 43.298874-43.298874 43.298873z"  /></svg>