<?xml version="1.0" standalone="no"?><!DOCTYPE svg PUBLIC "-//W3C//DTD SVG 1.1//EN" "http://www.w3.org/Graphics/SVG/1.1/DTD/svg11.dtd"><svg class="icon" width="200px" height="200.00px" viewBox="0 0 1024 1024" version="1.1" xmlns="http://www.w3.org/2000/svg"><path fill="#333333" d="M700 646.1H338.3c-59.1 0-107 47.9-107 107v159.7c0 59.1 47.9 107 107 107H700c59.1 0 107-47.9 107-107V753.1c0-59.1-47.9-107-107-107z"  /><path fill="#333333" d="M862 61.4v241.8c0 76.7-62.1 138.8-138.8 138.8H300.8C224.1 442 162 379.9 162 303.2V61.4c0-30.6-33.1-49.9-59.7-34.7C41.2 61.7 0 127.6 0 203.1V821c0 75.5 41.2 141.4 102.3 176.4 26.6 15.2 59.7-4 59.7-34.7V720.8c0-76.7 62.1-138.8 138.8-138.8h422.4c76.7 0 138.8 62.1 138.8 138.8v241.8c0 30.6 33.1 49.9 59.7 34.7 61.1-35 102.3-100.9 102.3-176.4V203.1c0-75.5-41.2-141.4-102.3-176.4-26.6-15.2-59.7 4.1-59.7 34.7z"  /><path fill="#333333" d="M445.6 360.1h272.8c51.5 0 93.3-41.8 93.3-93.3V97.4c0-51.5-41.8-93.3-93.3-93.3H445.6c-51.5 0-93.3 41.8-93.3 93.3v169.3c0 51.6 41.8 93.4 93.3 93.4zM619 123.5c0-30 24.3-54.3 54.3-54.3 30 0 54.3 24.3 54.3 54.3v117.1c0 30-24.3 54.3-54.3 54.3-30 0-54.3-24.3-54.3-54.3V123.5z"  /></svg>