<?xml version="1.0" standalone="no"?><!DOCTYPE svg PUBLIC "-//W3C//DTD SVG 1.1//EN" "http://www.w3.org/Graphics/SVG/1.1/DTD/svg11.dtd"><svg class="icon" width="200px" height="200.00px" viewBox="0 0 1024 1024" version="1.1" xmlns="http://www.w3.org/2000/svg"><path fill="#333333" d="M938.6 314c8.5 0 15.4 6.9 15.4 15.4v365.1c0 8.5-6.9 15.4-15.4 15.4H85.4c-8.5 0-15.4-6.9-15.4-15.4V329.4c0-8.5 6.9-15.4 15.4-15.4h853.2m0-70H85.4C38.3 244 0 282.3 0 329.4v365.1C0 741.7 38.3 780 85.4 780h853.1c47.2 0 85.4-38.3 85.4-85.4V329.4c0.1-47.1-38.2-85.4-85.3-85.4z"  /><path fill="#333333" d="M372.3 635.8H238.5c-3.8 0-6.9-3.1-6.9-6.9 0-3.8 3.1-6.9 6.9-6.9 31.3 0.2 44.7-10.5 40.5-32.1v-0.1-146-0.1c3.6-14.6-9.1-21.1-38.2-19.5-0.4 0-0.8-0.3-0.8-0.8v-0.1c0-7.6 6.3-14.1 13.9-14.5 22.8-1.1 40.4-6.7 52.9-17 2.9-2.4 6.6-3.8 10.3-3.8 8.9 0 16.1 7.2 16.1 16.1v185.7c-4.3 21.6 8.7 32.3 39.1 32.1 3.8 0 6.9 3.1 6.9 6.9-0.1 4-3.2 7-6.9 7zM579 541.2c4.1 0 7.3 3.4 7 7.5l-4.1 69.1c-0.6 10.1-9 18-19.1 18H440c-14.3 0-24.2-14.9-18-27.8 0.5-1.1 1.1-2 1.7-2.8 16.7-27.8 38.5-56.6 65.4-86.3 25.9-25 38.5-47.8 37.6-68.2-1.9-28.7-15.8-44-41.7-45.9h-0.1c-22.2 1.9-37.5 12.5-45.8 32h1.2c0.1 0 0.3 0 0.4-0.1 2.8-1.8 7.3-2.7 13.7-2.7h0.1c13.8 1.9 21.7 9.7 23.6 23.6v0.2c-1 18.5-9.7 28.2-26.4 29.1h-0.1c-19.4-0.9-29.6-12-30.6-33.3v-0.1c2.8-39.8 30.1-62.1 82-66.7h0.1c50 2.8 76.5 25.5 79.2 68.1v0.1c0 26.9-20.4 52.8-61.2 77.9-31.7 19-54.5 36.7-68.5 53-0.4 0.5-0.1 1.3 0.6 1.3H517c33 2.6 51.4-10.7 55.1-39.8 0.3-3.6 3.3-6.2 6.9-6.2zM646.7 427.6l0.6 0.6c0.2 0.2 0.5 0.3 0.7 0.2 3.5-0.9 7-1.8 10.6-2.6h0.3c14.7 1.9 23 9.7 24.9 23.6v0.2c-1 18.5-10.7 27.7-29.2 27.7-17.6-0.9-26.9-11.1-27.8-30.6v-0.1c1.9-36.1 27.3-56.1 76.5-59.8h0.1c50.9 3.7 78.7 24.6 83.4 62.5v0.2c-1.9 33.1-21.6 52.1-59.2 56.9-0.4 0-0.7 0.4-0.7 0.8s0.3 0.7 0.7 0.8c42.2 3 63.7 22.4 64.7 58.3v0.1c-5.6 45.4-38.1 69.1-97.4 70.9-50.1-0.9-76-19.5-77.9-55.6v-0.1c1.9-20.3 12.5-31.9 31.9-34.7h0.2c16.6 1.9 25.8 10.7 27.7 26.3v0.2c-1 17.6-9.3 26.4-25 26.4-5.6 0-10.2-1-13.7-3.1-0.6-0.4-1.3 0.2-1.2 0.9 4.4 17.3 20 25.9 46.9 25.9 31.5 0 47.8-18.5 48.7-55.6v-0.1c-1.9-31.5-13.4-48.6-34.7-51.4h-0.1c-3.7 0-7.8 0.9-12.3 2.7-0.1 0-0.2 0.1-0.3 0.1h-9.6c-8.3 0-12.5-3.2-12.5-9.7 0-4.6 4.6-7.4 13.9-8.3H692.3c22.2-1.9 34.7-18.1 37.5-48.6v-0.1c-1.9-28.7-15.3-44.4-40.3-47.2h-0.1c-19.2 0-33.5 7.3-42.7 21.7-0.3-0.1-0.2 0.3 0 0.6z"  /></svg>