<?xml version="1.0" standalone="no"?><!DOCTYPE svg PUBLIC "-//W3C//DTD SVG 1.1//EN" "http://www.w3.org/Graphics/SVG/1.1/DTD/svg11.dtd"><svg class="icon" width="200px" height="200.00px" viewBox="0 0 1024 1024" version="1.1" xmlns="http://www.w3.org/2000/svg"><path fill="#333333" d="M915.6 0H108.4C48.6 0 0 48.6 0 108.4v825.2c0 50 40.5 90.4 90.4 90.4h843.1c50 0 90.4-40.5 90.4-90.4V108.4C1024 48.6 975.4 0 915.6 0zM70 108.4C70 87.2 87.2 70 108.4 70h807.1c21.2 0 38.4 17.2 38.4 38.4v152.1c0 21.2-17.2 38.4-38.4 38.4H108.4C87.2 299 70 281.8 70 260.6V108.4zM317.5 954H90.4c-11.3 0-20.4-9.2-20.4-20.4V806.2h247.5V954z m0-217.8H70V587.4h247.5v148.8zM634.2 954H387.5V806.2h246.7V954z m0-217.8H387.5V587.4h246.7v148.8z m0-218.8H387.5V369.1h-70v148.3H70v-110c0-21.2 17.2-38.4 38.4-38.4h807.1c21.2 0 38.4 17.2 38.4 38.4v110H704.2V369.1h-70v148.3z m319.7 70v148.8H704.2V587.4h249.7zM933.6 954H704.2V806.2h249.7v127.4h0.1c0 11.3-9.2 20.4-20.4 20.4z" /></svg>