<?xml version="1.0" standalone="no"?><!DOCTYPE svg PUBLIC "-//W3C//DTD SVG 1.1//EN" "http://www.w3.org/Graphics/SVG/1.1/DTD/svg11.dtd"><svg class="icon" width="200px" height="200.00px" viewBox="0 0 1024 1024" version="1.1" xmlns="http://www.w3.org/2000/svg"><path fill="#333333" d="M1001.102236 741.927546h-59.894151c-12.59877 0-22.797774-10.199004-22.797774-22.797774v-50.99502c0-12.59877-10.199004-22.797774-22.797773-22.797773h-50.99502c-12.59877 0-22.797774-10.199004-22.797774-22.797774V22.797774C821.919734 10.199004 811.72073 0 799.121961 0h-34.496631C752.12655 0 741.927546 10.199004 741.927546 22.797774v599.841421c0 12.59877-10.199004 22.797774-22.797774 22.797774h-50.99502c-12.59877 0-22.797774 10.199004-22.797773 22.797774v50.99502c0 12.59877-10.199004 22.797774-22.797774 22.797773H22.797774C10.199004 741.927546 0 752.12655 0 764.72532v34.496631C0 811.72073 10.199004 821.919734 22.797774 821.919734h599.841421c12.59877 0 22.797774 10.199004 22.797774 22.797774v50.99502c0 12.59877 10.199004 22.797774 22.797774 22.797774h50.99502c12.59877 0 22.797774 10.199004 22.797773 22.797773v59.894151c0 12.59877 10.199004 22.797774 22.797774 22.797774h34.496631c12.59877 0 22.797774-10.199004 22.797774-22.797774v-59.894151c0-12.59877 10.199004-22.797774 22.797774-22.797773h50.99502c12.59877 0 22.797774-10.199004 22.797773-22.797774v-50.99502c0-12.59877 10.199004-22.797774 22.797774-22.797774h59.894151c12.59877 0 22.797774-10.199004 22.797773-22.797773v-34.496631c-0.299971-12.498779-10.498975-22.697783-23.097744-22.697784zM185.381896 472.553852h0.399961c46.295479-0.799922 76.792501-20.497998 90.591153-58.694268l0.599942-1.599844v-10.598965l-3.399668-2.999707c-6.299385-5.499463-14.098623-10.998926-23.197735-16.298408l-4.699541-2.699736-4.799531 2.399765c-4.799531 2.399766-7.699248 6.999316-7.699248 12.198809v2.299775l0.799922 1.599844c0.09999 0.499951 0.299971 1.799824 0.29997 4.499561-6.999316 23.197735-22.497803 34.896592-48.695244 36.896397-33.89669-1.999805-50.395079-17.398301-51.694952-48.395274 2.699736-39.496143 18.998145-59.49419 51.195001-62.793868 19.298115 0.09999 33.296748 8.099209 42.995801 24.397617l0.699931 1.199883 1.099893 0.999902c8.799141 8.199199 16.398399 8.39918 21.29792 7.199297 8.199199-1.999805 14.298604-9.299092 18.798164-22.097842l2.099795-5.999414-2.599746-2.599746v-6.899326h-9.399082c-0.399961-0.299971-0.699932-0.599941-0.899912-0.999902l-0.499951-0.699932-0.599942-0.599942c-16.398399-17.19832-41.095987-25.897471-73.392832-25.89747h-0.599942c-27.497315 1.599844-49.095206 10.498975-64.193731 26.397422-14.998535 15.798457-23.497705 38.496241-25.49751 67.493408v0.999903c0.899912 36.596426 17.598281 80.292159 90.991114 81.292061z"  /><path fill="#333333" d="M265.474075 455.055561c0 2.399766 0.699932 5.899424 4.099599 9.199102l0.599942 0.599941 0.599941 0.499951c6.999316 4.999512 15.298506 7.099307 24.797579 6.199395 7.099307-0.19998 12.79875-3.999609 15.898447-10.698955 4.29958-6.699346 10.798945-19.498096 19.698076-38.996192 21.29792-2.499756 42.69583-2.499756 63.993751-0.09999 6.499365 17.498291 12.69876 30.896983 18.798164 40.696025 2.299775 6.299385 7.699248 10.099014 14.598575 10.099014H430.357973c11.998828-0.799922 21.797871-4.0996 29.197149-9.599062l0.599941-0.399961 0.499951-0.499952c0.499951-0.499951 0.999902-1.099893 1.499854-1.799824-0.09999 0.799922-0.09999 1.599844-0.099991 2.299776v9.999023h7.999219l2.099795 2.099795 5.399473-1.299873c16.79836-3.999609 33.096768-5.399473 48.495264-4.0996 43.395762 7.499268 75.392637 2.499756 95.290694-14.998535 16.99834-14.998535 24.897569-38.596231 23.397715-70.193145v-0.399961c-4.799531-52.494874-32.796797-81.492042-81.09208-83.891807h-56.894444c-12.79875 0-21.39791 0.799922-26.897374 2.599746-6.699346 2.099795-17.798262 8.29919-17.798262 26.897373 0 6.199395 4.899522 11.098916 11.098917 11.098916h2.099795l0.999902-0.19998c2.799727-0.599941 5.099502-0.999902 6.999316-1.299873 1.199883 9.699053 2.099795 34.296651-0.29997 96.890538-10.798945 4.29958-16.298408 10.398984-18.898155 16.498388-0.19998-1.499854-0.599941-3.199688-1.499853-4.899521l-1.199883-2.499756-2.299776-1.499854c-8.59916-5.599453-15.898447-13.398692-21.797871-23.197734 5.999414-5.199492 10.598965-11.898838 13.698662-20.098037l5.199493-13.598672h-5.699444v-7.299288l-14.498584 7.299288c-4.29958 2.199785-9.299092 3.499658-14.798555 4.099599-8.39918-15.298506-18.098233-37.096377-28.897178-64.893663l-0.299971-0.699931-0.39996-0.699932c-1.999805-3.499658-2.999707-7.199297-2.999708-11.298896v-3.99961l-2.699736-2.899717c-6.899326-7.499268-14.198613-11.098916-21.797871-10.798945-7.199297 0.299971-13.798652 4.0996-19.498096 11.398887l-1.099893 1.399863-0.499951 1.599844c-0.999902 2.799727-1.499854 5.999414-1.599844 9.499072-0.499951 2.099795-0.799922 3.899619-0.999902 5.499463-20.298018 49.995118-44.295674 90.791134-71.193047 121.288156-2.999707 3.299678-3.699639 6.699346-3.699639 9.099111z m253.275266-92.990919c0.599941-16.198418 1.399863-24.497608 1.899814-28.797188 4.39957-0.499951 14.298604-1.099893 35.596524-0.599941h5.199492c27.897276 2.599746 42.095889 19.198125 44.695636 52.294893 0.699932 42.29587-18.198223 49.595157-32.496827 51.394981l-0.899912 0.09999-0.799922 0.299971c-5.499463 1.699834-18.998145 2.999707-51.294991-0.399961l-0.499951-0.09999h-0.699931c-0.699932-3.399668-1.799824-11.398887-1.799825-29.097159 0-13.598672 0.399961-28.697198 1.099893-45.095596zM364.964359 348.865931c1.799824 4.699541 3.999609 10.199004 6.499365 16.398399 3.999609 10.398984 7.399277 18.898154 10.398985 25.5975-13.798652 0.999902-25.897471 1.099893-36.296456 0.399961 5.399473-10.798945 11.898838-24.797578 19.398106-42.39586z"  /></svg>