<?xml version="1.0" standalone="no"?><!DOCTYPE svg PUBLIC "-//W3C//DTD SVG 1.1//EN" "http://www.w3.org/Graphics/SVG/1.1/DTD/svg11.dtd"><svg class="icon" width="200px" height="200.00px" viewBox="0 0 1024 1024" version="1.1" xmlns="http://www.w3.org/2000/svg"><path fill="#333333" d="M800 128c-10.624 0-21.12 0.736-31.584 2.24C708.672 48.832 614.368 0 512 0s-196.608 48.832-256.416 130.24C245.12 128.736 234.624 128 224 128 100.512 128 0 228.512 0 352s100.512 224 224 224c27.392 0 54.176-4.992 79.424-14.656C361.344 611.84 435.008 640 512 640c77.088 0 150.656-28.16 208.576-78.656C745.824 571.008 772.64 576 800 576c123.488 0 224-100.512 224-224S923.488 128 800 128zM192 640c-35.36 0-64 28.608-64 64s28.608 64 64 64 64-28.608 64-64S227.392 640 192 640zM512 704c-35.36 0-64 28.608-64 64s28.608 64 64 64 64-28.608 64-64S547.36 704 512 704zM832 640c-35.36 0-64 28.608-64 64s28.608 64 64 64 64-28.608 64-64S867.36 640 832 640zM704 896c-35.36 0-64 28.608-64 64s28.608 64 64 64 64-28.608 64-64S739.36 896 704 896zM320 896c-35.36 0-64 28.608-64 64s28.608 64 64 64 64-28.608 64-64S355.36 896 320 896z" /></svg>