<?xml version="1.0" standalone="no"?><!DOCTYPE svg PUBLIC "-//W3C//DTD SVG 1.1//EN" "http://www.w3.org/Graphics/SVG/1.1/DTD/svg11.dtd"><svg class="icon" width="200px" height="200.00px" viewBox="0 0 1024 1024" version="1.1" xmlns="http://www.w3.org/2000/svg"><path fill="#333333" d="M256 682.666667C138.24 682.666667 42.666667 587.093333 42.666667 469.333333 42.666667 351.573333 138.24 256 256 256 298.666667 155.733333 396.8 85.333333 512 85.333333 658.346667 85.333333 778.24 198.826667 789.333333 342.613333L810.666667 341.333333C904.96 341.333333 981.333333 417.706667 981.333333 512 981.333333 606.293333 904.96 682.666667 810.666667 682.666667L768 682.666667C744.533333 682.666667 725.333333 663.466667 725.333333 640 725.333333 616.533333 744.533333 597.333333 768 597.333333L810.666667 597.333333C857.6 597.333333 896 558.933333 896 512 896 465.066667 857.6 426.666667 810.666667 426.666667L725.333333 426.666667 725.333333 384C725.333333 266.24 629.76 170.666667 512 170.666667 405.333333 170.666667 317.866667 248.32 301.226667 349.44 287.146667 344.32 271.786667 341.333333 256 341.333333 185.173333 341.333333 128 398.506667 128 469.333333 128 540.16 185.173333 597.333333 256 597.333333L298.666667 597.333333C322.133333 597.333333 341.333333 616.533333 341.333333 640 341.333333 663.466667 322.133333 682.666667 298.666667 682.666667L256 682.666667M512 469.333333 640 469.333333 554.666667 640 640 640 480 938.666667 512 725.333333 405.333333 725.333333 512 469.333333Z" /></svg>