<?xml version="1.0" standalone="no"?><!DOCTYPE svg PUBLIC "-//W3C//DTD SVG 1.1//EN" "http://www.w3.org/Graphics/SVG/1.1/DTD/svg11.dtd"><svg class="icon" width="200px" height="200.00px" viewBox="0 0 1024 1024" version="1.1" xmlns="http://www.w3.org/2000/svg"><path fill="#333333" d="M878.56004 289.504C873.40804 122.784 735.85604 0 577.92004 0c-67.12 0-129.184 21.92-179.36 58.904C355.58404 20.8 300.85604 0 242.67204 0 113.27204 0 8.00004 104.648 8.00004 233.28a231.896 231.896 0 0 0 42.168 133.36A231.024 231.024 0 0 0 8.00004 499.888c0 128.632 105.28 233.28 234.672 233.28h33.52v33.328c0 18.4 15.016 33.328 33.528 33.328 18.52 0 33.52-14.92 33.52-33.328v-33.328h67.056v77.76c0 18.4 15.008 33.328 33.52 33.328 18.52 0 33.528-14.92 33.528-33.328v-77.76h67.048v33.328c0 18.4 15.008 33.328 33.52 33.328 18.52 0 33.528-14.92 33.528-33.328v-33.328h67.048v77.76c0 18.4 15.016 33.328 33.528 33.328s33.52-14.92 33.52-33.328v-77.76h33.528c129.4 0 234.672-104.648 234.672-233.28 0-90.528-53.424-172.288-135.176-210.4zM242.67204 66.64c39.392 0 76.56 13.376 106.48 37.952-39.04 45.112-64.832 101.84-71.336 164.192-11.52-1.736-32.4-3.552-40.84-2.112a234.344 234.344 0 0 0-139.4 49.992A165.6 165.6 0 0 1 75.04004 233.28c0-91.888 75.2-166.64 167.624-166.64z m536.384 599.88H242.67204c-92.424 0-167.624-74.752-167.624-166.64 0-90.032 72.224-163.568 162.088-166.48 7.4 1.304 71.384-3.704 124.064 48.656a33.664 33.664 0 0 0 47.408 0 33.184 33.184 0 0 0 0-47.12 237.472 237.472 0 0 0-65.096-46.016c5.808-123.544 108.72-222.272 234.4-222.272 113.368 0 216.24 82.104 231.76 201.552-29.856-3.704-59.832-1.968-88.48 5.336a236.168 236.168 0 0 0-108.064 61.392 33.192 33.192 0 0 0 0 47.128 33.664 33.664 0 0 0 47.408 0c48.32-48.024 117.936-57.96 173.344-38.784 67.472 23.368 112.8 86.312 112.8 156.616 0 91.88-75.2 166.632-167.624 166.632zM309.72004 866.48c18.512 0 33.52 14.92 33.52 33.328v88.872c0 18.4-15.008 33.328-33.52 33.328-18.52 0-33.52-14.928-33.52-33.328v-88.872c0-18.4 15.008-33.328 33.52-33.328z m268.192 0c18.52 0 33.52 14.92 33.52 33.328v88.872c0 18.4-15 33.328-33.52 33.328-18.512 0-33.52-14.928-33.52-33.328v-88.872c0-18.4 15.008-33.328 33.52-33.328z m-134.096 44.44c18.512 0 33.52 14.92 33.52 33.32v44.44c0 18.4-15 33.328-33.52 33.328-18.512 0-33.52-14.928-33.52-33.328v-44.44c0-18.4 15.008-33.32 33.52-33.32z m268.192 0c18.52 0 33.528 14.92 33.528 33.32v44.44c0 18.4-15.008 33.328-33.52 33.328-18.52 0-33.528-14.928-33.528-33.328v-44.44c0-18.4 15.008-33.32 33.52-33.32z"  /></svg>