<?xml version="1.0" standalone="no"?><!DOCTYPE svg PUBLIC "-//W3C//DTD SVG 1.1//EN" "http://www.w3.org/Graphics/SVG/1.1/DTD/svg11.dtd"><svg class="icon" width="200px" height="200.00px" viewBox="0 0 1024 1024" version="1.1" xmlns="http://www.w3.org/2000/svg"><path fill="#333333" d="M864.037678 525.262113c0 15.598875 12.599091 28.197966 28.197966 28.197967h103.492535c15.598875 0 28.197966-12.599091 28.197966-28.197967V28.197966c0-15.598875-12.599091-28.197966-28.297959-28.197966h-705.94908c-15.598875 0-28.197966 12.599091-28.097974 28.197966v103.592528c0 15.598875 12.599091 28.197966 28.197967 28.197966s28.197966-12.599091 28.197966-28.197966V84.693891c0-15.598875 12.599091-28.197966 28.197966-28.197966h593.057223c15.598875 0 28.197966 12.599091 28.197966 28.197966v384.17229c0 15.598875-12.599091 28.197966-28.197966 28.197966h-47.096603c-15.598875 0-28.197966 12.599091-28.097973 28.197966z"  /><path fill="#333333" d="M728.547451 235.283029H33.897555C15.198904 235.283029 0 250.481933 0 269.180584V754.945547c0 18.698651 15.198904 33.897555 33.897555 33.897555h73.994663c5.099632 0 9.099344 4.199697 8.899358 9.299329l-9.6993 198.085712c-1.199913 25.298175 30.397807 37.697281 46.596639 18.198688L332.476019 800.942229c6.399538-7.699445 15.998846-12.099127 25.998125-12.099127h370.073307c18.698651 0 33.897555-15.198904 33.897555-33.897555V269.180584c0-18.698651-15.198904-33.897555-33.897555-33.897555zM705.949081 698.449622c0 18.698651-15.198904 33.897555-33.897555 33.897555h-339.975478c-9.999279 0-19.498594 4.399683-25.998125 12.099127L184.786672 889.335853c-5.499603 6.499531-16.098839 2.399827-15.698868-6.09956l5.599596-115.291684c0.899935-19.298608-14.498954-35.49744-33.897555-35.49744H90.293487c-18.698651 0-33.897555-15.198904-33.897555-33.897555V325.676509c0-18.698651 15.198904-33.897555 33.897555-33.897555h581.758039c18.698651 0 33.897555 15.198904 33.897555 33.897555v372.773113z"  /><path fill="#333333" d="M219.784147 453.667277c-32.197678 0-58.395788 26.098118-58.395788 58.395788 0 32.197678 26.098118 58.395788 58.395788 58.395788 32.197678 0 58.395788-26.098118 58.395788-58.395788 0-32.197678-26.19811-58.395788-58.395788-58.395788zM381.272499 453.667277c-32.197678 0-58.395788 26.098118-58.395788 58.395788 0 32.197678 26.098118 58.395788 58.395788 58.395788 32.197678 0 58.395788-26.098118 58.395788-58.395788-0.099993-32.197678-26.19811-58.395788-58.395788-58.395788zM542.660858 453.667277c-32.197678 0-58.395788 26.098118-58.395788 58.395788 0 32.197678 26.098118 58.395788 58.395788 58.395788 32.197678 0 58.395788-26.098118 58.395788-58.395788 0-32.197678-26.19811-58.395788-58.395788-58.395788z"  /></svg>