<?xml version="1.0" standalone="no"?><!DOCTYPE svg PUBLIC "-//W3C//DTD SVG 1.1//EN" "http://www.w3.org/Graphics/SVG/1.1/DTD/svg11.dtd"><svg class="icon" width="200px" height="200.00px" viewBox="0 0 1024 1024" version="1.1" xmlns="http://www.w3.org/2000/svg"><path fill="#333333" d="M967.1 0H56.9C25.5 0 0 25.5 0 56.9v612.9C0 708.6 31.4 740 70.2 740h88.9c19.3 0 35-15.7 35-35s-15.7-35-35-35h-18.9c-38.8 0-70.2-31.4-70.2-70.2V240.4c0-8.5 9.3-13.6 16.5-9.2l191.9 81.2c8.1 3.4 17.3 1.8 23.9-4 9.1-8.1 18.7-15.5 28.5-22.4 14.6-10.2 12.2-32.5-4.3-39.4L75.4 142.1c-3.3-2.1-5.4-5.7-5.4-9.7v-5.5C70 95.5 95.5 70 126.9 70h770.2c28.2 0 51.7 20.6 56.1 47.6-3.2 22.8-16.4 43.3-36.4 55.5l-209.3 80.1c-16.7 6.4-19.7 28.6-5.4 39.3 12.2 9.1 23.8 19.2 34.7 30.2l0.3 0.3L954 232.5v367.3c0 38.8-31.4 70.2-70.2 70.2h-18.9c-19.3 0-35 15.7-35 35s15.7 35 35 35h88.9c38.8 0 70.2-31.4 70.2-70.2V56.9C1024 25.5 998.5 0 967.1 0z"  /><path fill="#333333" d="M799.9 849.6V577.5c0-76.9-30-149.2-84.3-203.6-30.5-30.5-66.7-53.4-106.2-67.5v-17c0-52.6-41.2-96.6-93.8-98.5-55.3-2-101 42.4-101 97.3v18.2c-39.5 14.2-75.7 37-106.2 67.5-54.4 54.4-84.3 126.7-84.3 203.6v272.1c-22.7 13.1-38.1 37.7-38.1 65.8 0 42 34 76 76 76h212.9c2.4 18.4 18.1 32.6 37.1 32.6s34.7-14.2 37.1-32.6H762c42 0 76-34 76-76 0-28.1-15.3-52.7-38.1-65.8zM474.6 288.1c0-21.4 18.1-38.7 39.8-37.3 19.8 1.3 35 18.2 35 38v3.1c-12.3-1.6-24.8-2.4-37.4-2.4s-25.1 0.8-37.4 2.4v-3.8zM762 941.4H262.5c-13.8 0-25.7-10.6-26.5-24.4-0.9-15.1 11.2-27.6 26.1-27.6 12.1 0 21.9-10.3 21.9-22.4V579.2c0-123.5 101-227.9 224.6-229.7 127.2-1.9 231.3 101.1 231.3 227.9v228.9c0 18.3-14.8 33.1-33.1 33.1H369.5c-13.8 0-25 11.2-25 25s11.2 25 25 25h391.9c13.7 0 25.4 10.4 26.5 24 1.2 15.3-10.9 28-25.9 28z"  /></svg>