<?xml version="1.0" standalone="no"?><!DOCTYPE svg PUBLIC "-//W3C//DTD SVG 1.1//EN" "http://www.w3.org/Graphics/SVG/1.1/DTD/svg11.dtd"><svg class="icon" width="200px" height="200.00px" viewBox="0 0 1024 1024" version="1.1" xmlns="http://www.w3.org/2000/svg"><path fill="#333333" d="M384 60c9.9 0 18 8.1 18 18v306c0 9.9-8.1 18-18 18H78c-9.9 0-18-8.1-18-18V78c0-9.9 8.1-18 18-18h306m0-60H78C34.9 0 0 34.9 0 78v306c0 43.1 34.9 78 78 78h306c43.1 0 78-34.9 78-78V78c0-43.1-34.9-78-78-78zM946 60c9.9 0 18 8.1 18 18v306c0 9.9-8.1 18-18 18H640c-9.9 0-18-8.1-18-18V78c0-9.9 8.1-18 18-18h306m0-60H640c-43.1 0-78 34.9-78 78v306c0 43.1 34.9 78 78 78h306c43.1 0 78-34.9 78-78V78c0-43.1-34.9-78-78-78zM384 622c9.9 0 18 8.1 18 18v306c0 9.9-8.1 18-18 18H78c-9.9 0-18-8.1-18-18V640c0-9.9 8.1-18 18-18h306m0-60H78c-43.1 0-78 34.9-78 78v306c0 43.1 34.9 78 78 78h306c43.1 0 78-34.9 78-78V640c0-43.1-34.9-78-78-78zM946 622c9.9 0 18 8.1 18 18v306c0 9.9-8.1 18-18 18H640c-9.9 0-18-8.1-18-18V640c0-9.9 8.1-18 18-18h306m0-60H640c-43.1 0-78 34.9-78 78v306c0 43.1 34.9 78 78 78h306c43.1 0 78-34.9 78-78V640c0-43.1-34.9-78-78-78z" /></svg>