<?xml version="1.0" standalone="no"?><!DOCTYPE svg PUBLIC "-//W3C//DTD SVG 1.1//EN" "http://www.w3.org/Graphics/SVG/1.1/DTD/svg11.dtd"><svg class="icon" width="200px" height="200.00px" viewBox="0 0 1024 1024" version="1.1" xmlns="http://www.w3.org/2000/svg"><path fill="#333333" d="M901.5 256.9L738.5 363c-4.5 2.9-8.4 6.6-11.6 10.7V299c0-49.7-40.3-90-90-90H139.1c-49.7 0-90 40.3-90 90v426c0 49.7 40.3 90 90 90H637c49.7 0 90-40.3 90-90v-74.6c3.2 4.1 7.1 7.8 11.6 10.7l162.9 106.1c31.6 20.6 73.4-2.1 73.4-39.8V296.7c0-37.7-41.8-60.4-73.4-39.8zM571 512c0 101-81.9 183-183 183-101 0-183-81.9-183-183 0-101 81.9-183 183-183s183 82 183 183z"  /><path fill="#333333" d="M433.8 483.4l-58.5-33.8c-22-12.7-49.5 3.2-49.5 28.6v67.6c0 25.4 27.5 41.3 49.5 28.6l58.5-33.8c22-12.7 22-44.5 0-57.2z"  /></svg>