<?xml version="1.0" standalone="no"?><!DOCTYPE svg PUBLIC "-//W3C//DTD SVG 1.1//EN" "http://www.w3.org/Graphics/SVG/1.1/DTD/svg11.dtd"><svg class="icon" width="200px" height="199.61px" viewBox="0 0 1026 1024" version="1.1" xmlns="http://www.w3.org/2000/svg"><path fill="#333333" d="M-0.284407 470.690507l159.87056 0 0 42.552114-159.87056 0 0-42.552114ZM862.746387 470.690507l158.170319 0 0 42.552114-158.170319 0 0-42.552114ZM-0.447432 2.583588-0.447432 385.565901 42.104682 385.565901 42.104682 45.134815 978.528503 45.134815 978.528503 384.034886 1021.079731 384.034886 1021.079731 2.583588ZM978.528503 981.276001 42.104682 981.276001 42.104682 606.001923-0.447432 606.001923-0.447432 1023.827229 1021.079731 1023.827229 1021.079731 606.001923 978.528503 606.001923ZM611.019363 365.555501c-18.614058 34.269748-39.659311 71.369394-63.138416 105.98114L318.624756 471.536641l0 70.392131c0 65.694538-4.002966 91.143231-12.00181 120.012785-8.347044 29.572155-29.38698 55.470938-49.907719 77.388905 9.383668 10.344983 23.403795 24.593699 34.776543 35.321435 27.133872-29.572155 45.568957-61.224648 55.313229-94.969882 9.042557-29.141557 14.086577-55.447902 14.086577-137.753243l0-28.545277 373.764328 0 0-41.846855-141.379657 0c20.176969-25.914731 44.707761-50.845997 63.144619-76.765158L611.019363 365.555501zM254.951193 364.206117l153.183888 0-37.961727 22.615252c19.212111 22.230726 45.195064 55.853692 60.335986 78.974852l41.373728-27.640667c-16.339686-23.828191-38.489785-55.454104-60.292572-73.949437l354.090609 0 0-42.374913L545.528606 321.831204c-11.829039-23.649219-24.436876-44.699787-35.740515-63.136644l-38.613826 19.305141c9.216214 14.959291 17.651858 29.572155 25.306046 43.831503L254.951193 321.831204 254.951193 364.206117z" /></svg>