<?xml version="1.0" standalone="no"?><!DOCTYPE svg PUBLIC "-//W3C//DTD SVG 1.1//EN" "http://www.w3.org/Graphics/SVG/1.1/DTD/svg11.dtd"><svg class="icon" width="200px" height="199.61px" viewBox="0 0 1026 1024" version="1.1" xmlns="http://www.w3.org/2000/svg"><path fill="#333333" d="M234.871645 556.465006l21.241118 0 0 190.079205c0 0 0.000886 0.204702 0.020382 0.565366 0.06912 2.975706 0.66816 5.530489 1.630524 7.721062 2.213613 5.96116 7.402047 12.952917 19.590212 12.952917l42.727701 0 0 24.168972c0 0-0.281797 22.970891 24.572172 22.970891 25.712652 0 24.684713-22.970891 24.684713-22.970891l0-24.168972 283.533921 0 0 24.168972c0 0-0.281797 22.970891 24.572172 22.970891 25.712652 0 24.684713-22.970891 24.684713-22.970891l0-24.168972 42.519454 0c0 0 0.258757-0.001772 0.700062-0.028357 1.121871-0.042535 2.189687-0.181662 3.202562-0.409403 6.132188-1.154659 17.338494-5.370095 17.338494-20.800699L765.889845 556.465006l21.241118 0c0 0 21.241118-4.801184 21.241118-21.241118 0-16.438162-21.241118-21.24289-21.241118-21.24289l-21.241118 0L765.889845 215.711218c0-12.193483-6.994416-17.382802-12.956462-19.595529-2.189687-0.960591-4.743584-1.559632-7.71929-1.629638-0.360665-0.019495-0.565366-0.020382-0.565366-0.020382L279.450522 194.465669c0 0-0.158622 0.018609-0.429785 0.059372-0.542326-0.038105-1.096173-0.059372-1.667742-0.059372-21.241118 0-21.241118 21.245549-21.241118 21.245549l0 298.26978-21.241118 0c0 0-21.241118 2.319952-21.241118 21.24289C213.631413 554.147713 234.871645 556.465006 234.871645 556.465006zM298.593227 236.950563l424.813497 0 0 139.641963-48.117291-48.119949c0 0-0.054055-0.042535-0.137354-0.107225-6.289037-6.033824-15.466051-6.034711-15.466051-6.034711L362.315694 322.330641c0 0-8.037419 0.007975-14.224548 4.954489-0.221539 0.129379-0.349145 0.210019-0.349145 0.210019l-0.637145 0.637145c-0.382819 0.353576-0.76032 0.722216-1.120985 1.120985l-47.390644 47.392417L298.593227 236.950563zM298.593227 619.165738l95.583258 0c0 0 21.241118-0.068234 21.241118-21.239346s-21.241118-21.241118-21.241118-21.241118L298.593227 576.685274 298.593227 436.725182l71.910533-71.911419L651.552018 364.813763l71.854705 71.856478 0 140.01592L624.105162 576.68616c0 0-21.241118 0.049625-21.241118 21.241118s21.241118 21.239346 21.241118 21.239346l99.301562 0 0 106.139128-424.813497 0L298.593227 619.165738zM-0.274708 2.58314l0 1021.07126 1021.354829 0L1021.080122 2.58314-0.274708 2.58314zM978.535855 981.110133 978.535855 981.110133 42.269559 981.110133 42.269559 45.127406l936.26541 0L978.534969 981.110133z" /></svg>