<?xml version="1.0" standalone="no"?><!DOCTYPE svg PUBLIC "-//W3C//DTD SVG 1.1//EN" "http://www.w3.org/Graphics/SVG/1.1/DTD/svg11.dtd"><svg class="icon" width="200px" height="200.00px" viewBox="0 0 1024 1024" version="1.1" xmlns="http://www.w3.org/2000/svg"><path fill="#333333" d="M0.479571 0l0 1024 1023.040858 0L1023.520429 0 0.479571 0zM977.302237 977.78092l-0.000888 0L44.922463 977.78092 44.922463 42.666704l932.378887 0L977.301349 977.78092zM807.303269 657.614125 560.326083 657.614125 560.326083 509.029769 730.418301 509.029769 730.418301 466.530915 560.326083 466.530915 560.326083 359.806874 771.779506 359.806874 771.779506 317.310685 260.299485 317.310685 260.299485 359.806874 516.039496 359.806874 516.039496 657.614125 367.388533 657.614125 367.388533 423.395298 324.731599 423.395298 324.731599 657.614125 224.775722 657.614125 224.775722 700.747966 807.303269 700.747966Z" /></svg>